<svg version="1.2" xmlns="http://www.w3.org/2000/svg" viewBox="0 0 54 40" width="54" height="40"><style>.a{fill:#f7ba16;stroke:#010202;stroke-width:.8}.b{fill:#fff;stroke:#010202;stroke-width:.4}.c{fill:#e73836;stroke:#010202;stroke-width:.4}.d{fill:#fff}</style><path class="a" d="m52.9 20l-0.2 0.4-6.4 12.4c-1.8 3.5-5.4 5.8-9.3 5.8h-19.8c-3.9 0-7.5-2.2-9.3-5.8l-6.3-12.4-0.2-0.4 0.2-0.4 6.3-12.4c1.8-3.5 5.4-5.7 9.3-5.7h19.8c3.9 0 7.5 2.2 9.3 5.7l6.4 12.4z"/><path class="b" d="m44.5 26.7c-1.7 0-3-1.3-3-3 0-1.7 1.3-3 3-3 1.7 0 3 1.3 3 3 0 1.7-1.3 3-3 3z"/><path class="b" d="m27.1 16.5c-1.9 0-3.4-1.5-3.4-3.4 0-2 1.5-3.5 3.4-3.5 2 0 3.5 1.5 3.5 3.5 0 1.9-1.5 3.4-3.5 3.4z"/><path class="b" d="m37.4 20.3c-1.9 0-3.5-1.6-3.5-3.5 0-1.9 1.6-3.5 3.5-3.5 2 0 3.5 1.6 3.5 3.5 0 1.9-1.5 3.5-3.5 3.5z"/><path class="b" d="m9.7 26.7c-1.6 0-2.9-1.3-2.9-3 0-1.7 1.3-3 2.9-3 1.7 0 3 1.3 3 3 0 1.7-1.3 3-3 3z"/><path class="b" d="m16.8 20.3c-1.9 0-3.5-1.6-3.5-3.5 0-1.9 1.6-3.5 3.5-3.5 1.9 0 3.5 1.6 3.5 3.5 0 1.9-1.6 3.5-3.5 3.5z"/><path class="c" d="m42.9 23.7l1.6-1.6 1.5 1.6-1.5 1.5z"/><path class="c" d="m35.9 16.9l1.6-1.6 1.5 1.6-1.5 1.5z"/><path class="c" d="m25.6 13l1.5-1.5 1.5 1.5-1.5 1.6z"/><path class="c" d="m15.2 16.8l1.6-1.6 1.5 1.6-1.5 1.5z"/><path class="c" d="m8.2 23.8l1.5-1.5 1.6 1.5-1.6 1.6z"/><path class="d" d="m42.2 5.3v0.2q0 0.2 0 0.4-0.1 0.2-0.2 0.3 0 0.1-0.1 0.2-0.2 0-0.3 0h-0.6q-0.3 0-0.5 0.1-0.2 0.1-0.3 0.3-0.1 0.2-0.2 0.4 0 0.2 0 0.4l0.5 4.1h-0.6q-0.2 0-0.4 0-0.1 0-0.3-0.1-0.1-0.1-0.2-0.2 0-0.1 0-0.3l-0.5-3.5q0-0.3 0-0.6 0.1-0.2 0.2-0.5 0.1-0.2 0.2-0.5 0.2-0.2 0.4-0.4 0.3-0.1 0.6-0.2 0.4-0.1 0.8-0.1h1.5z"/><path class="d" d="m28.9 24.8q0 0.6 0 1.2c0 1 0 4.4 0 5.4 0 0.2-0.1 0.3-0.3 0.4q0 0 0 0-0.1 0-0.1 0c-1.2 0-1 0-2.2 0q0 0-0.1 0c-0.1 0-0.2-0.1-0.3-0.3q0-0.2 0-0.5c0-1.2 0-4.9 0-6.2q0 0 0 0 0 0 0 0 0 0 0 0c0 1.4 0 5.2 0 6.6q0 0 0 0 0 0 0 0c0-1.4 0-5.2 0-6.6q0 0-0.1 0c-0.5 0-1.6 0-2.2 0q-0.2 0-0.3-0.2c-0.1-0.1-0.1-0.4 0-0.5q1-0.9 2-1.7 0.9-0.8 1.8-1.7 0.1 0 0.2-0.1c0.2-0.1 0.3-0.1 0.5 0q0.2 0.3 0.5 0.5 0.8 0.7 1.7 1.5 0.7 0.7 1.4 1.3 0.1 0.1 0.2 0.2c0.2 0.1 0.2 0.3 0.2 0.5-0.1 0.1-0.3 0.2-0.4 0.2-0.4 0-1.7 0-2.1 0q0 0 0 0 0.1 0 0.3 0 0 0-0.1 0-0.1 0-0.3 0-0.1 0-0.3 0 0 0 0 0z"/><path class="d" d="m26.2 31.8q0.1 0 0.1 0c1.2 0 1 0 2.2 0q0 0 0.1 0-0.1 0-0.1 0c-1.2 0-1 0-2.2 0q0 0-0.1 0z"/><path class="d" d="m25.9 31.4q0 0 0 0c0-1.4 0-5.2 0-6.6q0 0 0 0 0 0 0 0c0 1.4 0 5.2 0 6.6 0 0 0 0.1 0 0.1q0 0 0-0.1z"/><path class="d" d="m28.9 24.8q0 0 0 0 0.4 0 0.7 0 0 0 0 0-0.2 0-0.3 0-0.2 0-0.4 0z"/></svg>