<svg version="1.2" xmlns="http://www.w3.org/2000/svg" viewBox="0 0 54 39" width="54" height="39"><style>.a{fill:#2856a2;stroke:#010202;stroke-width:.8}.b{fill:#fff;stroke:#010202;stroke-width:.4}.c{fill:#f7ba16;stroke:#010202;stroke-width:.4}.d{fill:#e63329;stroke:#010202;stroke-width:.4}.e{fill:#37ab4d;stroke:#010202;stroke-width:.4}.f{fill:#fff}</style><path class="a" d="m52.8 19.7l-0.2 0.4-6.3 12.4c-1.8 3.5-5.4 5.7-9.4 5.7h-19.7c-3.9 0-7.5-2.2-9.3-5.7l-6.4-12.4-0.2-0.4 0.2-0.4 6.4-12.4c1.8-3.5 5.4-5.7 9.3-5.7h19.7c4 0 7.6 2.2 9.4 5.7l6.3 12.4z"/><path class="b" d="m37.4 11.1c0.3 6.1-10.1 8.2-10.1 8.2v-15.7c10.1 1.8 10.1 7.5 10.1 7.5z"/><path class="b" d="m29.2 18.9v-14.9l1.5 0.4v14z"/><path class="c" d="m30.7 5.1v2.8l-1.6-0.5v-1.8z"/><path class="d" d="m30.7 10.3v2.8l-1.6-0.6v-1.7z"/><path class="e" d="m30.7 15.4v2.8l-1.6-0.5v-1.8z"/><path class="b" d="m32.3 17.6v-12.5l1.2 0.6v11.2z"/><path class="c" d="m33.5 6v2.3l-1.2-0.4v-1.5z"/><path class="d" d="m33.5 10.3v2.3l-1.2-0.4v-1.5z"/><path class="e" d="m33.5 14.5v2.4l-1.2-0.5v-1.4z"/><path class="b" d="m26.8 28.2c0.3 6.2-10.1 8.2-10.1 8.2v-15.7c10.1 1.9 10.1 7.5 10.1 7.5z"/><path class="b" d="m18.5 36v-14.9l1.5 0.4v14z"/><path class="c" d="m20 22.2v2.8l-1.5-0.5v-1.8z"/><path class="d" d="m20 27.4v2.8l-1.5-0.5v-1.8z"/><path class="e" d="m20 32.5v2.8l-1.5-0.5v-1.8z"/><path class="b" d="m21.6 34.7v-12.5l1.3 0.6v11.3z"/><path class="c" d="m22.9 23.1v2.4l-1.3-0.5v-1.4z"/><path class="d" d="m22.9 27.4v2.3l-1.3-0.4v-1.5z"/><path class="e" d="m22.9 31.7v2.3l-1.3-0.5v-1.4z"/><path class="f" d="m18.8 14.3q-0.6 0-1.2 0c-1 0-4.4 0-5.4 0-0.2 0-0.4-0.2-0.4-0.3q0-0.1 0-0.1 0 0 0-0.1c0-1.1 0-0.9 0-2.1q0 0 0-0.1c0-0.1 0.1-0.3 0.3-0.3q0.2 0 0.5 0c1.2 0 4.9 0 6.1 0q0 0 0.1 0 0 0 0 0 0 0-0.1 0c-1.3 0-5.1 0-6.5 0q0 0-0.1 0 0.1 0 0.1 0c1.4 0 5.2 0 6.5 0q0.1 0 0.1-0.1c0-0.5 0-1.7 0-2.2q0-0.2 0.1-0.3c0.2-0.2 0.5-0.2 0.6 0q0.8 1 1.7 1.9 0.8 1 1.6 1.9 0.1 0.1 0.2 0.2c0.1 0.1 0.1 0.3 0 0.4q-0.3 0.3-0.5 0.6-0.8 0.8-1.5 1.6-0.7 0.8-1.4 1.5-0.1 0.1-0.2 0.2c-0.1 0.1-0.2 0.2-0.4 0.1-0.1 0-0.2-0.2-0.2-0.4 0-0.4 0-1.6 0-2q0 0 0-0.1 0 0.2 0 0.3 0 0 0 0 0-0.1 0-0.3 0-0.1 0-0.3 0 0 0 0z"/><path class="f" d="m11.8 11.6q0 0 0 0.1c0 1.2 0 1 0 2.2q0 0 0 0 0 0 0-0.1c0-1.1 0-0.9 0-2.1q0-0.1 0-0.1z"/><path class="f" d="m12.1 11.3q0.1 0 0.1 0c1.4 0 5.2 0 6.5 0q0.1 0 0.1 0 0 0-0.1 0c-1.4 0-5.2 0-6.5 0-0.1 0-0.1 0-0.1 0q0 0 0 0z"/><path class="f" d="m18.8 14.3q0 0 0 0 0 0.3 0 0.6 0 0.1 0 0.1 0-0.2 0-0.3 0-0.2 0-0.4z"/><path class="f" d="m39.7 23.5v0.3q0 0.1 0 0.3-0.1 0.2-0.1 0.3-0.1 0.1-0.2 0.2-0.1 0-0.3 0h-0.6q-0.3 0-0.5 0.1-0.2 0.1-0.3 0.3-0.1 0.2-0.2 0.4 0 0.2 0 0.4l0.5 4.1h-0.6q-0.2 0-0.4 0-0.1 0-0.2-0.1-0.2-0.1-0.2-0.2-0.1-0.1-0.1-0.3l-0.5-3.5q0-0.3 0-0.5 0.1-0.3 0.2-0.6 0.1-0.2 0.2-0.5 0.2-0.2 0.4-0.4 0.3-0.1 0.6-0.2 0.4-0.1 0.9-0.1h1.4z"/></svg>