<?xml version="1.0" encoding="utf-8"?>
<!-- Generator: Adobe Illustrator 27.1.1, SVG Export Plug-In . SVG Version: 6.00 Build 0)  -->
<svg version="1.1" id="Layer_1" xmlns="http://www.w3.org/2000/svg" xmlns:xlink="http://www.w3.org/1999/xlink" x="0px" y="0px"
	 viewBox="0 0 103.34 77.48" style="enable-background:new 0 0 103.34 77.48;" xml:space="preserve">
<style type="text/css">
	.st0{fill:#D4D7EE;stroke:#010202;stroke-miterlimit:10;}
	.st1{fill:#FFFFFF;stroke:#010202;stroke-width:0.75;stroke-miterlimit:10;}
	.st2{fill:#179552;}
	.st3{fill:#C11A22;}
	.st4{fill:#FFFFFF;stroke:#010202;stroke-width:1.4583;stroke-miterlimit:10;}
	.st5{fill:#37AB4D;stroke:#010202;stroke-width:1.1973;stroke-miterlimit:10;}
	.st6{fill:#F7BA16;stroke:#010202;stroke-width:1.1973;stroke-miterlimit:10;}
	.st7{fill:#C11A22;stroke:#010202;stroke-width:1.1973;stroke-miterlimit:10;}
	.st8{fill:#FFFFFF;stroke:#010202;stroke-width:1.1726;stroke-miterlimit:10;}
	.st9{fill:#C11A22;stroke:#010202;stroke-width:1.438;stroke-miterlimit:10;}
	.st10{fill:#37AB4D;stroke:#010202;stroke-width:1.438;stroke-miterlimit:10;}
	.st11{fill:#F7BA16;stroke:#010202;stroke-width:1.438;stroke-miterlimit:10;}
	.st12{fill:#191919;stroke:#191919;stroke-miterlimit:10;}
	.st13{fill:none;stroke:#010202;stroke-width:3;stroke-linecap:round;stroke-linejoin:round;stroke-miterlimit:10;}
	.st14{fill:#C21A21;stroke:#010202;stroke-width:2;stroke-miterlimit:10;}
	.st15{fill:#FFFFFF;}
	.st16{fill:none;stroke:#010202;stroke-width:0.8258;stroke-miterlimit:10;}
	.st17{fill:#F7BA16;stroke:#010202;stroke-width:0.75;stroke-miterlimit:10;}
	.st18{fill:#C11A22;stroke:#010202;stroke-width:0.75;stroke-miterlimit:10;}
	.st19{fill:#FAEA2F;stroke:#010202;stroke-width:0.4937;stroke-miterlimit:10;}
	.st20{fill:#FFFFFF;stroke:#050707;stroke-width:0.4937;stroke-miterlimit:10;}
	.st21{fill:#E63329;stroke:#010202;stroke-width:0.1545;stroke-miterlimit:10;}
	.st22{fill:#37AB4D;stroke:#010202;stroke-width:0.75;stroke-miterlimit:10;}
	.st23{fill:#FCD802;stroke:#010202;stroke-width:1.4349;stroke-miterlimit:10;}
	.st24{fill:#FFFFFF;stroke:#010202;stroke-width:1.4349;stroke-miterlimit:10;}
	.st25{fill:none;stroke:#010202;stroke-width:1.4349;stroke-linecap:round;stroke-linejoin:round;stroke-miterlimit:10;}
	.st26{fill:#010202;}
	.st27{fill:#02A96B;stroke:#010202;stroke-width:0.75;stroke-miterlimit:10;}
	.st28{fill:#F7BA16;stroke:#010202;stroke-width:3.158;stroke-miterlimit:10;}
	.st29{fill:#FFFFFF;stroke:#010202;stroke-width:2.3588;stroke-miterlimit:10;}
	.st30{fill:#C21920;stroke:#010202;stroke-width:2.3588;stroke-miterlimit:10;}
	.st31{fill:#C21A21;stroke:#010202;stroke-width:1.1973;stroke-miterlimit:10;}
	.st32{fill:#70B966;stroke:#010202;stroke-miterlimit:10;}
	.st33{fill:#02A96B;}
	.st34{fill:#FFFFFF;stroke:#010202;stroke-width:2;stroke-miterlimit:10;}
	.st35{fill:#C21920;stroke:#010202;stroke-width:1.4407;stroke-miterlimit:10;}
	.st36{fill:#F8AB16;stroke:#010202;stroke-width:1.4407;stroke-miterlimit:10;}
	.st37{fill:#8E1963;stroke:#010202;stroke-width:1.4407;stroke-miterlimit:10;}
	.st38{fill:#FCD900;stroke:#010202;stroke-width:1.4407;stroke-miterlimit:10;}
	.st39{fill:#FFFFFF;stroke:#010202;stroke-width:1.8498;stroke-miterlimit:10;}
	.st40{fill:#8E1963;}
	.st41{fill:#8E1963;stroke:#010202;stroke-width:1.8764;stroke-miterlimit:10;}
	.st42{fill:#8E1963;stroke:#010202;stroke-width:1.4015;stroke-miterlimit:10;}
	.st43{fill:none;stroke:#010202;stroke-width:1.4015;stroke-linecap:round;stroke-linejoin:round;stroke-miterlimit:10;}
	.st44{fill:#C21920;stroke:#010202;stroke-width:1.8125;stroke-miterlimit:10;}
	.st45{fill:#FFFFFF;stroke:#010202;stroke-width:1.8478;stroke-miterlimit:10;}
	.st46{fill:#C21920;}
	.st47{fill:#F8AB16;stroke:#010202;stroke-width:1.7687;stroke-miterlimit:10;}
	.st48{fill:#F8AB16;}
	.st49{fill:#FCD900;}
	.st50{fill:none;stroke:#010202;stroke-width:1.6344;stroke-miterlimit:10;}
	.st51{fill:#FCD900;stroke:#010202;stroke-width:1.6344;stroke-miterlimit:10;}
	.st52{fill:#FFFFFF;stroke:#010202;stroke-width:0.9824;stroke-miterlimit:10;}
	.st53{fill:#C21920;stroke:#010202;stroke-width:0.4912;stroke-miterlimit:10;}
	.st54{fill:#8E1963;stroke:#010202;stroke-width:0.4912;stroke-miterlimit:10;}
	.st55{fill:#F8AB16;stroke:#010202;stroke-width:0.4912;stroke-miterlimit:10;}
	.st56{fill:#FFFFFF;stroke:#010202;stroke-width:2.0587;stroke-miterlimit:10;}
	.st57{fill:#8E1963;stroke:#010202;stroke-width:2.0883;stroke-miterlimit:10;}
	.st58{fill:#8E1963;stroke:#010202;stroke-width:1.5598;stroke-miterlimit:10;}
	.st59{fill:none;stroke:#010202;stroke-width:1.5598;stroke-linecap:round;stroke-linejoin:round;stroke-miterlimit:10;}
	.st60{fill:#C21920;stroke:#010202;stroke-width:2.0171;stroke-miterlimit:10;}
	.st61{fill:#FFFFFF;stroke:#010202;stroke-width:2.0565;stroke-miterlimit:10;}
	.st62{fill:#F8AB16;stroke:#010202;stroke-width:1.9685;stroke-miterlimit:10;}
	.st63{fill:#C11A22;stroke:#010202;stroke-width:2.0446;stroke-miterlimit:10;}
	.st64{fill:none;stroke:#010202;stroke-width:1.1741;stroke-miterlimit:10;}
	.st65{fill:#F7BA16;stroke:#010202;stroke-width:2.0446;stroke-miterlimit:10;}
	.st66{fill:#37AB4D;stroke:#010202;stroke-width:2.0446;stroke-miterlimit:10;}
	.st67{fill:#FFFFFF;stroke:#010202;stroke-width:1.3431;stroke-miterlimit:10;}
	.st68{fill:#FFFFFF;stroke:#010202;stroke-width:0.6716;stroke-miterlimit:10;}
	.st69{fill:#C21920;stroke:#010202;stroke-width:0.3358;stroke-miterlimit:10;}
	.st70{fill:#C21920;stroke:#010202;stroke-width:1.3431;stroke-miterlimit:10;}
	.st71{fill:#FFFFFF;stroke:#010202;stroke-width:1.3076;stroke-miterlimit:10;}
	.st72{fill:#C21920;stroke:#010202;stroke-width:1.3863;stroke-miterlimit:10;}
	.st73{fill:#FFFFFF;stroke:#010202;stroke-width:1.4948;stroke-miterlimit:10;}
	.st74{fill:#FFFFFF;stroke:#010202;stroke-width:0.7474;stroke-miterlimit:10;}
	.st75{fill:#C21920;stroke:#010202;stroke-width:0.3737;stroke-miterlimit:10;}
	.st76{fill:#C21920;stroke:#010202;stroke-width:1.4662;stroke-miterlimit:10;}
	.st77{fill:#F8AB16;stroke:#010202;stroke-width:0.3791;stroke-miterlimit:10;}
	.st78{fill:#F8AB16;stroke:#010202;stroke-width:1.4308;stroke-miterlimit:10;}
	.st79{fill:none;stroke:#010202;stroke-width:1.3222;stroke-miterlimit:10;}
	.st80{fill:#FCD900;stroke:#010202;stroke-width:0.3791;stroke-miterlimit:10;}
	.st81{fill:#FCD900;stroke:#010202;stroke-width:1.3222;stroke-miterlimit:10;}
	.st82{fill:#8E1963;stroke:#010202;stroke-width:0.3791;stroke-miterlimit:10;}
	.st83{fill:#8E1963;stroke:#010202;stroke-width:1.5163;stroke-miterlimit:10;}
	.st84{fill:#8E1963;stroke:#010202;stroke-width:1.1325;stroke-miterlimit:10;}
	.st85{fill:none;stroke:#010202;stroke-width:1.1325;stroke-linecap:round;stroke-linejoin:round;stroke-miterlimit:10;}
	.st86{fill:#FFFFFF;stroke:#010202;stroke-width:1.4206;stroke-miterlimit:10;}
	.st87{fill:#FFFFFF;stroke:#010202;stroke-width:0.7103;stroke-miterlimit:10;}
	.st88{fill:#C21920;stroke:#010202;stroke-width:0.3551;stroke-miterlimit:10;}
	.st89{fill:#C21920;stroke:#010202;stroke-width:1.4206;stroke-miterlimit:10;}
	.st90{fill:#FFFFFF;stroke:#010202;stroke-width:1.383;stroke-miterlimit:10;}
	.st91{fill:#FAEA2F;stroke:#010202;stroke-width:0.3551;stroke-miterlimit:10;}
	.st92{fill:#F8AB16;stroke:#010202;stroke-width:1.4205;stroke-miterlimit:10;}
	.st93{fill:#8E1963;stroke:#010202;stroke-width:1.6044;stroke-miterlimit:10;}
	.st94{fill:none;stroke:#010202;stroke-width:1.6044;stroke-linecap:round;stroke-linejoin:round;stroke-miterlimit:10;}
	.st95{fill:#FCD900;stroke:#010202;stroke-width:1.6789;stroke-miterlimit:10;}
	.st96{fill:#37AB4D;stroke:#010202;stroke-width:2;stroke-miterlimit:10;}
	.st97{fill:#C21920;stroke:#010202;stroke-width:1.7323;stroke-miterlimit:10;}
	.st98{fill:none;stroke:#C21A21;stroke-width:3.8955;stroke-linecap:round;stroke-linejoin:round;stroke-miterlimit:10;}
	.st99{fill:#333333;}
	.st100{fill:#FCD901;stroke:#010202;stroke-width:1.3419;stroke-miterlimit:10;}
	.st101{fill:#8E1963;stroke:#010202;stroke-width:1.216;stroke-miterlimit:10;}
	.st102{fill:none;stroke:#010202;stroke-width:1.216;stroke-linecap:round;stroke-linejoin:round;stroke-miterlimit:10;}
	.st103{fill:#F8AB16;stroke:#010202;stroke-width:1.5252;stroke-miterlimit:10;}
	.st104{opacity:0.52;fill:#7A8084;}
	.st105{fill:#2856A2;stroke:#010202;stroke-width:0.8146;stroke-miterlimit:10;}
	.st106{fill:#FFFFFF;stroke:#010202;stroke-width:0.3123;stroke-miterlimit:10;}
	.st107{fill:#FFFFFF;stroke:#010202;stroke-width:0.0923;stroke-miterlimit:10;}
	.st108{fill:#F7BA16;stroke:#010202;stroke-width:0.0612;stroke-miterlimit:10;}
	.st109{fill:#E63329;stroke:#010202;stroke-width:0.0612;stroke-miterlimit:10;}
	.st110{fill:#37AB4D;stroke:#010202;stroke-width:0.0612;stroke-miterlimit:10;}
	.st111{fill:#FFFFFF;stroke:#010202;stroke-width:0.0764;stroke-miterlimit:10;}
	.st112{fill:#F7BA16;stroke:#010202;stroke-width:0.0506;stroke-miterlimit:10;}
	.st113{fill:#E63329;stroke:#010202;stroke-width:0.0506;stroke-miterlimit:10;}
	.st114{fill:#37AB4D;stroke:#010202;stroke-width:0.0506;stroke-miterlimit:10;}
	.st115{fill:#179552;stroke:#010202;stroke-width:0.8326;stroke-miterlimit:10;}
	.st116{fill:#F7BA16;stroke:#010202;stroke-width:0.8146;stroke-miterlimit:10;}
	.st117{fill:#FFFFFF;stroke:#010202;stroke-width:0.4197;stroke-miterlimit:10;}
	.st118{fill:#E73836;stroke:#010202;stroke-width:0.1809;stroke-miterlimit:10;}
	.st119{fill:#D4D7EE;stroke:#010202;stroke-width:1.001;stroke-miterlimit:10;}
	.st120{fill:#FFFFFF;stroke:#010202;stroke-width:1.1881;stroke-miterlimit:10;}
	.st121{fill:#FFFFFF;stroke:#191919;stroke-width:0.9977;stroke-miterlimit:10;}
	.st122{fill:#C11A21;}
	.st123{fill:#2957A2;}
	.st124{fill:#D4D7EE;stroke:#010202;stroke-width:0.8539;stroke-miterlimit:10;}
	.st125{fill:#F7BA16;stroke:#010202;stroke-width:2.0392;stroke-miterlimit:10;}
	.st126{fill:none;stroke:#010202;stroke-width:1.171;stroke-miterlimit:10;}
	.st127{fill:#F7BA16;stroke:#010202;stroke-width:0.748;stroke-miterlimit:10;}
	.st128{fill:none;stroke:#010202;stroke-width:0.4027;stroke-miterlimit:10;}
	.st129{fill:#C11A22;stroke:#010202;stroke-width:0.3652;stroke-miterlimit:10;}
	.st130{fill:#C11A22;stroke:#010202;stroke-width:0.7033;stroke-miterlimit:10;}
</style>
<g>
	<g>
		<path class="st115" d="M94.65,39.52L83.59,28.08c-3.12-3.23-9.4-5.26-16.26-5.26H32.91c-6.86,0-13.14,2.03-16.26,5.26L5.58,39.52
			l11.07,12.17c3.12,3.23,9.4,5.26,16.26,5.26h34.42c6.86,0,13.14-2.03,16.26-5.27L94.65,39.52z"/>
	</g>
	<g>
		<path class="st15" d="M17.9,40.99c0.21,0,0.4,0.04,0.55,0.11c0.16,0.07,0.28,0.17,0.39,0.28c0.1,0.11,0.18,0.23,0.23,0.37
			s0.07,0.26,0.07,0.39c0,0.12-0.02,0.24-0.07,0.38c-0.05,0.13-0.12,0.26-0.23,0.37s-0.23,0.21-0.39,0.28
			c-0.16,0.08-0.34,0.11-0.55,0.11c-0.21,0-0.4-0.04-0.55-0.11c-0.16-0.08-0.28-0.17-0.39-0.28s-0.18-0.24-0.22-0.37
			c-0.05-0.13-0.07-0.26-0.07-0.38c0-0.12,0.02-0.25,0.07-0.38c0.05-0.13,0.12-0.25,0.22-0.37s0.23-0.21,0.39-0.28
			C17.5,41.03,17.69,40.99,17.9,40.99z M16.79,32.84h2.23l-0.15,7.02h-1.93L16.79,32.84z"/>
		<path class="st15" d="M21.65,42.26c0.17-0.17,0.36-0.3,0.57-0.42c0.21-0.11,0.43-0.2,0.66-0.27c0.23-0.07,0.48-0.12,0.73-0.15
			c0.25-0.03,0.5-0.05,0.76-0.05c0.06,0,0.12,0,0.18,0s0.12,0,0.18,0l2.21,0.02v-1.94c0-0.29-0.02-0.58-0.07-0.85
			s-0.14-0.52-0.28-0.73c-0.14-0.21-0.34-0.38-0.59-0.51c-0.25-0.13-0.58-0.19-1-0.19c-0.2,0-0.39,0-0.58,0s-0.39,0-0.58,0
			c-0.23,0-0.41-0.05-0.54-0.15c-0.13-0.09-0.23-0.22-0.29-0.36c-0.06-0.15-0.1-0.31-0.12-0.5c-0.01-0.18-0.02-0.36-0.02-0.54v-0.16
			h2.24c0.54,0,1.02,0.05,1.43,0.14s0.77,0.23,1.07,0.4c0.3,0.17,0.55,0.38,0.75,0.62c0.2,0.24,0.36,0.5,0.49,0.79
			c0.12,0.29,0.21,0.59,0.26,0.92c0.05,0.32,0.07,0.66,0.07,1v2.08l1.45,0.01v1.71h-5.8c-0.39,0-0.78,0.02-1.15,0.06
			c-0.3,0.04-0.52,0.14-0.66,0.29s-0.21,0.36-0.21,0.61c0,0.12,0.02,0.23,0.07,0.34c0.05,0.11,0.12,0.21,0.21,0.3
			s0.2,0.16,0.32,0.22c0.12,0.06,0.26,0.09,0.4,0.1c0.17,0.01,0.35,0.03,0.53,0.04c0.18,0.01,0.35,0.02,0.53,0.03
			c0.22,0.01,0.4,0.07,0.52,0.16c0.13,0.09,0.22,0.21,0.29,0.36s0.1,0.3,0.12,0.48c0.01,0.18,0.02,0.35,0.02,0.52v0.17h-1.14
			c-0.29,0-0.57-0.01-0.86-0.05s-0.56-0.08-0.83-0.16s-0.52-0.18-0.75-0.3c-0.24-0.12-0.45-0.28-0.64-0.47
			c-0.26-0.25-0.45-0.52-0.57-0.8c-0.12-0.28-0.18-0.58-0.18-0.9c0-0.34,0.06-0.67,0.19-0.99C21.16,42.83,21.37,42.53,21.65,42.26z"
			/>
		<path class="st15" d="M30.2,43.14v-1.72h2v-4.21c0-0.2,0.04-0.36,0.13-0.47c0.09-0.12,0.2-0.21,0.33-0.27
			c0.13-0.06,0.28-0.11,0.45-0.13c0.16-0.02,0.32-0.04,0.48-0.04h0.84v0.76c0.2-0.06,0.4-0.11,0.6-0.16c0.2-0.04,0.4-0.08,0.6-0.11
			l3.84-0.59c0,0,0.02,0,0.05,0c0.03,0,0.07,0,0.1,0c0.02,0,0.04,0,0.06,0c0.02,0,0.03,0,0.04,0c0.32,0.02,0.63,0.08,0.92,0.18
			c0.29,0.09,0.57,0.22,0.81,0.39s0.47,0.37,0.66,0.61s0.35,0.51,0.46,0.83c0.04,0.11,0.07,0.24,0.1,0.37
			c0.03,0.13,0.05,0.27,0.06,0.4s0.03,0.27,0.04,0.4c0.01,0.13,0.01,0.25,0.01,0.37c0,0.33-0.05,0.68-0.16,1.03
			s-0.26,0.69-0.46,0.98c-0.18,0.27-0.38,0.49-0.61,0.67c-0.22,0.17-0.47,0.31-0.73,0.42c-0.26,0.11-0.53,0.18-0.82,0.22
			c-0.29,0.04-0.59,0.06-0.9,0.06H30.2z M34.43,40.17v1.21h4.64c0.07,0,0.14,0,0.22,0c0.07,0,0.14,0,0.21,0
			c0.2-0.02,0.36-0.07,0.48-0.14s0.24-0.18,0.35-0.32c0.14-0.18,0.23-0.39,0.29-0.61c0.05-0.22,0.08-0.45,0.08-0.68
			c0-0.17-0.01-0.34-0.05-0.52c-0.03-0.18-0.08-0.35-0.16-0.51s-0.18-0.29-0.3-0.41s-0.28-0.19-0.47-0.23c-0.01,0-0.02,0-0.04,0
			c-0.02,0-0.04-0.01-0.06-0.01c-0.01,0-0.03-0.01-0.06-0.01l-3.79,0.58c-0.46,0.07-0.8,0.25-1.02,0.54
			C34.54,39.34,34.43,39.72,34.43,40.17z"/>
		<path class="st15" d="M46.97,45.26c0-0.09,0.02-0.18,0.06-0.27c0.04-0.08,0.08-0.16,0.13-0.23c0.09-0.13,0.15-0.26,0.18-0.38
			c0.03-0.15,0.06-0.31,0.09-0.48c0.03-0.17,0.05-0.35,0.06-0.53s0.03-0.36,0.04-0.54c0.01-0.18,0.01-0.34,0.01-0.49v-3.09
			c0-0.51,0.09-0.95,0.26-1.33c0.17-0.38,0.41-0.7,0.71-0.96s0.65-0.45,1.06-0.57c0.41-0.13,0.84-0.19,1.31-0.19
			c0.42,0,0.8,0.05,1.15,0.15c0.35,0.1,0.66,0.24,0.93,0.42c0.27,0.18,0.5,0.39,0.69,0.63c0.19,0.25,0.33,0.51,0.44,0.81
			c0.08,0.22,0.13,0.46,0.15,0.71s0.04,0.49,0.05,0.7h0.01v0.13c0,0.22,0.02,0.43,0.07,0.63s0.12,0.38,0.23,0.53
			c0.11,0.15,0.26,0.28,0.45,0.37s0.43,0.14,0.72,0.14h0.52v1.72h-0.51c-0.24,0-0.45-0.02-0.65-0.07c-0.2-0.05-0.37-0.11-0.53-0.2
			c-0.16-0.09-0.3-0.18-0.43-0.3c-0.13-0.11-0.24-0.24-0.34-0.37c-0.13,0.24-0.29,0.46-0.5,0.67s-0.45,0.39-0.74,0.55
			c-0.16,0.09-0.33,0.16-0.51,0.22s-0.38,0.1-0.57,0.12c-0.19,0.03-0.39,0.05-0.58,0.06s-0.38,0.01-0.54,0.01h-0.06l-0.77-0.36
			c-0.03,0.25-0.08,0.51-0.15,0.77c-0.07,0.26-0.16,0.51-0.27,0.76c-0.11,0.25-0.25,0.49-0.4,0.72c-0.16,0.23-0.35,0.45-0.57,0.65
			l-0.16,0.14l-0.16-0.13c-0.05-0.04-0.09-0.08-0.14-0.11c-0.05-0.04-0.1-0.07-0.15-0.11c-0.07-0.06-0.14-0.12-0.21-0.18
			c-0.07-0.07-0.13-0.14-0.19-0.21s-0.1-0.16-0.14-0.24C46.99,45.45,46.97,45.36,46.97,45.26z M49.64,39.48v1.98l1.33,0.62
			c0.23-0.01,0.42-0.07,0.58-0.18c0.16-0.11,0.29-0.25,0.39-0.41c0.1-0.17,0.17-0.35,0.21-0.56c0.04-0.21,0.06-0.41,0.06-0.6
			c0-0.14,0-0.3-0.01-0.47c-0.01-0.18-0.02-0.36-0.05-0.54c-0.02-0.18-0.06-0.36-0.1-0.52c-0.04-0.17-0.1-0.3-0.18-0.4
			c-0.11-0.15-0.24-0.26-0.38-0.33c-0.15-0.07-0.33-0.11-0.54-0.11c-0.23,0-0.43,0.04-0.59,0.12c-0.16,0.08-0.3,0.19-0.4,0.33
			s-0.18,0.3-0.23,0.49S49.64,39.27,49.64,39.48z"/>
		<path class="st15" d="M57.83,41.42v-2.17c0-0.27,0.03-0.54,0.09-0.83c0.06-0.28,0.17-0.55,0.32-0.8c0.15-0.25,0.35-0.49,0.59-0.7
			s0.55-0.38,0.92-0.51c-0.11-0.18-0.17-0.37-0.17-0.56c0-0.13,0.02-0.25,0.06-0.37c0.04-0.12,0.09-0.23,0.16-0.34l0.44-0.72
			l2.34,1.37c0.1,0.07,0.2,0.13,0.29,0.2c0.09,0.07,0.19,0.13,0.28,0.2h1.52c0.45,0,0.9,0.08,1.33,0.23
			c0.43,0.15,0.82,0.38,1.17,0.67c0.21,0.18,0.37,0.4,0.48,0.64s0.2,0.5,0.25,0.78c0.05,0.27,0.09,0.55,0.1,0.83
			s0.02,0.55,0.02,0.81c0,0.07,0.01,0.14,0.03,0.22s0.04,0.16,0.07,0.24c0.03,0.08,0.07,0.15,0.11,0.22
			c0.04,0.07,0.09,0.13,0.15,0.19c0.13,0.14,0.28,0.24,0.46,0.3s0.39,0.09,0.62,0.09h0.52v1.72h-0.51c-0.23,0-0.44-0.02-0.63-0.07
			c-0.19-0.05-0.37-0.11-0.53-0.19c-0.16-0.08-0.3-0.18-0.43-0.29c-0.13-0.11-0.24-0.23-0.34-0.36c-0.13,0.24-0.29,0.46-0.48,0.65
			c-0.2,0.2-0.44,0.38-0.73,0.54c-0.14,0.08-0.29,0.15-0.46,0.2s-0.34,0.09-0.52,0.12c-0.18,0.03-0.36,0.05-0.54,0.07
			c-0.18,0.01-0.34,0.02-0.49,0.02h-3.69l-1.5-0.69h-3.25v-1.72H57.83z M59.93,39.48v1.98l1.25,0.57l1.22-2.02
			c0.17-0.27,0.25-0.56,0.25-0.87c0-0.23-0.06-0.45-0.17-0.64c-0.11-0.2-0.27-0.38-0.47-0.56h-0.77c-0.23,0-0.43,0.04-0.59,0.12
			c-0.16,0.08-0.3,0.19-0.4,0.33s-0.18,0.3-0.23,0.49C59.95,39.07,59.93,39.27,59.93,39.48z M64.69,42.08
			c0.22,0,0.41-0.06,0.57-0.17c0.16-0.11,0.28-0.26,0.38-0.43c0.1-0.17,0.17-0.36,0.22-0.57c0.04-0.21,0.07-0.4,0.07-0.58
			c0-0.14,0-0.3-0.01-0.48c-0.01-0.18-0.02-0.37-0.05-0.55c-0.02-0.18-0.06-0.36-0.1-0.52s-0.1-0.3-0.18-0.4
			c-0.09-0.13-0.22-0.24-0.36-0.32c-0.15-0.08-0.31-0.12-0.49-0.12h-0.24c0.05,0.15,0.09,0.29,0.11,0.44s0.03,0.29,0.03,0.45
			c0,0.35-0.06,0.7-0.17,1.05c-0.12,0.35-0.27,0.68-0.47,0.99c-0.13,0.21-0.26,0.41-0.39,0.61s-0.26,0.4-0.39,0.6H64.69z"/>
		<path class="st15" d="M69.55,41.42h0.54c0.29,0,0.53-0.05,0.72-0.14s0.34-0.22,0.45-0.37c0.11-0.16,0.18-0.33,0.23-0.53
			s0.07-0.41,0.07-0.63v-2.1c0-0.17,0.04-0.31,0.11-0.43s0.17-0.21,0.3-0.28c0.12-0.07,0.27-0.12,0.43-0.16
			c0.16-0.03,0.34-0.05,0.52-0.05h0.87v3.02c0,0.22,0.02,0.43,0.07,0.63s0.12,0.38,0.23,0.53c0.11,0.15,0.26,0.28,0.45,0.37
			c0.19,0.09,0.43,0.14,0.72,0.14h0.52v1.72h-0.51c-0.28,0-0.53-0.03-0.75-0.1c-0.22-0.06-0.42-0.15-0.59-0.26
			c-0.17-0.11-0.32-0.23-0.45-0.38c-0.12-0.14-0.23-0.29-0.33-0.46c-0.25,0.37-0.58,0.67-1.01,0.87c-0.42,0.21-0.94,0.32-1.55,0.32
			h-1.06V41.42z M71.47,45.17c0-0.11,0.02-0.24,0.07-0.37c0.05-0.13,0.12-0.25,0.22-0.36c0.1-0.11,0.22-0.21,0.37-0.28
			c0.15-0.08,0.33-0.11,0.54-0.11c0.21,0,0.39,0.04,0.54,0.11c0.15,0.07,0.28,0.17,0.38,0.28s0.17,0.24,0.22,0.37
			c0.05,0.13,0.07,0.25,0.07,0.37c0,0.12-0.02,0.24-0.07,0.38s-0.12,0.25-0.22,0.37c-0.1,0.11-0.22,0.2-0.38,0.28
			c-0.15,0.07-0.33,0.11-0.54,0.11c-0.21,0-0.39-0.04-0.54-0.11c-0.15-0.07-0.28-0.17-0.38-0.28c-0.1-0.11-0.17-0.24-0.22-0.37
			C71.49,45.41,71.47,45.29,71.47,45.17z"/>
		<path class="st15" d="M75.36,41.42h0.54c0.29,0,0.53-0.05,0.72-0.14s0.34-0.22,0.45-0.37c0.11-0.16,0.18-0.33,0.23-0.53
			s0.07-0.41,0.07-0.63v-2.1c0-0.17,0.04-0.31,0.11-0.43s0.17-0.21,0.3-0.28c0.12-0.07,0.27-0.12,0.43-0.16
			c0.16-0.03,0.34-0.05,0.52-0.05h0.87v3.02c0,0.31-0.03,0.61-0.1,0.92c-0.07,0.31-0.17,0.61-0.3,0.9
			c-0.23,0.48-0.57,0.86-1.02,1.15c-0.45,0.28-1.04,0.42-1.75,0.42h-1.06V41.42z M77.03,33.48c0.2,0,0.37,0.04,0.52,0.11
			c0.15,0.07,0.27,0.16,0.36,0.26c0.09,0.11,0.16,0.22,0.21,0.35c0.04,0.13,0.07,0.25,0.07,0.35s-0.02,0.22-0.07,0.35
			c-0.04,0.12-0.12,0.24-0.21,0.34s-0.22,0.19-0.36,0.27c-0.14,0.07-0.32,0.11-0.51,0.11c-0.15,0-0.29-0.03-0.43-0.08
			c-0.14-0.05-0.26-0.13-0.37-0.22c-0.11-0.09-0.19-0.21-0.25-0.34c-0.06-0.13-0.1-0.27-0.1-0.42c0-0.11,0.02-0.23,0.07-0.35
			s0.11-0.24,0.21-0.35c0.09-0.11,0.21-0.2,0.36-0.27C76.66,33.52,76.83,33.48,77.03,33.48z M79.39,33.48c0.2,0,0.38,0.04,0.52,0.11
			c0.14,0.07,0.26,0.16,0.35,0.26c0.09,0.11,0.16,0.22,0.21,0.35c0.04,0.13,0.07,0.25,0.07,0.35c0,0.1-0.02,0.22-0.07,0.34
			s-0.11,0.24-0.21,0.35c-0.09,0.11-0.21,0.19-0.36,0.27c-0.14,0.07-0.31,0.11-0.51,0.11c-0.15,0-0.29-0.03-0.42-0.08
			s-0.26-0.13-0.37-0.22c-0.11-0.09-0.19-0.21-0.26-0.34c-0.07-0.13-0.1-0.27-0.1-0.42c0-0.11,0.02-0.23,0.07-0.35
			c0.04-0.13,0.11-0.24,0.21-0.35c0.09-0.11,0.21-0.19,0.36-0.26C79.02,33.52,79.19,33.48,79.39,33.48z"/>
		<path class="st15" d="M79.34,46.01c0-0.16,0.01-0.32,0.04-0.48s0.08-0.29,0.15-0.41c0.07-0.12,0.17-0.21,0.3-0.29
			s0.29-0.12,0.48-0.13h0.11c0.14,0,0.26-0.04,0.38-0.11c0.12-0.08,0.23-0.17,0.34-0.29c0.08-0.08,0.14-0.18,0.19-0.29
			s0.09-0.22,0.12-0.34c0.03-0.12,0.05-0.24,0.06-0.37c0.01-0.12,0.01-0.25,0.01-0.36v-5.03l0.01-0.27c0-0.17,0.04-0.31,0.11-0.43
			s0.17-0.21,0.3-0.28c0.12-0.07,0.27-0.12,0.44-0.16c0.17-0.03,0.34-0.05,0.52-0.05h0.87v1.4l-0.01,4.86
			c0,0.44-0.05,0.86-0.15,1.27s-0.28,0.77-0.55,1.09c-0.26,0.32-0.62,0.57-1.08,0.76c-0.46,0.19-1.04,0.29-1.75,0.29h-0.88V46.01z"
			/>
	</g>
</g>
</svg>
