<?xml version="1.0" encoding="utf-8"?>
<!-- Generator: Adobe Illustrator 27.1.1, SVG Export Plug-In . SVG Version: 6.00 Build 0)  -->
<svg version="1.1" id="Layer_1" xmlns="http://www.w3.org/2000/svg" xmlns:xlink="http://www.w3.org/1999/xlink" x="0px" y="0px"
	 viewBox="0 0 249.04 447.65" style="enable-background:new 0 0 249.04 447.65;" xml:space="preserve">
<style type="text/css">
	.st0{fill:#D4D7EE;stroke:#010202;stroke-miterlimit:10;}
	.st1{fill:#FFFFFF;stroke:#010202;stroke-width:0.75;stroke-miterlimit:10;}
	.st2{fill:#179552;}
	.st3{fill:#C11A22;}
	.st4{fill:#FFFFFF;stroke:#010202;stroke-width:1.4583;stroke-miterlimit:10;}
	.st5{fill:#37AB4D;stroke:#010202;stroke-width:1.1973;stroke-miterlimit:10;}
	.st6{fill:#F7BA16;stroke:#010202;stroke-width:1.1973;stroke-miterlimit:10;}
	.st7{fill:#C11A22;stroke:#010202;stroke-width:1.1973;stroke-miterlimit:10;}
	.st8{fill:#FFFFFF;stroke:#010202;stroke-width:1.1726;stroke-miterlimit:10;}
	.st9{fill:#C11A22;stroke:#010202;stroke-width:1.438;stroke-miterlimit:10;}
	.st10{fill:#37AB4D;stroke:#010202;stroke-width:1.438;stroke-miterlimit:10;}
	.st11{fill:#F7BA16;stroke:#010202;stroke-width:1.438;stroke-miterlimit:10;}
	.st12{fill:#191919;stroke:#191919;stroke-miterlimit:10;}
	.st13{fill:none;stroke:#010202;stroke-width:3;stroke-linecap:round;stroke-linejoin:round;stroke-miterlimit:10;}
	.st14{fill:#C21A21;stroke:#010202;stroke-width:2;stroke-miterlimit:10;}
	.st15{fill:#FFFFFF;}
	.st16{fill:none;stroke:#010202;stroke-width:0.8258;stroke-miterlimit:10;}
	.st17{fill:#F7BA16;stroke:#010202;stroke-width:0.75;stroke-miterlimit:10;}
	.st18{fill:#C11A22;stroke:#010202;stroke-width:0.75;stroke-miterlimit:10;}
	.st19{fill:#FAEA2F;stroke:#010202;stroke-width:0.4937;stroke-miterlimit:10;}
	.st20{fill:#FFFFFF;stroke:#050707;stroke-width:0.4937;stroke-miterlimit:10;}
	.st21{fill:#E63329;stroke:#010202;stroke-width:0.1545;stroke-miterlimit:10;}
	.st22{fill:#37AB4D;stroke:#010202;stroke-width:0.75;stroke-miterlimit:10;}
	.st23{fill:#FCD802;stroke:#010202;stroke-width:1.4349;stroke-miterlimit:10;}
	.st24{fill:#FFFFFF;stroke:#010202;stroke-width:1.4349;stroke-miterlimit:10;}
	.st25{fill:none;stroke:#010202;stroke-width:1.4349;stroke-linecap:round;stroke-linejoin:round;stroke-miterlimit:10;}
	.st26{fill:#010202;}
	.st27{fill:#02A96B;stroke:#010202;stroke-width:0.75;stroke-miterlimit:10;}
	.st28{fill:#F7BA16;stroke:#010202;stroke-width:3.158;stroke-miterlimit:10;}
	.st29{fill:#FFFFFF;stroke:#010202;stroke-width:2.3588;stroke-miterlimit:10;}
	.st30{fill:#C21920;stroke:#010202;stroke-width:2.3588;stroke-miterlimit:10;}
	.st31{fill:#C21A21;stroke:#010202;stroke-width:1.1973;stroke-miterlimit:10;}
	.st32{fill:#70B966;stroke:#010202;stroke-miterlimit:10;}
	.st33{fill:#02A96B;}
	.st34{fill:#FFFFFF;stroke:#010202;stroke-width:2;stroke-miterlimit:10;}
	.st35{fill:#C21920;stroke:#010202;stroke-width:1.4407;stroke-miterlimit:10;}
	.st36{fill:#F8AB16;stroke:#010202;stroke-width:1.4407;stroke-miterlimit:10;}
	.st37{fill:#8E1963;stroke:#010202;stroke-width:1.4407;stroke-miterlimit:10;}
	.st38{fill:#FCD900;stroke:#010202;stroke-width:1.4407;stroke-miterlimit:10;}
	.st39{fill:#FFFFFF;stroke:#010202;stroke-width:1.8498;stroke-miterlimit:10;}
	.st40{fill:#8E1963;}
	.st41{fill:#8E1963;stroke:#010202;stroke-width:1.8764;stroke-miterlimit:10;}
	.st42{fill:#8E1963;stroke:#010202;stroke-width:1.4015;stroke-miterlimit:10;}
	.st43{fill:none;stroke:#010202;stroke-width:1.4015;stroke-linecap:round;stroke-linejoin:round;stroke-miterlimit:10;}
	.st44{fill:#C21920;stroke:#010202;stroke-width:1.8125;stroke-miterlimit:10;}
	.st45{fill:#FFFFFF;stroke:#010202;stroke-width:1.8478;stroke-miterlimit:10;}
	.st46{fill:#C21920;}
	.st47{fill:#F8AB16;stroke:#010202;stroke-width:1.7687;stroke-miterlimit:10;}
	.st48{fill:#F8AB16;}
	.st49{fill:#FCD900;}
	.st50{fill:none;stroke:#010202;stroke-width:1.6344;stroke-miterlimit:10;}
	.st51{fill:#FCD900;stroke:#010202;stroke-width:1.6344;stroke-miterlimit:10;}
	.st52{fill:#FFFFFF;stroke:#010202;stroke-width:0.9824;stroke-miterlimit:10;}
	.st53{fill:#C21920;stroke:#010202;stroke-width:0.4912;stroke-miterlimit:10;}
	.st54{fill:#8E1963;stroke:#010202;stroke-width:0.4912;stroke-miterlimit:10;}
	.st55{fill:#F8AB16;stroke:#010202;stroke-width:0.4912;stroke-miterlimit:10;}
	.st56{fill:#FFFFFF;stroke:#010202;stroke-width:2.0587;stroke-miterlimit:10;}
	.st57{fill:#8E1963;stroke:#010202;stroke-width:2.0883;stroke-miterlimit:10;}
	.st58{fill:#8E1963;stroke:#010202;stroke-width:1.5598;stroke-miterlimit:10;}
	.st59{fill:none;stroke:#010202;stroke-width:1.5598;stroke-linecap:round;stroke-linejoin:round;stroke-miterlimit:10;}
	.st60{fill:#C21920;stroke:#010202;stroke-width:2.0171;stroke-miterlimit:10;}
	.st61{fill:#FFFFFF;stroke:#010202;stroke-width:2.0565;stroke-miterlimit:10;}
	.st62{fill:#F8AB16;stroke:#010202;stroke-width:1.9685;stroke-miterlimit:10;}
	.st63{fill:#C11A22;stroke:#010202;stroke-width:2.0446;stroke-miterlimit:10;}
	.st64{fill:none;stroke:#010202;stroke-width:1.1741;stroke-miterlimit:10;}
	.st65{fill:#F7BA16;stroke:#010202;stroke-width:2.0446;stroke-miterlimit:10;}
	.st66{fill:#37AB4D;stroke:#010202;stroke-width:2.0446;stroke-miterlimit:10;}
	.st67{fill:#FFFFFF;stroke:#010202;stroke-width:1.3431;stroke-miterlimit:10;}
	.st68{fill:#FFFFFF;stroke:#010202;stroke-width:0.6716;stroke-miterlimit:10;}
	.st69{fill:#C21920;stroke:#010202;stroke-width:0.3358;stroke-miterlimit:10;}
	.st70{fill:#C21920;stroke:#010202;stroke-width:1.3431;stroke-miterlimit:10;}
	.st71{fill:#FFFFFF;stroke:#010202;stroke-width:1.3076;stroke-miterlimit:10;}
	.st72{fill:#C21920;stroke:#010202;stroke-width:1.3863;stroke-miterlimit:10;}
	.st73{fill:#FFFFFF;stroke:#010202;stroke-width:1.4948;stroke-miterlimit:10;}
	.st74{fill:#FFFFFF;stroke:#010202;stroke-width:0.7474;stroke-miterlimit:10;}
	.st75{fill:#C21920;stroke:#010202;stroke-width:0.3737;stroke-miterlimit:10;}
	.st76{fill:#C21920;stroke:#010202;stroke-width:1.4662;stroke-miterlimit:10;}
	.st77{fill:#F8AB16;stroke:#010202;stroke-width:0.3791;stroke-miterlimit:10;}
	.st78{fill:#F8AB16;stroke:#010202;stroke-width:1.4308;stroke-miterlimit:10;}
	.st79{fill:none;stroke:#010202;stroke-width:1.3222;stroke-miterlimit:10;}
	.st80{fill:#FCD900;stroke:#010202;stroke-width:0.3791;stroke-miterlimit:10;}
	.st81{fill:#FCD900;stroke:#010202;stroke-width:1.3222;stroke-miterlimit:10;}
	.st82{fill:#8E1963;stroke:#010202;stroke-width:0.3791;stroke-miterlimit:10;}
	.st83{fill:#8E1963;stroke:#010202;stroke-width:1.5163;stroke-miterlimit:10;}
	.st84{fill:#8E1963;stroke:#010202;stroke-width:1.1325;stroke-miterlimit:10;}
	.st85{fill:none;stroke:#010202;stroke-width:1.1325;stroke-linecap:round;stroke-linejoin:round;stroke-miterlimit:10;}
	.st86{fill:#FFFFFF;stroke:#010202;stroke-width:1.4206;stroke-miterlimit:10;}
	.st87{fill:#FFFFFF;stroke:#010202;stroke-width:0.7103;stroke-miterlimit:10;}
	.st88{fill:#C21920;stroke:#010202;stroke-width:0.3551;stroke-miterlimit:10;}
	.st89{fill:#C21920;stroke:#010202;stroke-width:1.4206;stroke-miterlimit:10;}
	.st90{fill:#FFFFFF;stroke:#010202;stroke-width:1.383;stroke-miterlimit:10;}
	.st91{fill:#FAEA2F;stroke:#010202;stroke-width:0.3551;stroke-miterlimit:10;}
	.st92{fill:#F8AB16;stroke:#010202;stroke-width:1.4205;stroke-miterlimit:10;}
	.st93{fill:#8E1963;stroke:#010202;stroke-width:1.6044;stroke-miterlimit:10;}
	.st94{fill:none;stroke:#010202;stroke-width:1.6044;stroke-linecap:round;stroke-linejoin:round;stroke-miterlimit:10;}
	.st95{fill:#FCD900;stroke:#010202;stroke-width:1.6789;stroke-miterlimit:10;}
	.st96{fill:#37AB4D;stroke:#010202;stroke-width:2;stroke-miterlimit:10;}
	.st97{fill:#C21920;stroke:#010202;stroke-width:1.7323;stroke-miterlimit:10;}
	.st98{fill:none;stroke:#C21A21;stroke-width:3.8955;stroke-linecap:round;stroke-linejoin:round;stroke-miterlimit:10;}
	.st99{fill:#333333;}
	.st100{fill:#FCD901;stroke:#010202;stroke-width:1.3419;stroke-miterlimit:10;}
	.st101{fill:#8E1963;stroke:#010202;stroke-width:1.216;stroke-miterlimit:10;}
	.st102{fill:none;stroke:#010202;stroke-width:1.216;stroke-linecap:round;stroke-linejoin:round;stroke-miterlimit:10;}
	.st103{fill:#F8AB16;stroke:#010202;stroke-width:1.5252;stroke-miterlimit:10;}
	.st104{opacity:0.52;fill:#7A8084;}
	.st105{fill:#2856A2;stroke:#010202;stroke-width:0.8146;stroke-miterlimit:10;}
	.st106{fill:#FFFFFF;stroke:#010202;stroke-width:0.3123;stroke-miterlimit:10;}
	.st107{fill:#FFFFFF;stroke:#010202;stroke-width:0.0923;stroke-miterlimit:10;}
	.st108{fill:#F7BA16;stroke:#010202;stroke-width:0.0612;stroke-miterlimit:10;}
	.st109{fill:#E63329;stroke:#010202;stroke-width:0.0612;stroke-miterlimit:10;}
	.st110{fill:#37AB4D;stroke:#010202;stroke-width:0.0612;stroke-miterlimit:10;}
	.st111{fill:#FFFFFF;stroke:#010202;stroke-width:0.0764;stroke-miterlimit:10;}
	.st112{fill:#F7BA16;stroke:#010202;stroke-width:0.0506;stroke-miterlimit:10;}
	.st113{fill:#E63329;stroke:#010202;stroke-width:0.0506;stroke-miterlimit:10;}
	.st114{fill:#37AB4D;stroke:#010202;stroke-width:0.0506;stroke-miterlimit:10;}
	.st115{fill:#179552;stroke:#010202;stroke-width:0.8326;stroke-miterlimit:10;}
	.st116{fill:#F7BA16;stroke:#010202;stroke-width:0.8146;stroke-miterlimit:10;}
	.st117{fill:#FFFFFF;stroke:#010202;stroke-width:0.4197;stroke-miterlimit:10;}
	.st118{fill:#E73836;stroke:#010202;stroke-width:0.1809;stroke-miterlimit:10;}
	.st119{fill:#D4D7EE;stroke:#010202;stroke-width:1.001;stroke-miterlimit:10;}
	.st120{fill:#FFFFFF;stroke:#010202;stroke-width:1.1881;stroke-miterlimit:10;}
	.st121{fill:#FFFFFF;stroke:#191919;stroke-width:0.9977;stroke-miterlimit:10;}
	.st122{fill:#C11A21;}
	.st123{fill:#2957A2;}
	.st124{fill:#D4D7EE;stroke:#010202;stroke-width:0.8539;stroke-miterlimit:10;}
	.st125{fill:#F7BA16;stroke:#010202;stroke-width:2.0392;stroke-miterlimit:10;}
	.st126{fill:none;stroke:#010202;stroke-width:1.171;stroke-miterlimit:10;}
	.st127{fill:#F7BA16;stroke:#010202;stroke-width:0.748;stroke-miterlimit:10;}
	.st128{fill:none;stroke:#010202;stroke-width:0.4027;stroke-miterlimit:10;}
	.st129{fill:#C11A22;stroke:#010202;stroke-width:0.3652;stroke-miterlimit:10;}
	.st130{fill:#C11A22;stroke:#010202;stroke-width:0.7033;stroke-miterlimit:10;}
</style>
<g>
	<g>
		<polygon class="st33" points="219.78,224.1 219.58,224.45 124.66,386.11 32.73,224.51 32.5,224.1 32.73,223.71 124.66,62.1 
			219.58,223.75 		"/>
		<polygon class="st34" points="107.4,33.6 124.65,61.52 32.21,223.08 15.83,195.28 124.65,3 		"/>
		<polygon class="st34" points="234.79,196.17 219.09,222.5 124.65,61.52 142.59,34.76 124.65,3 		"/>
		<polygon class="st38" points="142.59,34.76 124.65,61.52 107.4,33.6 124.65,3 		"/>
	</g>
	<g>
		<polygon class="st34" points="107.4,414.6 124.65,445.21 15.83,252.92 32.21,225.13 124.65,386.69 		"/>
		<polygon class="st34" points="124.65,445.21 142.59,413.44 124.65,386.69 219.09,225.7 234.79,252.03 		"/>
		<polygon class="st38" points="142.59,413.44 124.65,445.21 107.4,414.6 124.65,386.69 		"/>
	</g>
</g>
<g>
	<path class="st15" d="M98.14,298.74l-0.37,0.28c0.11-0.07,0.27-0.13,0.5-0.17c0.23-0.04,0.46-0.07,0.7-0.09
		c0.29-0.02,0.59-0.04,0.9-0.04c-0.58-0.83-0.87-1.74-0.87-2.72c0-0.56,0.11-1.1,0.32-1.63c0.22-0.52,0.54-0.99,0.96-1.4
		c0.43-0.41,0.96-0.73,1.59-0.98c0.63-0.25,1.36-0.37,2.19-0.37c0.88,0,1.67,0.11,2.38,0.32c0.71,0.21,1.4,0.52,2.07,0.93l0.18,0.12
		l-0.05,0.16c-0.07,0.22-0.16,0.44-0.25,0.65s-0.21,0.41-0.35,0.58s-0.3,0.31-0.5,0.42s-0.43,0.16-0.7,0.16
		c-0.12,0-0.24-0.01-0.34-0.04s-0.2-0.05-0.28-0.07c-0.09-0.02-0.17-0.05-0.25-0.08c-0.08-0.03-0.15-0.05-0.23-0.08
		c-0.14-0.04-0.3-0.07-0.5-0.08c-0.2-0.01-0.38-0.02-0.56-0.02c-0.58,0-1.04,0.15-1.37,0.45c-0.33,0.3-0.5,0.67-0.5,1.13
		c0,0.37,0.08,0.72,0.24,1.03c0.16,0.31,0.39,0.58,0.69,0.81c0.3,0.23,0.65,0.41,1.06,0.53s0.87,0.19,1.36,0.19h0.94
		c0.59,0.02,1.01,0.18,1.28,0.51c0.27,0.32,0.4,0.76,0.4,1.31v1.15h-9.48c-0.55,0-0.96-0.17-1.23-0.52c-0.26-0.35-0.4-0.78-0.4-1.29
		v-1.15H98.14z"/>
	<path class="st15" d="M111.66,295.71v-10.19c0-0.29,0.06-0.54,0.19-0.75c0.12-0.2,0.3-0.37,0.51-0.49s0.47-0.22,0.75-0.27
		c0.28-0.05,0.59-0.08,0.9-0.08h1.48v11.78c0,0.4,0.03,0.78,0.1,1.14c0.07,0.36,0.19,0.68,0.38,0.96c0.19,0.28,0.45,0.5,0.78,0.67
		c0.33,0.17,0.77,0.25,1.31,0.25h0.9v2.97h-1.55c-0.8,0-1.49-0.08-2.09-0.25s-1.1-0.39-1.53-0.68c-0.42-0.28-0.77-0.62-1.05-1.01
		s-0.5-0.8-0.66-1.25c-0.16-0.44-0.28-0.9-0.34-1.38C111.69,296.66,111.66,296.18,111.66,295.71z"/>
	<path class="st15" d="M119.15,298.73c0.51,0,0.92-0.08,1.25-0.24c0.32-0.16,0.58-0.37,0.77-0.64c0.19-0.27,0.32-0.58,0.4-0.92
		c0.08-0.35,0.12-0.71,0.12-1.08v-3.63c0-0.29,0.06-0.54,0.19-0.74c0.12-0.2,0.3-0.37,0.51-0.49c0.22-0.12,0.46-0.21,0.75-0.27
		c0.28-0.06,0.58-0.09,0.9-0.09h1.5v5.21c0,0.37,0.04,0.74,0.12,1.09c0.08,0.35,0.21,0.66,0.4,0.92s0.45,0.48,0.78,0.63
		c0.33,0.16,0.74,0.24,1.25,0.24h0.9v2.97h-0.88c-0.48,0-0.91-0.05-1.29-0.17c-0.38-0.11-0.72-0.26-1.01-0.45
		c-0.3-0.19-0.55-0.4-0.77-0.65c-0.21-0.25-0.4-0.51-0.57-0.79c-0.43,0.64-1.01,1.15-1.73,1.51s-1.62,0.54-2.67,0.54h-1.82v-2.97
		H119.15z M119.68,305.16c0-0.2,0.04-0.4,0.11-0.62c0.07-0.22,0.19-0.42,0.36-0.6c0.16-0.19,0.37-0.34,0.62-0.46
		s0.56-0.18,0.92-0.18c0.29,0,0.55,0.04,0.78,0.13s0.42,0.21,0.59,0.35c0.16,0.14,0.29,0.3,0.4,0.48s0.17,0.35,0.21,0.53
		c0.04-0.17,0.11-0.35,0.21-0.53s0.22-0.34,0.38-0.48c0.16-0.14,0.35-0.26,0.57-0.35c0.22-0.09,0.49-0.13,0.79-0.13
		c0.35,0,0.65,0.06,0.91,0.18s0.47,0.27,0.63,0.46c0.16,0.18,0.29,0.38,0.37,0.6c0.08,0.22,0.12,0.43,0.12,0.62s-0.04,0.4-0.12,0.62
		c-0.08,0.22-0.21,0.42-0.37,0.6c-0.17,0.18-0.38,0.34-0.63,0.46s-0.55,0.18-0.9,0.18c-0.29,0-0.55-0.04-0.78-0.13
		c-0.23-0.09-0.42-0.21-0.58-0.35c-0.16-0.14-0.29-0.3-0.38-0.48s-0.17-0.35-0.21-0.52c-0.04,0.18-0.11,0.36-0.21,0.53
		c-0.1,0.18-0.24,0.33-0.4,0.48c-0.17,0.14-0.36,0.26-0.59,0.35c-0.22,0.09-0.48,0.13-0.78,0.13c-0.35,0-0.65-0.06-0.9-0.18
		c-0.25-0.12-0.46-0.28-0.62-0.46c-0.16-0.19-0.28-0.39-0.36-0.6C119.72,305.56,119.68,305.35,119.68,305.16z"/>
	<path class="st15" d="M128.23,298.73h3.44v-7.25c0-0.34,0.07-0.61,0.22-0.82c0.15-0.2,0.34-0.36,0.57-0.47
		c0.23-0.11,0.49-0.18,0.77-0.23s0.55-0.07,0.82-0.07h1.45v1.31c0.34-0.11,0.69-0.2,1.04-0.27s0.7-0.13,1.04-0.18l6.63-1.01
		c0.01,0,0.04,0,0.09-0.01c0.05,0,0.11,0,0.18,0.01c0.04,0,0.08,0,0.11,0.01c0.03,0,0.05,0.01,0.06,0.01
		c0.55,0.04,1.08,0.14,1.59,0.3c0.51,0.16,0.98,0.39,1.4,0.67s0.81,0.63,1.14,1.04c0.33,0.41,0.6,0.89,0.79,1.42
		c0.06,0.2,0.12,0.41,0.16,0.63s0.08,0.46,0.11,0.7c0.03,0.24,0.05,0.47,0.06,0.7c0.01,0.23,0.02,0.44,0.02,0.63
		c0,0.57-0.09,1.16-0.28,1.78c-0.18,0.62-0.45,1.18-0.79,1.7c-0.31,0.46-0.66,0.85-1.04,1.15c-0.39,0.3-0.8,0.54-1.25,0.73
		c-0.45,0.18-0.92,0.31-1.42,0.38s-1.01,0.11-1.55,0.11h-15.39V298.73z M135.52,296.58v2.09h8.01c0.12,0,0.24,0,0.37,0.01
		c0.13,0,0.25,0,0.36-0.01c0.34-0.04,0.62-0.12,0.84-0.24c0.21-0.12,0.42-0.3,0.6-0.55c0.24-0.32,0.4-0.67,0.49-1.06
		c0.09-0.39,0.14-0.77,0.14-1.17c0-0.29-0.03-0.59-0.08-0.9s-0.14-0.6-0.27-0.87c-0.13-0.27-0.3-0.51-0.52-0.71s-0.49-0.33-0.81-0.4
		c-0.02,0-0.04,0-0.07-0.01c-0.03,0-0.06-0.01-0.1-0.02c-0.02-0.01-0.05-0.01-0.1-0.01l-6.54,1c-0.8,0.12-1.38,0.43-1.76,0.92
		S135.52,295.79,135.52,296.58z M140.93,283.67c0.36,0,0.67,0.06,0.93,0.19c0.26,0.13,0.48,0.29,0.65,0.48
		c0.17,0.2,0.3,0.41,0.38,0.63c0.08,0.23,0.12,0.44,0.12,0.63c0,0.2-0.04,0.42-0.12,0.64c-0.08,0.22-0.21,0.43-0.38,0.62
		c-0.17,0.19-0.39,0.35-0.65,0.48c-0.26,0.13-0.57,0.19-0.93,0.19c-0.36,0-0.67-0.06-0.93-0.19c-0.26-0.13-0.47-0.29-0.65-0.48
		c-0.17-0.19-0.3-0.4-0.38-0.63c-0.08-0.23-0.12-0.44-0.12-0.63s0.04-0.41,0.12-0.63c0.08-0.23,0.21-0.44,0.37-0.63
		c0.17-0.19,0.38-0.35,0.64-0.48C140.25,283.74,140.56,283.67,140.93,283.67z"/>
</g>
<g>
	<g>
		<g>
			<g>
				<g>
					<path class="st49" d="M77.69,203.65l-10.55-4.21c-0.65-0.26-1.34,0.26-1.26,0.96l1.92,18.11c0.07,0.7-0.62,1.22-1.27,0.95
						l-4.91-2.02c-0.75-0.31-1.51,0.43-1.22,1.19l10.28,26.69c0.37,0.97,1.81,0.69,1.79-0.35l-0.25-13.12
						c-0.01-0.66,0.65-1.12,1.27-0.88l3.61,1.44c0.61,0.24,1.27-0.21,1.27-0.86l-0.09-27.04C78.27,204.13,78.04,203.79,77.69,203.65
						z"/>
					<path class="st50" d="M77.69,203.65l-10.55-4.21c-0.65-0.26-1.34,0.26-1.26,0.96l1.92,18.11c0.07,0.7-0.62,1.22-1.27,0.95
						l-4.91-2.02c-0.75-0.31-1.51,0.43-1.22,1.19l10.28,26.69c0.37,0.97,1.81,0.69,1.79-0.35l-0.25-13.12
						c-0.01-0.66,0.65-1.12,1.27-0.88l3.61,1.44c0.61,0.24,1.27-0.21,1.27-0.86l-0.09-27.04C78.27,204.13,78.04,203.79,77.69,203.65
						z"/>
				</g>
			</g>
			<g>
				<g>
					<path class="st49" d="M176.92,203.65l10.55-4.21c0.65-0.26,1.34,0.26,1.26,0.96l-1.92,18.11c-0.07,0.7,0.62,1.22,1.27,0.95
						l4.91-2.02c0.75-0.31,1.51,0.43,1.22,1.19l-10.28,26.69c-0.37,0.97-1.81,0.69-1.79-0.35l0.25-13.12
						c0.01-0.66-0.65-1.12-1.27-0.88l-3.61,1.44c-0.61,0.24-1.27-0.21-1.27-0.86l0.09-27.04
						C176.34,204.13,176.57,203.79,176.92,203.65z"/>
					<path class="st50" d="M176.92,203.65l10.55-4.21c0.65-0.26,1.34,0.26,1.26,0.96l-1.92,18.11c-0.07,0.7,0.62,1.22,1.27,0.95
						l4.91-2.02c0.75-0.31,1.51,0.43,1.22,1.19l-10.28,26.69c-0.37,0.97-1.81,0.69-1.79-0.35l0.25-13.12
						c0.01-0.66-0.65-1.12-1.27-0.88l-3.61,1.44c-0.61,0.24-1.27-0.21-1.27-0.86l0.09-27.04
						C176.34,204.13,176.57,203.79,176.92,203.65z"/>
				</g>
			</g>
		</g>
	</g>
	<g>
		<path class="st45" d="M179.16,219.46c-0.34,6.39-2.21,13.29-6.25,20.32c0,0-6.89,14.03-25.22,17.85
			c-0.81,0.16-1.64,0.24-2.46,0.24h-34.72c-1.4,0-2.79-0.22-4.12-0.69c-3.63-1.28-11.23-4.39-17.87-9.92
			c-6.29-5.23-10.32-12.69-11.68-20.75c-0.71-4.2-1.12-9.43-0.39-14.93c0.19-1.54,0.49-3.1,0.9-4.67
			c1.27-5.01,3.63-10.07,7.68-14.65c4.7-5.3,11-8.89,17.83-10.77c9.79-2.7,28.45-6.19,48.09-1.18c7.45,1.91,14.23,5.89,19.28,11.7
			c3.07,3.54,5.79,8.3,7.4,13.89C178.83,210.01,179.43,214.59,179.16,219.46z"/>
		<g>
			<ellipse class="st26" cx="144.29" cy="214.38" rx="5.84" ry="8.86"/>
			<ellipse class="st26" cx="112.71" cy="214.38" rx="5.84" ry="8.86"/>
		</g>
		<g>
			<g>
				<ellipse class="st49" cx="151.25" cy="232.61" rx="5.77" ry="2.61"/>
				<ellipse class="st49" cx="105.75" cy="232.61" rx="5.77" ry="2.61"/>
			</g>
		</g>
		<path class="st51" d="M130.76,245.06c0,0-8.29,0.49-7.28-5.76c0.02-0.12,0.13-0.21,0.25-0.21h12.43
			C136.15,239.09,137.19,244.69,130.76,245.06z"/>
		<g>
			<path class="st49" d="M128.11,182.39l6.27-0.1c0.38-0.01,0.64,0.4,0.46,0.74L130.3,192c-0.18,0.35,0.08,0.75,0.47,0.74l2.93-0.08
				c0.45-0.01,0.69,0.52,0.39,0.85l-10.54,11.75c-0.38,0.43-1.07,0-0.85-0.53l2.71-6.72c0.14-0.34-0.12-0.71-0.48-0.7l-2.15,0.03
				c-0.36,0.01-0.61-0.36-0.48-0.69l5.36-13.92C127.72,182.52,127.91,182.39,128.11,182.39z"/>
		</g>
	</g>
</g>
</svg>
