<?xml version="1.0" encoding="utf-8"?>
<!-- Generator: Adobe Illustrator 27.1.1, SVG Export Plug-In . SVG Version: 6.00 Build 0)  -->
<svg version="1.1" id="Layer_1" xmlns="http://www.w3.org/2000/svg" xmlns:xlink="http://www.w3.org/1999/xlink" x="0px" y="0px"
	 viewBox="0 0 241.66 449.24" style="enable-background:new 0 0 241.66 449.24;" xml:space="preserve">
<style type="text/css">
	.st0{fill:#D4D7EE;stroke:#010202;stroke-miterlimit:10;}
	.st1{fill:#FFFFFF;stroke:#010202;stroke-width:0.75;stroke-miterlimit:10;}
	.st2{fill:#179552;}
	.st3{fill:#C11A22;}
	.st4{fill:#FFFFFF;stroke:#010202;stroke-width:1.4583;stroke-miterlimit:10;}
	.st5{fill:#37AB4D;stroke:#010202;stroke-width:1.1973;stroke-miterlimit:10;}
	.st6{fill:#F7BA16;stroke:#010202;stroke-width:1.1973;stroke-miterlimit:10;}
	.st7{fill:#C11A22;stroke:#010202;stroke-width:1.1973;stroke-miterlimit:10;}
	.st8{fill:#FFFFFF;stroke:#010202;stroke-width:1.1726;stroke-miterlimit:10;}
	.st9{fill:#C11A22;stroke:#010202;stroke-width:1.438;stroke-miterlimit:10;}
	.st10{fill:#37AB4D;stroke:#010202;stroke-width:1.438;stroke-miterlimit:10;}
	.st11{fill:#F7BA16;stroke:#010202;stroke-width:1.438;stroke-miterlimit:10;}
	.st12{fill:#191919;stroke:#191919;stroke-miterlimit:10;}
	.st13{fill:none;stroke:#010202;stroke-width:3;stroke-linecap:round;stroke-linejoin:round;stroke-miterlimit:10;}
	.st14{fill:#C21A21;stroke:#010202;stroke-width:2;stroke-miterlimit:10;}
	.st15{fill:#FFFFFF;}
	.st16{fill:none;stroke:#010202;stroke-width:0.8258;stroke-miterlimit:10;}
	.st17{fill:#F7BA16;stroke:#010202;stroke-width:0.75;stroke-miterlimit:10;}
	.st18{fill:#C11A22;stroke:#010202;stroke-width:0.75;stroke-miterlimit:10;}
	.st19{fill:#FAEA2F;stroke:#010202;stroke-width:0.4937;stroke-miterlimit:10;}
	.st20{fill:#FFFFFF;stroke:#050707;stroke-width:0.4937;stroke-miterlimit:10;}
	.st21{fill:#E63329;stroke:#010202;stroke-width:0.1545;stroke-miterlimit:10;}
	.st22{fill:#37AB4D;stroke:#010202;stroke-width:0.75;stroke-miterlimit:10;}
	.st23{fill:#FCD802;stroke:#010202;stroke-width:1.4349;stroke-miterlimit:10;}
	.st24{fill:#FFFFFF;stroke:#010202;stroke-width:1.4349;stroke-miterlimit:10;}
	.st25{fill:none;stroke:#010202;stroke-width:1.4349;stroke-linecap:round;stroke-linejoin:round;stroke-miterlimit:10;}
	.st26{fill:#010202;}
	.st27{fill:#02A96B;stroke:#010202;stroke-width:0.75;stroke-miterlimit:10;}
	.st28{fill:#F7BA16;stroke:#010202;stroke-width:3.158;stroke-miterlimit:10;}
	.st29{fill:#FFFFFF;stroke:#010202;stroke-width:2.3588;stroke-miterlimit:10;}
	.st30{fill:#C21920;stroke:#010202;stroke-width:2.3588;stroke-miterlimit:10;}
	.st31{fill:#C21A21;stroke:#010202;stroke-width:1.1973;stroke-miterlimit:10;}
	.st32{fill:#70B966;stroke:#010202;stroke-miterlimit:10;}
	.st33{fill:#02A96B;}
	.st34{fill:#FFFFFF;stroke:#010202;stroke-width:2;stroke-miterlimit:10;}
	.st35{fill:#C21920;stroke:#010202;stroke-width:1.4407;stroke-miterlimit:10;}
	.st36{fill:#F8AB16;stroke:#010202;stroke-width:1.4407;stroke-miterlimit:10;}
	.st37{fill:#8E1963;stroke:#010202;stroke-width:1.4407;stroke-miterlimit:10;}
	.st38{fill:#FCD900;stroke:#010202;stroke-width:1.4407;stroke-miterlimit:10;}
	.st39{fill:#FFFFFF;stroke:#010202;stroke-width:1.8498;stroke-miterlimit:10;}
	.st40{fill:#8E1963;}
	.st41{fill:#8E1963;stroke:#010202;stroke-width:1.8764;stroke-miterlimit:10;}
	.st42{fill:#8E1963;stroke:#010202;stroke-width:1.4015;stroke-miterlimit:10;}
	.st43{fill:none;stroke:#010202;stroke-width:1.4015;stroke-linecap:round;stroke-linejoin:round;stroke-miterlimit:10;}
	.st44{fill:#C21920;stroke:#010202;stroke-width:1.8125;stroke-miterlimit:10;}
	.st45{fill:#FFFFFF;stroke:#010202;stroke-width:1.8478;stroke-miterlimit:10;}
	.st46{fill:#C21920;}
	.st47{fill:#F8AB16;stroke:#010202;stroke-width:1.7687;stroke-miterlimit:10;}
	.st48{fill:#F8AB16;}
	.st49{fill:#FCD900;}
	.st50{fill:none;stroke:#010202;stroke-width:1.6344;stroke-miterlimit:10;}
	.st51{fill:#FCD900;stroke:#010202;stroke-width:1.6344;stroke-miterlimit:10;}
	.st52{fill:#FFFFFF;stroke:#010202;stroke-width:0.9824;stroke-miterlimit:10;}
	.st53{fill:#C21920;stroke:#010202;stroke-width:0.4912;stroke-miterlimit:10;}
	.st54{fill:#8E1963;stroke:#010202;stroke-width:0.4912;stroke-miterlimit:10;}
	.st55{fill:#F8AB16;stroke:#010202;stroke-width:0.4912;stroke-miterlimit:10;}
	.st56{fill:#FFFFFF;stroke:#010202;stroke-width:2.0587;stroke-miterlimit:10;}
	.st57{fill:#8E1963;stroke:#010202;stroke-width:2.0883;stroke-miterlimit:10;}
	.st58{fill:#8E1963;stroke:#010202;stroke-width:1.5598;stroke-miterlimit:10;}
	.st59{fill:none;stroke:#010202;stroke-width:1.5598;stroke-linecap:round;stroke-linejoin:round;stroke-miterlimit:10;}
	.st60{fill:#C21920;stroke:#010202;stroke-width:2.0171;stroke-miterlimit:10;}
	.st61{fill:#FFFFFF;stroke:#010202;stroke-width:2.0565;stroke-miterlimit:10;}
	.st62{fill:#F8AB16;stroke:#010202;stroke-width:1.9685;stroke-miterlimit:10;}
	.st63{fill:#C11A22;stroke:#010202;stroke-width:2.0446;stroke-miterlimit:10;}
	.st64{fill:none;stroke:#010202;stroke-width:1.1741;stroke-miterlimit:10;}
	.st65{fill:#F7BA16;stroke:#010202;stroke-width:2.0446;stroke-miterlimit:10;}
	.st66{fill:#37AB4D;stroke:#010202;stroke-width:2.0446;stroke-miterlimit:10;}
	.st67{fill:#FFFFFF;stroke:#010202;stroke-width:1.3431;stroke-miterlimit:10;}
	.st68{fill:#FFFFFF;stroke:#010202;stroke-width:0.6716;stroke-miterlimit:10;}
	.st69{fill:#C21920;stroke:#010202;stroke-width:0.3358;stroke-miterlimit:10;}
	.st70{fill:#C21920;stroke:#010202;stroke-width:1.3431;stroke-miterlimit:10;}
	.st71{fill:#FFFFFF;stroke:#010202;stroke-width:1.3076;stroke-miterlimit:10;}
	.st72{fill:#C21920;stroke:#010202;stroke-width:1.3863;stroke-miterlimit:10;}
	.st73{fill:#FFFFFF;stroke:#010202;stroke-width:1.4948;stroke-miterlimit:10;}
	.st74{fill:#FFFFFF;stroke:#010202;stroke-width:0.7474;stroke-miterlimit:10;}
	.st75{fill:#C21920;stroke:#010202;stroke-width:0.3737;stroke-miterlimit:10;}
	.st76{fill:#C21920;stroke:#010202;stroke-width:1.4662;stroke-miterlimit:10;}
	.st77{fill:#F8AB16;stroke:#010202;stroke-width:0.3791;stroke-miterlimit:10;}
	.st78{fill:#F8AB16;stroke:#010202;stroke-width:1.4308;stroke-miterlimit:10;}
	.st79{fill:none;stroke:#010202;stroke-width:1.3222;stroke-miterlimit:10;}
	.st80{fill:#FCD900;stroke:#010202;stroke-width:0.3791;stroke-miterlimit:10;}
	.st81{fill:#FCD900;stroke:#010202;stroke-width:1.3222;stroke-miterlimit:10;}
	.st82{fill:#8E1963;stroke:#010202;stroke-width:0.3791;stroke-miterlimit:10;}
	.st83{fill:#8E1963;stroke:#010202;stroke-width:1.5163;stroke-miterlimit:10;}
	.st84{fill:#8E1963;stroke:#010202;stroke-width:1.1325;stroke-miterlimit:10;}
	.st85{fill:none;stroke:#010202;stroke-width:1.1325;stroke-linecap:round;stroke-linejoin:round;stroke-miterlimit:10;}
	.st86{fill:#FFFFFF;stroke:#010202;stroke-width:1.4206;stroke-miterlimit:10;}
	.st87{fill:#FFFFFF;stroke:#010202;stroke-width:0.7103;stroke-miterlimit:10;}
	.st88{fill:#C21920;stroke:#010202;stroke-width:0.3551;stroke-miterlimit:10;}
	.st89{fill:#C21920;stroke:#010202;stroke-width:1.4206;stroke-miterlimit:10;}
	.st90{fill:#FFFFFF;stroke:#010202;stroke-width:1.383;stroke-miterlimit:10;}
	.st91{fill:#FAEA2F;stroke:#010202;stroke-width:0.3551;stroke-miterlimit:10;}
	.st92{fill:#F8AB16;stroke:#010202;stroke-width:1.4205;stroke-miterlimit:10;}
	.st93{fill:#8E1963;stroke:#010202;stroke-width:1.6044;stroke-miterlimit:10;}
	.st94{fill:none;stroke:#010202;stroke-width:1.6044;stroke-linecap:round;stroke-linejoin:round;stroke-miterlimit:10;}
	.st95{fill:#FCD900;stroke:#010202;stroke-width:1.6789;stroke-miterlimit:10;}
	.st96{fill:#37AB4D;stroke:#010202;stroke-width:2;stroke-miterlimit:10;}
	.st97{fill:#C21920;stroke:#010202;stroke-width:1.7323;stroke-miterlimit:10;}
	.st98{fill:none;stroke:#C21A21;stroke-width:3.8955;stroke-linecap:round;stroke-linejoin:round;stroke-miterlimit:10;}
	.st99{fill:#333333;}
	.st100{fill:#FCD901;stroke:#010202;stroke-width:1.3419;stroke-miterlimit:10;}
	.st101{fill:#8E1963;stroke:#010202;stroke-width:1.216;stroke-miterlimit:10;}
	.st102{fill:none;stroke:#010202;stroke-width:1.216;stroke-linecap:round;stroke-linejoin:round;stroke-miterlimit:10;}
	.st103{fill:#F8AB16;stroke:#010202;stroke-width:1.5252;stroke-miterlimit:10;}
	.st104{opacity:0.52;fill:#7A8084;}
	.st105{fill:#2856A2;stroke:#010202;stroke-width:0.8146;stroke-miterlimit:10;}
	.st106{fill:#FFFFFF;stroke:#010202;stroke-width:0.3123;stroke-miterlimit:10;}
	.st107{fill:#FFFFFF;stroke:#010202;stroke-width:0.0923;stroke-miterlimit:10;}
	.st108{fill:#F7BA16;stroke:#010202;stroke-width:0.0612;stroke-miterlimit:10;}
	.st109{fill:#E63329;stroke:#010202;stroke-width:0.0612;stroke-miterlimit:10;}
	.st110{fill:#37AB4D;stroke:#010202;stroke-width:0.0612;stroke-miterlimit:10;}
	.st111{fill:#FFFFFF;stroke:#010202;stroke-width:0.0764;stroke-miterlimit:10;}
	.st112{fill:#F7BA16;stroke:#010202;stroke-width:0.0506;stroke-miterlimit:10;}
	.st113{fill:#E63329;stroke:#010202;stroke-width:0.0506;stroke-miterlimit:10;}
	.st114{fill:#37AB4D;stroke:#010202;stroke-width:0.0506;stroke-miterlimit:10;}
	.st115{fill:#179552;stroke:#010202;stroke-width:0.8326;stroke-miterlimit:10;}
	.st116{fill:#F7BA16;stroke:#010202;stroke-width:0.8146;stroke-miterlimit:10;}
	.st117{fill:#FFFFFF;stroke:#010202;stroke-width:0.4197;stroke-miterlimit:10;}
	.st118{fill:#E73836;stroke:#010202;stroke-width:0.1809;stroke-miterlimit:10;}
	.st119{fill:#D4D7EE;stroke:#010202;stroke-width:1.001;stroke-miterlimit:10;}
	.st120{fill:#FFFFFF;stroke:#010202;stroke-width:1.1881;stroke-miterlimit:10;}
	.st121{fill:#FFFFFF;stroke:#191919;stroke-width:0.9977;stroke-miterlimit:10;}
	.st122{fill:#C11A21;}
	.st123{fill:#2957A2;}
	.st124{fill:#D4D7EE;stroke:#010202;stroke-width:0.8539;stroke-miterlimit:10;}
	.st125{fill:#F7BA16;stroke:#010202;stroke-width:2.0392;stroke-miterlimit:10;}
	.st126{fill:none;stroke:#010202;stroke-width:1.171;stroke-miterlimit:10;}
	.st127{fill:#F7BA16;stroke:#010202;stroke-width:0.748;stroke-miterlimit:10;}
	.st128{fill:none;stroke:#010202;stroke-width:0.4027;stroke-miterlimit:10;}
	.st129{fill:#C11A22;stroke:#010202;stroke-width:0.3652;stroke-miterlimit:10;}
	.st130{fill:#C11A22;stroke:#010202;stroke-width:0.7033;stroke-miterlimit:10;}
</style>
<g>
	<g>
		<polygon class="st33" points="214.26,225.68 214.06,226.03 116.55,387.69 22.13,226.09 21.89,225.68 22.13,225.29 116.55,63.68 
			214.06,225.34 		"/>
		<polygon class="st34" points="98.84,35.18 116.55,63.1 21.6,224.66 4.77,196.86 116.55,4.58 		"/>
		<polygon class="st34" points="229.68,197.75 213.56,224.08 116.55,63.1 134.98,36.34 116.55,4.58 		"/>
		<polygon class="st37" points="134.98,36.34 116.55,63.1 98.84,35.18 116.55,4.58 		"/>
	</g>
	<g>
		<polygon class="st34" points="98.84,416.18 116.55,446.79 4.77,254.5 21.6,226.71 116.55,388.27 		"/>
		<polygon class="st34" points="116.55,446.79 134.98,415.02 116.55,388.27 213.56,227.28 229.68,253.61 		"/>
		<polygon class="st37" points="134.98,415.02 116.55,446.79 98.84,416.18 116.55,388.27 		"/>
	</g>
</g>
<g>
	<path class="st15" d="M89.26,288.69c0.67,0,1.28,0.08,1.83,0.24s1.04,0.38,1.47,0.66c0.43,0.28,0.79,0.62,1.09,1
		c0.3,0.39,0.53,0.82,0.7,1.28c0.08,0.23,0.14,0.48,0.19,0.75c0.04,0.27,0.07,0.54,0.1,0.81c0.02,0.27,0.04,0.54,0.04,0.8
		c0,0.26,0.01,0.5,0.01,0.73v3.05c0.19,0.11,0.38,0.17,0.58,0.2c0.2,0.03,0.4,0.05,0.61,0.07h0.9v2.73h-1.81
		c-0.64,0-1.19-0.11-1.65-0.32c-0.46-0.21-0.86-0.5-1.2-0.87c-0.42,0.08-0.84,0.15-1.27,0.2s-0.87,0.07-1.32,0.07
		c-0.46,0-0.93-0.03-1.4-0.1s-0.93-0.17-1.37-0.32c-0.3-0.1-0.57-0.25-0.83-0.43c-0.25-0.18-0.47-0.38-0.67-0.6
		c-0.2-0.22-0.37-0.44-0.52-0.67c-0.15-0.23-0.28-0.44-0.38-0.65c-0.14-0.29-0.24-0.58-0.3-0.87c-0.06-0.3-0.08-0.59-0.08-0.88
		v-2.06c0-0.8,0.14-1.5,0.42-2.11s0.65-1.11,1.13-1.52s1.04-0.71,1.68-0.91S88.52,288.69,89.26,288.69z M87.29,284.67
		c0.28,0,0.52,0.04,0.73,0.12c0.21,0.08,0.39,0.19,0.53,0.31c0.15,0.13,0.27,0.27,0.36,0.44c0.09,0.16,0.16,0.33,0.2,0.49
		c0.04-0.17,0.1-0.33,0.19-0.49c0.09-0.16,0.21-0.31,0.35-0.44c0.15-0.13,0.32-0.24,0.53-0.32c0.21-0.08,0.45-0.12,0.72-0.12
		c0.33,0,0.61,0.06,0.84,0.17c0.23,0.11,0.42,0.25,0.58,0.42c0.15,0.17,0.27,0.35,0.34,0.56s0.11,0.39,0.11,0.57
		s-0.04,0.37-0.11,0.57s-0.19,0.38-0.34,0.55c-0.15,0.17-0.35,0.31-0.58,0.42s-0.51,0.17-0.83,0.17c-0.27,0-0.51-0.04-0.71-0.12
		c-0.21-0.08-0.38-0.19-0.53-0.32c-0.15-0.13-0.27-0.28-0.36-0.44c-0.09-0.16-0.15-0.32-0.19-0.49c-0.04,0.17-0.1,0.33-0.2,0.49
		c-0.09,0.17-0.22,0.31-0.37,0.44c-0.15,0.13-0.33,0.23-0.54,0.31c-0.21,0.08-0.45,0.12-0.72,0.12c-0.32,0-0.6-0.06-0.83-0.17
		s-0.42-0.25-0.57-0.42c-0.15-0.17-0.26-0.35-0.33-0.56s-0.11-0.39-0.11-0.56c0-0.18,0.03-0.37,0.1-0.57
		c0.07-0.2,0.18-0.39,0.33-0.56c0.15-0.17,0.34-0.31,0.57-0.42C86.68,284.73,86.96,284.67,87.29,284.67z M87.28,295.26
		c0,0.54,0.14,0.95,0.43,1.24s0.71,0.43,1.27,0.43h2.29c0.04-0.29,0.06-0.57,0.07-0.84c0.01-0.28,0.01-0.56,0.01-0.84
		c0-0.22-0.01-0.47-0.02-0.75c-0.01-0.28-0.04-0.57-0.07-0.86s-0.09-0.57-0.16-0.84s-0.17-0.48-0.3-0.65
		c-0.17-0.23-0.38-0.4-0.61-0.52c-0.23-0.11-0.52-0.17-0.85-0.17c-0.37,0-0.68,0.06-0.94,0.19c-0.26,0.13-0.47,0.3-0.64,0.52
		c-0.17,0.22-0.29,0.48-0.37,0.77c-0.08,0.3-0.12,0.61-0.12,0.95V295.26z"/>
	<path class="st15" d="M96.22,298.29h9.42v-3.11c0-0.43-0.04-0.87-0.11-1.3c-0.07-0.43-0.22-0.82-0.43-1.16
		c-0.21-0.34-0.51-0.62-0.89-0.83c-0.38-0.21-0.88-0.32-1.49-0.32h-2.11c-0.37-0.01-0.65-0.09-0.86-0.24s-0.36-0.35-0.46-0.58
		c-0.1-0.24-0.16-0.5-0.19-0.79s-0.04-0.58-0.04-0.85v-0.26h3.66c0.86,0,1.62,0.08,2.27,0.23c0.66,0.15,1.22,0.37,1.7,0.64
		c0.48,0.27,0.88,0.6,1.2,0.98c0.32,0.38,0.57,0.79,0.76,1.25c0.19,0.45,0.33,0.94,0.4,1.45c0.08,0.52,0.12,1.04,0.12,1.58v3.31
		h3.34v2.73h-16.3V298.29z"/>
	<path class="st15" d="M111.84,301.02v-2.73h0.85c0.46,0,0.85-0.07,1.15-0.22c0.3-0.15,0.54-0.34,0.71-0.59
		c0.17-0.25,0.29-0.53,0.37-0.85s0.11-0.65,0.11-0.99v-3.33c0-0.27,0.06-0.5,0.17-0.69c0.12-0.19,0.27-0.34,0.47-0.45
		s0.43-0.19,0.68-0.25c0.26-0.05,0.53-0.08,0.83-0.08h1.38v4.79c0,0.34,0.04,0.68,0.11,1c0.07,0.32,0.2,0.6,0.37,0.85
		s0.41,0.44,0.71,0.58c0.3,0.15,0.68,0.22,1.15,0.22h0.83v2.73h-0.81c-0.44,0-0.84-0.05-1.18-0.15c-0.35-0.1-0.66-0.24-0.93-0.41
		c-0.27-0.17-0.51-0.37-0.71-0.6c-0.2-0.23-0.37-0.47-0.52-0.72c-0.4,0.59-0.93,1.05-1.59,1.39s-1.49,0.5-2.46,0.5H111.84z
		 M114.87,287.33c0-0.18,0.04-0.37,0.11-0.58c0.08-0.21,0.19-0.4,0.34-0.58s0.35-0.33,0.59-0.44c0.24-0.12,0.53-0.17,0.86-0.17
		c0.33,0,0.62,0.06,0.86,0.17s0.44,0.26,0.6,0.44s0.27,0.38,0.35,0.58c0.08,0.21,0.11,0.4,0.11,0.58s-0.04,0.38-0.12,0.58
		c-0.08,0.21-0.2,0.4-0.35,0.58c-0.16,0.18-0.36,0.32-0.59,0.44s-0.52,0.17-0.85,0.17c-0.25,0-0.48-0.04-0.71-0.13
		s-0.43-0.21-0.61-0.37s-0.32-0.34-0.43-0.56C114.93,287.82,114.87,287.59,114.87,287.33z"/>
	<path class="st15" d="M121.05,298.29h9.42v-3.11c0-0.43-0.04-0.87-0.11-1.3c-0.07-0.43-0.22-0.82-0.43-1.16
		c-0.21-0.34-0.51-0.62-0.89-0.83c-0.38-0.21-0.88-0.32-1.49-0.32h-2.11c-0.37-0.01-0.65-0.09-0.86-0.24s-0.36-0.35-0.46-0.58
		c-0.1-0.24-0.16-0.5-0.19-0.79s-0.04-0.58-0.04-0.85v-0.26h3.66c0.86,0,1.62,0.08,2.27,0.23c0.66,0.15,1.22,0.37,1.7,0.64
		c0.48,0.27,0.88,0.6,1.2,0.98c0.32,0.38,0.57,0.79,0.76,1.25c0.19,0.45,0.33,0.94,0.4,1.45c0.08,0.52,0.12,1.04,0.12,1.58v3.31
		h3.34v2.73h-16.3V298.29z M128.81,302.46c0.33,0,0.62,0.06,0.86,0.17s0.44,0.26,0.6,0.44c0.16,0.18,0.27,0.38,0.35,0.58
		c0.08,0.21,0.11,0.4,0.11,0.58c0,0.19-0.04,0.39-0.12,0.6c-0.08,0.21-0.2,0.4-0.35,0.58s-0.36,0.32-0.59,0.44
		c-0.24,0.12-0.52,0.17-0.85,0.17c-0.33,0-0.61-0.06-0.85-0.17c-0.24-0.12-0.44-0.26-0.6-0.44s-0.27-0.37-0.35-0.58
		c-0.08-0.21-0.11-0.4-0.11-0.58s0.04-0.37,0.11-0.58c0.07-0.21,0.19-0.4,0.34-0.58s0.35-0.32,0.59-0.44
		C128.19,302.52,128.47,302.46,128.81,302.46z"/>
	<path class="st15" d="M136.86,301.02v-2.73h2.91v-3.45c0-0.79,0.13-1.49,0.4-2.09s0.64-1.11,1.11-1.52
		c0.47-0.41,1.03-0.72,1.68-0.92c0.65-0.21,1.35-0.31,2.11-0.31c0.67,0,1.29,0.08,1.84,0.24c0.55,0.16,1.04,0.38,1.47,0.66
		c0.43,0.28,0.79,0.62,1.09,1c0.3,0.39,0.53,0.82,0.7,1.28c0.08,0.22,0.15,0.47,0.19,0.74s0.08,0.54,0.1,0.81s0.03,0.54,0.03,0.81
		s0.01,0.51,0.01,0.74c0,0.57-0.06,1.15-0.19,1.74c-0.07,0.34-0.16,0.66-0.29,0.98c-0.12,0.32-0.29,0.62-0.49,0.92
		s-0.44,0.57-0.72,0.83c-0.28,0.26-0.61,0.49-0.98,0.7c-0.25,0.14-0.52,0.26-0.81,0.34c-0.3,0.09-0.6,0.15-0.9,0.2
		c-0.31,0.04-0.61,0.07-0.92,0.09c-0.31,0.01-0.59,0.02-0.86,0.02h-0.1l-2.38-1.1H136.86z M145.1,299.34
		c0.36-0.02,0.66-0.11,0.92-0.28c0.25-0.17,0.46-0.39,0.61-0.66c0.16-0.27,0.27-0.56,0.34-0.89c0.07-0.33,0.1-0.64,0.1-0.95
		c0-0.22,0-0.47-0.02-0.75c-0.01-0.29-0.04-0.57-0.07-0.87c-0.04-0.29-0.09-0.57-0.16-0.83c-0.07-0.26-0.17-0.48-0.29-0.64
		c-0.17-0.24-0.37-0.42-0.61-0.53c-0.23-0.11-0.52-0.17-0.87-0.17c-0.37,0-0.68,0.06-0.94,0.19c-0.26,0.13-0.47,0.3-0.64,0.52
		c-0.17,0.22-0.29,0.48-0.37,0.78c-0.08,0.29-0.12,0.61-0.12,0.95v3.14L145.1,299.34z"/>
</g>
<g>
	<g>
		<g>
			<path class="st39" d="M168.03,219.41c-0.34,6.39-2.21,13.31-6.26,20.34c0,0-6.9,14.04-25.24,17.86
				c-0.81,0.16-1.64,0.24-2.46,0.24H99.3c-1.4,0-2.79-0.22-4.12-0.69c-3.63-1.28-11.24-4.4-17.89-9.93
				c-6.3-5.23-10.33-12.7-11.7-20.78c-0.71-4.21-1.12-9.44-0.39-14.94c0.19-1.54,0.49-3.11,0.9-4.68
				c1.27-5.02,3.63-10.08,7.69-14.67c4.71-5.3,11.01-8.9,17.85-10.78c9.8-2.7,28.49-6.2,48.14-1.18c7.45,1.91,14.25,5.9,19.3,11.71
				c3.08,3.54,5.8,8.31,7.41,13.91C167.7,209.96,168.3,214.54,168.03,219.41z"/>
			<g>
				<ellipse class="st26" cx="133.12" cy="214.34" rx="5.84" ry="8.87"/>
				<ellipse class="st26" cx="101.51" cy="214.34" rx="5.84" ry="8.87"/>
			</g>
			<g>
				<ellipse class="st40" cx="140.09" cy="232.58" rx="5.77" ry="2.61"/>
				<ellipse class="st40" cx="94.54" cy="232.58" rx="5.77" ry="2.61"/>
			</g>
			<path class="st41" d="M119.57,245.05c0,0-8.29,0.49-7.29-5.76c0.02-0.12,0.13-0.21,0.25-0.21h12.44
				C124.97,239.07,126.01,244.68,119.57,245.05z"/>
		</g>
	</g>
	<g>
		<g>
			<path class="st42" d="M174.53,225.41c0,0-1.1,5.65-6.51,7.55c-3.68,1.29-7.85,0.31-10.6-2.46c-2.55-2.56-4.73-7.13-2.41-14.97
				c0,0,5.28-16.88,28.91-21.49c1.61-0.31,3.27-0.34,4.86,0.05c2.16,0.53,4.52,1.86,4.07,5.15c-0.18,1.33-0.82,2.54-1.73,3.52
				c-1.13,1.22-3.01,3.05-4.89,4.06c0,0,6.65,1.15,3.44,7.34c0,0-1.85,3.11-4.82,4.13c0,0,2.93,2.72,0.2,5.38
				c-0.85,0.83-1.97,1.34-3.14,1.54C180.25,225.51,177.29,225.87,174.53,225.41z"/>
			<path class="st43" d="M163.98,224.03c0,0-2.11-4.92,2.59-5.53c1.6-0.21,3.22,0.18,4.6,1c1.72,1.01,3.77,2.89,3.36,5.91"/>
			<path class="st43" d="M179.52,208.63c0,0,5.12-0.73,6.71-1.81"/>
			<path class="st43" d="M180.5,217.84c0,0,2.52,1.15,4.36,0.46"/>
		</g>
		<g>
			<path class="st42" d="M59.91,224.93c0,0,1.1,5.65,6.51,7.55c3.68,1.29,7.85,0.31,10.6-2.46c2.55-2.56,4.73-7.13,2.41-14.97
				c0,0-5.28-16.88-28.91-21.49c-1.61-0.31-3.27-0.34-4.86,0.05c-2.16,0.53-4.52,1.86-4.07,5.15c0.18,1.33,0.82,2.54,1.73,3.52
				c1.13,1.22,3.01,3.05,4.89,4.06c0,0-6.65,1.15-3.44,7.34c0,0,1.85,3.11,4.82,4.13c0,0-2.93,2.72-0.2,5.38
				c0.85,0.83,1.97,1.34,3.14,1.54C54.19,225.03,57.15,225.39,59.91,224.93z"/>
			<path class="st43" d="M70.46,223.56c0,0,2.11-4.92-2.59-5.53c-1.6-0.21-3.22,0.18-4.6,1c-1.72,1.01-3.77,2.89-3.36,5.91"/>
			<path class="st43" d="M54.92,208.16c0,0-5.12-0.73-6.71-1.81"/>
			<path class="st43" d="M53.94,217.36c0,0-2.52,1.15-4.36,0.46"/>
		</g>
	</g>
</g>
</svg>
