<?xml version="1.0" encoding="utf-8"?>
<!-- Generator: Adobe Illustrator 27.1.1, SVG Export Plug-In . SVG Version: 6.00 Build 0)  -->
<svg version="1.1" id="Layer_1" xmlns="http://www.w3.org/2000/svg" xmlns:xlink="http://www.w3.org/1999/xlink" x="0px" y="0px"
	 viewBox="0 0 231.78 449.24" style="enable-background:new 0 0 231.78 449.24;" xml:space="preserve">
<style type="text/css">
	.st0{fill:#D4D7EE;stroke:#010202;stroke-miterlimit:10;}
	.st1{fill:#FFFFFF;stroke:#010202;stroke-width:0.75;stroke-miterlimit:10;}
	.st2{fill:#179552;}
	.st3{fill:#C11A22;}
	.st4{fill:#FFFFFF;stroke:#010202;stroke-width:1.4583;stroke-miterlimit:10;}
	.st5{fill:#37AB4D;stroke:#010202;stroke-width:1.1973;stroke-miterlimit:10;}
	.st6{fill:#F7BA16;stroke:#010202;stroke-width:1.1973;stroke-miterlimit:10;}
	.st7{fill:#C11A22;stroke:#010202;stroke-width:1.1973;stroke-miterlimit:10;}
	.st8{fill:#FFFFFF;stroke:#010202;stroke-width:1.1726;stroke-miterlimit:10;}
	.st9{fill:#C11A22;stroke:#010202;stroke-width:1.438;stroke-miterlimit:10;}
	.st10{fill:#37AB4D;stroke:#010202;stroke-width:1.438;stroke-miterlimit:10;}
	.st11{fill:#F7BA16;stroke:#010202;stroke-width:1.438;stroke-miterlimit:10;}
	.st12{fill:#191919;stroke:#191919;stroke-miterlimit:10;}
	.st13{fill:none;stroke:#010202;stroke-width:3;stroke-linecap:round;stroke-linejoin:round;stroke-miterlimit:10;}
	.st14{fill:#C21A21;stroke:#010202;stroke-width:2;stroke-miterlimit:10;}
	.st15{fill:#FFFFFF;}
	.st16{fill:none;stroke:#010202;stroke-width:0.8258;stroke-miterlimit:10;}
	.st17{fill:#F7BA16;stroke:#010202;stroke-width:0.75;stroke-miterlimit:10;}
	.st18{fill:#C11A22;stroke:#010202;stroke-width:0.75;stroke-miterlimit:10;}
	.st19{fill:#FAEA2F;stroke:#010202;stroke-width:0.4937;stroke-miterlimit:10;}
	.st20{fill:#FFFFFF;stroke:#050707;stroke-width:0.4937;stroke-miterlimit:10;}
	.st21{fill:#E63329;stroke:#010202;stroke-width:0.1545;stroke-miterlimit:10;}
	.st22{fill:#37AB4D;stroke:#010202;stroke-width:0.75;stroke-miterlimit:10;}
	.st23{fill:#FCD802;stroke:#010202;stroke-width:1.4349;stroke-miterlimit:10;}
	.st24{fill:#FFFFFF;stroke:#010202;stroke-width:1.4349;stroke-miterlimit:10;}
	.st25{fill:none;stroke:#010202;stroke-width:1.4349;stroke-linecap:round;stroke-linejoin:round;stroke-miterlimit:10;}
	.st26{fill:#010202;}
	.st27{fill:#02A96B;stroke:#010202;stroke-width:0.75;stroke-miterlimit:10;}
	.st28{fill:#F7BA16;stroke:#010202;stroke-width:3.158;stroke-miterlimit:10;}
	.st29{fill:#FFFFFF;stroke:#010202;stroke-width:2.3588;stroke-miterlimit:10;}
	.st30{fill:#C21920;stroke:#010202;stroke-width:2.3588;stroke-miterlimit:10;}
	.st31{fill:#C21A21;stroke:#010202;stroke-width:1.1973;stroke-miterlimit:10;}
	.st32{fill:#70B966;stroke:#010202;stroke-miterlimit:10;}
	.st33{fill:#02A96B;}
	.st34{fill:#FFFFFF;stroke:#010202;stroke-width:2;stroke-miterlimit:10;}
	.st35{fill:#C21920;stroke:#010202;stroke-width:1.4407;stroke-miterlimit:10;}
	.st36{fill:#F8AB16;stroke:#010202;stroke-width:1.4407;stroke-miterlimit:10;}
	.st37{fill:#8E1963;stroke:#010202;stroke-width:1.4407;stroke-miterlimit:10;}
	.st38{fill:#FCD900;stroke:#010202;stroke-width:1.4407;stroke-miterlimit:10;}
	.st39{fill:#FFFFFF;stroke:#010202;stroke-width:1.8498;stroke-miterlimit:10;}
	.st40{fill:#8E1963;}
	.st41{fill:#8E1963;stroke:#010202;stroke-width:1.8764;stroke-miterlimit:10;}
	.st42{fill:#8E1963;stroke:#010202;stroke-width:1.4015;stroke-miterlimit:10;}
	.st43{fill:none;stroke:#010202;stroke-width:1.4015;stroke-linecap:round;stroke-linejoin:round;stroke-miterlimit:10;}
	.st44{fill:#C21920;stroke:#010202;stroke-width:1.8125;stroke-miterlimit:10;}
	.st45{fill:#FFFFFF;stroke:#010202;stroke-width:1.8478;stroke-miterlimit:10;}
	.st46{fill:#C21920;}
	.st47{fill:#F8AB16;stroke:#010202;stroke-width:1.7687;stroke-miterlimit:10;}
	.st48{fill:#F8AB16;}
	.st49{fill:#FCD900;}
	.st50{fill:none;stroke:#010202;stroke-width:1.6344;stroke-miterlimit:10;}
	.st51{fill:#FCD900;stroke:#010202;stroke-width:1.6344;stroke-miterlimit:10;}
	.st52{fill:#FFFFFF;stroke:#010202;stroke-width:0.9824;stroke-miterlimit:10;}
	.st53{fill:#C21920;stroke:#010202;stroke-width:0.4912;stroke-miterlimit:10;}
	.st54{fill:#8E1963;stroke:#010202;stroke-width:0.4912;stroke-miterlimit:10;}
	.st55{fill:#F8AB16;stroke:#010202;stroke-width:0.4912;stroke-miterlimit:10;}
	.st56{fill:#FFFFFF;stroke:#010202;stroke-width:2.0587;stroke-miterlimit:10;}
	.st57{fill:#8E1963;stroke:#010202;stroke-width:2.0883;stroke-miterlimit:10;}
	.st58{fill:#8E1963;stroke:#010202;stroke-width:1.5598;stroke-miterlimit:10;}
	.st59{fill:none;stroke:#010202;stroke-width:1.5598;stroke-linecap:round;stroke-linejoin:round;stroke-miterlimit:10;}
	.st60{fill:#C21920;stroke:#010202;stroke-width:2.0171;stroke-miterlimit:10;}
	.st61{fill:#FFFFFF;stroke:#010202;stroke-width:2.0565;stroke-miterlimit:10;}
	.st62{fill:#F8AB16;stroke:#010202;stroke-width:1.9685;stroke-miterlimit:10;}
	.st63{fill:#C11A22;stroke:#010202;stroke-width:2.0446;stroke-miterlimit:10;}
	.st64{fill:none;stroke:#010202;stroke-width:1.1741;stroke-miterlimit:10;}
	.st65{fill:#F7BA16;stroke:#010202;stroke-width:2.0446;stroke-miterlimit:10;}
	.st66{fill:#37AB4D;stroke:#010202;stroke-width:2.0446;stroke-miterlimit:10;}
	.st67{fill:#FFFFFF;stroke:#010202;stroke-width:1.3431;stroke-miterlimit:10;}
	.st68{fill:#FFFFFF;stroke:#010202;stroke-width:0.6716;stroke-miterlimit:10;}
	.st69{fill:#C21920;stroke:#010202;stroke-width:0.3358;stroke-miterlimit:10;}
	.st70{fill:#C21920;stroke:#010202;stroke-width:1.3431;stroke-miterlimit:10;}
	.st71{fill:#FFFFFF;stroke:#010202;stroke-width:1.3076;stroke-miterlimit:10;}
	.st72{fill:#C21920;stroke:#010202;stroke-width:1.3863;stroke-miterlimit:10;}
	.st73{fill:#FFFFFF;stroke:#010202;stroke-width:1.4948;stroke-miterlimit:10;}
	.st74{fill:#FFFFFF;stroke:#010202;stroke-width:0.7474;stroke-miterlimit:10;}
	.st75{fill:#C21920;stroke:#010202;stroke-width:0.3737;stroke-miterlimit:10;}
	.st76{fill:#C21920;stroke:#010202;stroke-width:1.4662;stroke-miterlimit:10;}
	.st77{fill:#F8AB16;stroke:#010202;stroke-width:0.3791;stroke-miterlimit:10;}
	.st78{fill:#F8AB16;stroke:#010202;stroke-width:1.4308;stroke-miterlimit:10;}
	.st79{fill:none;stroke:#010202;stroke-width:1.3222;stroke-miterlimit:10;}
	.st80{fill:#FCD900;stroke:#010202;stroke-width:0.3791;stroke-miterlimit:10;}
	.st81{fill:#FCD900;stroke:#010202;stroke-width:1.3222;stroke-miterlimit:10;}
	.st82{fill:#8E1963;stroke:#010202;stroke-width:0.3791;stroke-miterlimit:10;}
	.st83{fill:#8E1963;stroke:#010202;stroke-width:1.5163;stroke-miterlimit:10;}
	.st84{fill:#8E1963;stroke:#010202;stroke-width:1.1325;stroke-miterlimit:10;}
	.st85{fill:none;stroke:#010202;stroke-width:1.1325;stroke-linecap:round;stroke-linejoin:round;stroke-miterlimit:10;}
	.st86{fill:#FFFFFF;stroke:#010202;stroke-width:1.4206;stroke-miterlimit:10;}
	.st87{fill:#FFFFFF;stroke:#010202;stroke-width:0.7103;stroke-miterlimit:10;}
	.st88{fill:#C21920;stroke:#010202;stroke-width:0.3551;stroke-miterlimit:10;}
	.st89{fill:#C21920;stroke:#010202;stroke-width:1.4206;stroke-miterlimit:10;}
	.st90{fill:#FFFFFF;stroke:#010202;stroke-width:1.383;stroke-miterlimit:10;}
	.st91{fill:#FAEA2F;stroke:#010202;stroke-width:0.3551;stroke-miterlimit:10;}
	.st92{fill:#F8AB16;stroke:#010202;stroke-width:1.4205;stroke-miterlimit:10;}
	.st93{fill:#8E1963;stroke:#010202;stroke-width:1.6044;stroke-miterlimit:10;}
	.st94{fill:none;stroke:#010202;stroke-width:1.6044;stroke-linecap:round;stroke-linejoin:round;stroke-miterlimit:10;}
	.st95{fill:#FCD900;stroke:#010202;stroke-width:1.6789;stroke-miterlimit:10;}
	.st96{fill:#37AB4D;stroke:#010202;stroke-width:2;stroke-miterlimit:10;}
	.st97{fill:#C21920;stroke:#010202;stroke-width:1.7323;stroke-miterlimit:10;}
	.st98{fill:none;stroke:#C21A21;stroke-width:3.8955;stroke-linecap:round;stroke-linejoin:round;stroke-miterlimit:10;}
	.st99{fill:#333333;}
	.st100{fill:#FCD901;stroke:#010202;stroke-width:1.3419;stroke-miterlimit:10;}
	.st101{fill:#8E1963;stroke:#010202;stroke-width:1.216;stroke-miterlimit:10;}
	.st102{fill:none;stroke:#010202;stroke-width:1.216;stroke-linecap:round;stroke-linejoin:round;stroke-miterlimit:10;}
	.st103{fill:#F8AB16;stroke:#010202;stroke-width:1.5252;stroke-miterlimit:10;}
	.st104{opacity:0.52;fill:#7A8084;}
	.st105{fill:#2856A2;stroke:#010202;stroke-width:0.8146;stroke-miterlimit:10;}
	.st106{fill:#FFFFFF;stroke:#010202;stroke-width:0.3123;stroke-miterlimit:10;}
	.st107{fill:#FFFFFF;stroke:#010202;stroke-width:0.0923;stroke-miterlimit:10;}
	.st108{fill:#F7BA16;stroke:#010202;stroke-width:0.0612;stroke-miterlimit:10;}
	.st109{fill:#E63329;stroke:#010202;stroke-width:0.0612;stroke-miterlimit:10;}
	.st110{fill:#37AB4D;stroke:#010202;stroke-width:0.0612;stroke-miterlimit:10;}
	.st111{fill:#FFFFFF;stroke:#010202;stroke-width:0.0764;stroke-miterlimit:10;}
	.st112{fill:#F7BA16;stroke:#010202;stroke-width:0.0506;stroke-miterlimit:10;}
	.st113{fill:#E63329;stroke:#010202;stroke-width:0.0506;stroke-miterlimit:10;}
	.st114{fill:#37AB4D;stroke:#010202;stroke-width:0.0506;stroke-miterlimit:10;}
	.st115{fill:#179552;stroke:#010202;stroke-width:0.8326;stroke-miterlimit:10;}
	.st116{fill:#F7BA16;stroke:#010202;stroke-width:0.8146;stroke-miterlimit:10;}
	.st117{fill:#FFFFFF;stroke:#010202;stroke-width:0.4197;stroke-miterlimit:10;}
	.st118{fill:#E73836;stroke:#010202;stroke-width:0.1809;stroke-miterlimit:10;}
	.st119{fill:#D4D7EE;stroke:#010202;stroke-width:1.001;stroke-miterlimit:10;}
	.st120{fill:#FFFFFF;stroke:#010202;stroke-width:1.1881;stroke-miterlimit:10;}
	.st121{fill:#FFFFFF;stroke:#191919;stroke-width:0.9977;stroke-miterlimit:10;}
	.st122{fill:#C11A21;}
	.st123{fill:#2957A2;}
	.st124{fill:#D4D7EE;stroke:#010202;stroke-width:0.8539;stroke-miterlimit:10;}
	.st125{fill:#F7BA16;stroke:#010202;stroke-width:2.0392;stroke-miterlimit:10;}
	.st126{fill:none;stroke:#010202;stroke-width:1.171;stroke-miterlimit:10;}
	.st127{fill:#F7BA16;stroke:#010202;stroke-width:0.748;stroke-miterlimit:10;}
	.st128{fill:none;stroke:#010202;stroke-width:0.4027;stroke-miterlimit:10;}
	.st129{fill:#C11A22;stroke:#010202;stroke-width:0.3652;stroke-miterlimit:10;}
	.st130{fill:#C11A22;stroke:#010202;stroke-width:0.7033;stroke-miterlimit:10;}
</style>
<g>
	<g>
		<polygon class="st33" points="212.77,224.1 212.57,224.45 117.65,386.11 25.73,224.51 25.49,224.1 25.73,223.71 117.65,62.1 
			212.57,223.75 		"/>
		<polygon class="st34" points="100.4,33.6 117.64,61.52 25.2,223.08 8.82,195.28 117.64,3 		"/>
		<polygon class="st34" points="227.78,196.17 212.08,222.5 117.64,61.52 135.58,34.76 117.64,3 		"/>
		<polygon class="st36" points="135.58,34.76 117.64,61.52 100.4,33.6 117.64,3 		"/>
	</g>
	<g>
		<polygon class="st34" points="100.4,414.6 117.64,445.21 8.82,252.92 25.2,225.13 117.64,386.69 		"/>
		<polygon class="st34" points="117.64,445.21 135.58,413.44 117.64,386.69 212.08,225.7 227.78,252.03 		"/>
		<polygon class="st36" points="135.58,413.44 117.64,445.21 100.4,414.6 117.64,386.69 		"/>
	</g>
</g>
<g>
	<path class="st15" d="M93.6,280.51h1.2c0.25,0,0.49,0.02,0.72,0.07c0.22,0.05,0.42,0.12,0.6,0.21s0.31,0.23,0.41,0.39
		c0.1,0.16,0.15,0.36,0.15,0.6c0,0.38,0,0.76,0,1.13c0,0.38,0,0.76,0,1.13c0,0.23,0.02,0.47,0.07,0.72s0.12,0.49,0.21,0.71
		c0.18,0.44,0.46,0.77,0.82,0.99s0.85,0.32,1.46,0.32s1.1-0.11,1.46-0.32s0.63-0.54,0.82-0.99c0.09-0.21,0.16-0.45,0.21-0.71
		c0.05-0.26,0.07-0.5,0.07-0.73V277c0-0.27,0.06-0.49,0.18-0.65c0.12-0.16,0.28-0.29,0.46-0.38s0.4-0.15,0.62-0.18
		c0.23-0.03,0.45-0.05,0.65-0.06h1.15v5.04c0,0.03,0.01,0.05,0.02,0.08c0.1,0.38,0.3,0.68,0.58,0.92s0.62,0.35,1.03,0.35
		c0.27,0,0.5-0.04,0.69-0.13c0.19-0.08,0.35-0.2,0.47-0.35s0.21-0.32,0.27-0.51c0.06-0.19,0.08-0.4,0.08-0.61V277
		c0-0.23,0.05-0.43,0.15-0.59c0.1-0.16,0.23-0.29,0.4-0.39c0.17-0.1,0.36-0.17,0.59-0.22c0.23-0.04,0.47-0.07,0.72-0.07h1.08v4.57
		c0,0.23,0.03,0.45,0.1,0.67c0.07,0.22,0.16,0.41,0.3,0.58c0.13,0.17,0.3,0.31,0.51,0.41c0.21,0.1,0.46,0.16,0.74,0.16
		s0.53-0.05,0.72-0.14c0.2-0.09,0.35-0.22,0.47-0.38s0.21-0.34,0.26-0.54s0.08-0.42,0.08-0.65V277c0-0.23,0.05-0.43,0.15-0.6
		c0.1-0.16,0.24-0.29,0.41-0.39s0.37-0.17,0.6-0.21c0.22-0.04,0.46-0.07,0.72-0.07h1.12v5.25c0,0.55-0.09,1.04-0.26,1.48
		c-0.18,0.44-0.42,0.82-0.74,1.13s-0.7,0.55-1.15,0.72c-0.45,0.17-0.94,0.25-1.48,0.25c-0.38,0-0.73-0.04-1.05-0.13
		c-0.32-0.08-0.62-0.2-0.88-0.34c-0.27-0.14-0.51-0.31-0.72-0.51c-0.21-0.2-0.4-0.41-0.55-0.63c-0.12,0.23-0.26,0.44-0.43,0.63
		s-0.38,0.37-0.62,0.51s-0.51,0.26-0.82,0.34c-0.31,0.08-0.65,0.12-1.04,0.12c-0.56,0-1.05-0.1-1.46-0.29
		c-0.42-0.19-0.77-0.44-1.05-0.75v0.37c0,0.3-0.02,0.62-0.07,0.96s-0.12,0.68-0.23,1.02c-0.1,0.34-0.24,0.66-0.42,0.98
		c-0.17,0.32-0.39,0.6-0.64,0.86c-0.27,0.28-0.58,0.51-0.92,0.69c-0.34,0.18-0.7,0.33-1.07,0.43s-0.77,0.18-1.18,0.23
		c-0.41,0.05-0.82,0.07-1.24,0.07c-0.39,0-0.78-0.03-1.17-0.08c-0.39-0.05-0.76-0.14-1.12-0.25c-0.36-0.11-0.7-0.26-1.02-0.44
		c-0.32-0.18-0.6-0.4-0.85-0.65s-0.46-0.54-0.63-0.86c-0.17-0.32-0.31-0.65-0.42-0.99c-0.11-0.34-0.19-0.68-0.23-1.02
		c-0.05-0.34-0.07-0.66-0.07-0.96V280.51z"/>
	<path class="st15" d="M117.13,288.54c0-0.23,0.02-0.45,0.06-0.66c0.04-0.21,0.11-0.4,0.21-0.56c0.1-0.16,0.24-0.3,0.41-0.4
		c0.17-0.1,0.39-0.16,0.66-0.18h0.15c0.19,0,0.36-0.05,0.52-0.16c0.16-0.1,0.31-0.24,0.46-0.4c0.11-0.12,0.2-0.25,0.27-0.4
		c0.07-0.15,0.12-0.31,0.16-0.47s0.07-0.33,0.08-0.51c0.01-0.17,0.02-0.34,0.02-0.49v-6.94l0.01-0.37c0-0.23,0.05-0.43,0.15-0.6
		c0.1-0.16,0.24-0.29,0.41-0.39s0.37-0.17,0.6-0.21c0.23-0.04,0.47-0.07,0.72-0.07h1.2v1.92l-0.01,6.7c0,0.61-0.07,1.19-0.21,1.75
		c-0.14,0.56-0.39,1.06-0.76,1.5s-0.86,0.79-1.49,1.05s-1.43,0.4-2.41,0.4h-1.22V288.54z"/>
	<path class="st15" d="M125.85,279.79v-8.15c0-0.23,0.05-0.43,0.15-0.6c0.1-0.16,0.24-0.29,0.41-0.4c0.17-0.1,0.37-0.17,0.6-0.21
		c0.23-0.04,0.47-0.06,0.72-0.06h1.18v9.42c0,0.32,0.03,0.62,0.08,0.91c0.05,0.29,0.15,0.55,0.3,0.77c0.15,0.22,0.36,0.4,0.62,0.53
		c0.27,0.13,0.62,0.2,1.04,0.2h0.72v2.37h-1.24c-0.64,0-1.19-0.07-1.67-0.2c-0.48-0.13-0.88-0.31-1.22-0.54
		c-0.34-0.23-0.62-0.5-0.84-0.81c-0.22-0.31-0.4-0.64-0.53-1c-0.13-0.35-0.22-0.72-0.27-1.1S125.85,280.17,125.85,279.79z"/>
	<path class="st15" d="M131.1,282.2h8.19v-2.71c0-0.4-0.03-0.79-0.1-1.17c-0.07-0.38-0.2-0.71-0.39-1c-0.2-0.29-0.47-0.52-0.82-0.7
		s-0.81-0.26-1.37-0.26h-1.6c-0.32-0.01-0.57-0.08-0.75-0.21c-0.18-0.13-0.31-0.3-0.4-0.51s-0.14-0.43-0.17-0.69
		s-0.03-0.5-0.03-0.74v-0.22h3.09c0.75,0,1.41,0.07,1.98,0.2c0.57,0.13,1.06,0.31,1.47,0.55c0.41,0.24,0.76,0.52,1.04,0.85
		c0.28,0.33,0.5,0.69,0.67,1.09c0.17,0.4,0.28,0.82,0.35,1.26c0.07,0.45,0.1,0.91,0.1,1.38v5.25H131.1V282.2z"/>
	<path class="st15" d="M87.57,306.21l-0.29,0.22c0.08-0.06,0.22-0.1,0.4-0.14c0.18-0.03,0.37-0.05,0.56-0.07
		c0.23-0.02,0.47-0.03,0.72-0.03c-0.46-0.66-0.69-1.39-0.69-2.18c0-0.45,0.09-0.88,0.26-1.3s0.43-0.79,0.77-1.12
		c0.34-0.33,0.76-0.59,1.27-0.79c0.5-0.2,1.09-0.3,1.75-0.3c0.7,0,1.34,0.08,1.91,0.25c0.57,0.17,1.12,0.42,1.66,0.74l0.15,0.1
		l-0.04,0.13c-0.06,0.18-0.12,0.35-0.2,0.52c-0.08,0.17-0.17,0.33-0.28,0.46s-0.24,0.25-0.4,0.33c-0.16,0.08-0.34,0.13-0.56,0.13
		c-0.1,0-0.19-0.01-0.27-0.03s-0.16-0.04-0.22-0.06c-0.07-0.02-0.14-0.04-0.2-0.06c-0.06-0.02-0.12-0.04-0.18-0.06
		c-0.11-0.03-0.24-0.05-0.4-0.06s-0.31-0.01-0.45-0.01c-0.46,0-0.83,0.12-1.09,0.36c-0.27,0.24-0.4,0.54-0.4,0.9
		c0,0.3,0.07,0.58,0.2,0.83c0.13,0.25,0.31,0.47,0.55,0.65c0.24,0.18,0.52,0.32,0.85,0.42c0.33,0.1,0.69,0.15,1.09,0.15h0.75
		c0.47,0.01,0.81,0.15,1.03,0.41c0.21,0.26,0.32,0.61,0.32,1.05v0.92h-7.59c-0.44,0-0.77-0.14-0.98-0.42
		c-0.21-0.28-0.32-0.62-0.32-1.03v-0.92H87.57z"/>
	<path class="st15" d="M98.38,303.79v-8.15c0-0.23,0.05-0.43,0.15-0.6c0.1-0.16,0.24-0.29,0.41-0.4c0.17-0.1,0.37-0.17,0.6-0.21
		c0.23-0.04,0.47-0.06,0.72-0.06h1.18v9.42c0,0.32,0.03,0.62,0.08,0.91c0.05,0.29,0.15,0.55,0.3,0.77c0.15,0.22,0.36,0.4,0.62,0.53
		c0.27,0.13,0.62,0.2,1.04,0.2h0.72v2.37h-1.24c-0.64,0-1.19-0.07-1.67-0.2c-0.48-0.13-0.88-0.31-1.22-0.54
		c-0.34-0.23-0.62-0.5-0.84-0.81c-0.22-0.31-0.4-0.64-0.53-1c-0.13-0.35-0.22-0.72-0.27-1.1S98.38,304.17,98.38,303.79z"/>
	<path class="st15" d="M103.8,308.58v-2.37h2.53v-3c0-0.7,0.12-1.31,0.36-1.84s0.57-0.97,0.98-1.32s0.9-0.62,1.46-0.79
		s1.16-0.26,1.81-0.26c0.58,0,1.11,0.07,1.59,0.21c0.48,0.14,0.91,0.33,1.28,0.58s0.69,0.54,0.95,0.87
		c0.26,0.34,0.46,0.71,0.61,1.11c0.07,0.2,0.12,0.42,0.16,0.65c0.04,0.23,0.06,0.47,0.08,0.7c0.02,0.24,0.03,0.47,0.03,0.7
		c0,0.23,0,0.44,0,0.64c0,0.27-0.02,0.56-0.05,0.86s-0.09,0.59-0.17,0.87h2.67v2.37h-4.17c-0.09,0.07-0.19,0.14-0.29,0.21
		s-0.21,0.13-0.32,0.18c-0.21,0.12-0.45,0.22-0.71,0.3c-0.26,0.08-0.52,0.13-0.79,0.17s-0.54,0.07-0.8,0.08
		c-0.26,0.01-0.51,0.02-0.75,0.02h-0.09l-2.07-0.96H103.8z M110.9,307.17c0.31-0.01,0.58-0.09,0.8-0.24
		c0.22-0.15,0.4-0.34,0.53-0.57c0.14-0.23,0.23-0.49,0.29-0.77s0.09-0.56,0.09-0.83c0-0.19,0-0.41-0.01-0.65
		c-0.01-0.25-0.03-0.5-0.06-0.75s-0.08-0.49-0.14-0.72c-0.06-0.23-0.14-0.41-0.25-0.56c-0.15-0.21-0.33-0.36-0.53-0.46
		s-0.45-0.15-0.75-0.15c-0.53,0-0.95,0.17-1.27,0.51c-0.21,0.21-0.35,0.46-0.42,0.74c-0.07,0.29-0.1,0.58-0.1,0.87v2.73
		L110.9,307.17z"/>
	<path class="st15" d="M117.6,308.58v-2.37h0.3c0.4,0,0.73-0.06,0.99-0.19s0.46-0.3,0.62-0.51s0.26-0.46,0.32-0.74
		c0.06-0.28,0.09-0.56,0.09-0.86V301c0-0.27,0.06-0.49,0.18-0.65c0.12-0.16,0.28-0.29,0.46-0.38s0.4-0.15,0.62-0.18
		c0.23-0.03,0.45-0.05,0.65-0.06h1.15v4.17c0,0.26-0.02,0.52-0.05,0.77s-0.09,0.51-0.15,0.76c0.15,0.21,0.33,0.38,0.56,0.5
		c0.22,0.12,0.48,0.19,0.77,0.19c0.27,0,0.5-0.04,0.69-0.13c0.19-0.08,0.35-0.2,0.47-0.35s0.21-0.32,0.27-0.51
		c0.06-0.19,0.08-0.4,0.08-0.61V301c0-0.23,0.05-0.43,0.15-0.59c0.1-0.16,0.23-0.29,0.4-0.39c0.17-0.1,0.36-0.17,0.59-0.22
		c0.23-0.04,0.47-0.07,0.72-0.07h1.08v4.57c0,0.23,0.03,0.45,0.1,0.67c0.07,0.22,0.16,0.41,0.3,0.58c0.13,0.17,0.3,0.31,0.51,0.41
		c0.21,0.1,0.46,0.16,0.74,0.16s0.53-0.05,0.72-0.14c0.2-0.09,0.35-0.22,0.47-0.38s0.21-0.34,0.26-0.54s0.08-0.42,0.08-0.65V301
		c0-0.23,0.05-0.43,0.15-0.6c0.1-0.16,0.24-0.29,0.41-0.39s0.37-0.17,0.6-0.21c0.22-0.04,0.46-0.07,0.72-0.07h1.12v4.59
		c0,0.01,0,0.05,0.01,0.1c0.01,0.06,0.01,0.09,0.01,0.1c0.09,0.57,0.3,1,0.62,1.27s0.78,0.41,1.37,0.41h0.73v2.37h-0.71
		c-0.33,0-0.63-0.03-0.91-0.1s-0.52-0.16-0.75-0.28c-0.22-0.12-0.42-0.26-0.6-0.42c-0.17-0.16-0.33-0.34-0.46-0.53
		c-0.3,0.41-0.7,0.74-1.2,0.98c-0.5,0.24-1.09,0.36-1.76,0.36c-0.38,0-0.73-0.04-1.05-0.13c-0.32-0.08-0.62-0.2-0.88-0.34
		c-0.26-0.14-0.5-0.31-0.71-0.51c-0.21-0.2-0.4-0.41-0.55-0.63c-0.12,0.23-0.26,0.44-0.43,0.63s-0.38,0.37-0.62,0.51
		s-0.51,0.26-0.82,0.34c-0.31,0.08-0.65,0.12-1.04,0.12c-0.35,0-0.68-0.04-0.98-0.12c-0.3-0.08-0.57-0.19-0.82-0.34
		c-0.24-0.14-0.46-0.31-0.65-0.5c-0.19-0.19-0.35-0.39-0.49-0.61c-0.35,0.5-0.81,0.88-1.39,1.15s-1.27,0.41-2.08,0.41H117.6z"/>
	<path class="st15" d="M136.91,306.2h0.3c0.41,0,0.75-0.06,1.02-0.19c0.27-0.12,0.48-0.29,0.63-0.5c0.16-0.21,0.26-0.46,0.32-0.74
		c0.06-0.28,0.09-0.57,0.09-0.88v-8.26c0-0.23,0.05-0.43,0.15-0.6c0.1-0.16,0.24-0.29,0.41-0.4c0.17-0.1,0.37-0.17,0.6-0.21
		c0.23-0.04,0.47-0.06,0.72-0.06h1.19v9.53c0,0.42-0.05,0.85-0.14,1.27c-0.09,0.42-0.23,0.84-0.42,1.24
		c-0.31,0.66-0.78,1.19-1.41,1.58s-1.43,0.59-2.41,0.59h-1.06V306.2z"/>
	<path class="st15" d="M146.55,294.37h1.19v12.94c0,0.23-0.05,0.43-0.15,0.6c-0.1,0.16-0.24,0.29-0.41,0.4
		c-0.17,0.1-0.37,0.17-0.6,0.21c-0.22,0.04-0.46,0.06-0.72,0.06h-1.19v-0.22c0-2.13,0-4.26,0-6.36c0-2.11,0-4.22,0-6.35
		c0-0.23,0.05-0.43,0.15-0.6c0.1-0.16,0.24-0.29,0.41-0.4c0.17-0.1,0.37-0.17,0.6-0.21C146.05,294.39,146.29,294.37,146.55,294.37z"
		/>
</g>
<g>
	<g>
		<path class="st47" d="M170.7,200.17c-0.3,0.34-0.58,0.67-0.86,1.01c-2.21,2.7-3.26,6.11-3.05,9.6c-0.26-1.33-0.56-2.62-0.94-3.88
			c-1.61-5.6-4.33-10.37-7.4-13.91c-5.04-5.79-11.83-9.78-19.27-11.7c-19.64-5-38.31-1.52-48.1,1.18
			c-6.82,1.89-13.12,5.47-17.82,10.78c-4.07,4.57-6.41,9.63-7.69,14.66c-0.26,0.99-0.49,1.99-0.64,2.98
			c0.37-3.24-0.51-6.52-2.51-9.11c-0.6-0.81-1.26-1.59-1.91-2.38c-5.98-7.03-2.83-18.07,6.13-20.26
			c16.57-4.05,29.58-12.46,38.24-27.31c4.72-8.1,16.34-8.58,21.24-0.6c8.94,14.69,20.73,24.97,37.52,28.79
			C172.8,182.1,176.77,193.01,170.7,200.17z"/>
		<g>
			<path class="st45" d="M167.3,220.46c-0.34,6.39-2.21,13.29-6.25,20.32c0,0-6.89,14.03-25.22,17.85
				c-0.81,0.16-1.64,0.24-2.46,0.24H98.65c-1.4,0-2.79-0.22-4.12-0.69c-3.63-1.28-11.23-4.39-17.87-9.92
				c-6.29-5.23-10.32-12.69-11.68-20.75c-0.71-4.2-1.12-9.43-0.39-14.93c0.19-1.54,0.49-3.1,0.9-4.67
				c1.27-5.01,3.63-10.07,7.68-14.65c4.7-5.3,11-8.89,17.83-10.77c9.79-2.7,28.45-6.19,48.09-1.18c7.45,1.91,14.23,5.89,19.28,11.7
				c3.07,3.54,5.79,8.3,7.4,13.89C166.97,211.01,167.57,215.59,167.3,220.46z"/>
			<g>
				<ellipse class="st26" cx="132.43" cy="215.38" rx="5.84" ry="8.86"/>
				<ellipse class="st26" cx="100.85" cy="215.38" rx="5.84" ry="8.86"/>
			</g>
			<g>
				<ellipse class="st48" cx="139.39" cy="233.61" rx="5.77" ry="2.61"/>
				<ellipse class="st48" cx="93.89" cy="233.61" rx="5.77" ry="2.61"/>
			</g>
			<path class="st47" d="M118.89,246.06c0,0-8.29,0.49-7.28-5.76c0.02-0.12,0.13-0.21,0.25-0.21h12.43
				C124.29,240.09,125.33,245.69,118.89,246.06z"/>
		</g>
	</g>
</g>
</svg>
