<svg version="1.2" xmlns="http://www.w3.org/2000/svg" viewBox="0 0 87 33" width="87" height="33"><style>.a{fill:#010202}</style><path class="a" d="m3.4 19.1q0.7 0 1.3 0.3 0.5 0.2 0.9 0.6 0.3 0.4 0.5 0.8 0.2 0.5 0.2 0.9 0 0.4-0.2 0.9-0.2 0.4-0.5 0.8-0.4 0.4-0.9 0.7-0.5 0.2-1.3 0.2-0.7 0-1.2-0.2-0.6-0.3-0.9-0.7-0.4-0.4-0.5-0.8-0.2-0.5-0.2-0.9 0-0.4 0.2-0.9 0.1-0.4 0.5-0.8 0.3-0.4 0.9-0.6 0.5-0.3 1.2-0.3zm-2.5-18.6h5.1l-0.4 16h-4.4z"/><path class="a" d="m14.2 19.1q0.7 0 1.3 0.3 0.5 0.2 0.8 0.6 0.4 0.4 0.6 0.8 0.1 0.5 0.1 0.9 0 0.4-0.1 0.9-0.2 0.4-0.6 0.8-0.3 0.4-0.8 0.7-0.6 0.2-1.3 0.2-0.7 0-1.3-0.2-0.5-0.3-0.8-0.7-0.4-0.4-0.5-0.8-0.2-0.5-0.2-0.9 0-0.4 0.2-0.9 0.1-0.4 0.5-0.8 0.3-0.4 0.8-0.6 0.6-0.3 1.3-0.3zm-2.5-18.6h5.1l-0.4 16h-4.4z"/><path class="a" d="m25 19.1q0.7 0 1.2 0.3 0.6 0.2 0.9 0.6 0.4 0.4 0.5 0.8 0.2 0.5 0.2 0.9 0 0.4-0.2 0.9-0.1 0.4-0.5 0.8-0.3 0.4-0.9 0.7-0.5 0.2-1.2 0.2-0.7 0-1.3-0.2-0.5-0.3-0.9-0.7-0.3-0.4-0.5-0.8-0.1-0.5-0.1-0.9 0-0.4 0.1-0.9 0.2-0.4 0.5-0.8 0.4-0.4 0.9-0.6 0.6-0.3 1.3-0.3zm-2.5-18.6h5l-0.3 16h-4.4z"/><path fill-rule="evenodd" class="a" d="m33.5 22q0.6-0.6 1.3-1 0.7-0.4 1.5-0.6 0.8-0.2 1.7-0.3 0.8-0.1 1.7-0.1 0.3 0 0.6 0 0.4 0 0.7 0 0 0 0 0 0.1 0 0.2 0 0 0 0.1 0 0.1-0.1 0.2-0.1 0.1 0 0.1 0 0.1 0 0.1 0-0.5-1.1-1.2-2-0.6-0.9-1.5-1.7-0.8-0.8-1.7-1.5-1-0.7-1.9-1.3l-0.2-0.1-0.5-2.7 0.2-0.1q1.7-1.8 4-2.8 2.3-1 5.2-1.2h0.6q1.1 0 2.3 0.2 1.1 0.2 2.2 0.5 1.1 0.3 2 0.8 1 0.5 1.9 1.2 0.4 0.3 0.8 0.7 0.4 0.5 0.8 1 0.3 0.5 0.5 1 0.2 0.5 0.2 1.1 0 0.6-0.3 1.3-0.2 0.6-0.7 1.2-0.4 0.7-0.9 1.2-0.5 0.6-0.9 1-1.2 1.3-2.6 2.4h8.5v3.9h-13.9l-0.9-0.6q-0.7 0.2-1.4 0.3-0.7 0.2-1.4 0.3h-0.1q-1.4 0-2.7 0.2-1 0.1-1.5 0.6-0.4 0.6-0.4 1.4 0 0.4 0.1 0.8 0.2 0.4 0.5 0.7 0.3 0.3 0.7 0.5 0.4 0.1 0.9 0.2 0.6 0 1.2 0.1 0.6 0 1.3 0 0.7 0.1 1.1 0.4 0.5 0.3 0.7 0.8 0.2 0.5 0.3 1.1 0 0.6 0 1.2v0.4h-2.6q-1 0-1.9-0.1-1-0.1-1.9-0.4-0.9-0.2-1.7-0.7-0.8-0.4-1.5-1-0.9-0.9-1.3-1.9-0.4-0.9-0.4-2 0-1.1 0.4-2.3 0.5-1.1 1.4-2zm12.4-4.1q0.9-0.6 1.6-1.3 0.8-0.7 1.6-1.4 0.2-0.2 0.4-0.5 0.3-0.2 0.5-0.5 0.2-0.3 0.3-0.5 0.1-0.3 0.1-0.6 0-0.1-0.2-0.4-0.1-0.3-0.3-0.4-0.9-0.7-2.2-1-1.2-0.4-2.6-0.4-1.2 0-2.3 0.3-1.1 0.2-2 0.7 1.8 1.2 3.1 2.8 1.2 1.6 2 3.2z"/><path class="a" d="m57.5 24v-3.9h1.2q1 0 1.7-0.3 0.6-0.4 1-0.9 0.4-0.5 0.5-1.2 0.2-0.7 0.2-1.4v-4.8q0-0.6 0.2-1 0.3-0.4 0.7-0.7 0.4-0.2 1-0.3 0.5-0.1 1.2-0.1h1.9v6.9q0 1-0.2 2.1-0.2 1-0.7 2-0.8 1.7-2.3 2.6-1.6 1-4 1zm2.1-17.7v-0.9h1.5q-0.2-0.5-0.4-1-0.1-0.4-0.1-1 0-0.6 0.2-1.2 0.3-0.7 0.8-1.2 0.5-0.4 1.3-0.7 0.7-0.3 1.7-0.3 1.1 0 1.9 0.2 0.9 0.3 1.7 0.7l0.2 0.2v0.2q-0.1 0.2-0.2 0.4-0.1 0.2-0.2 0.4-0.2 0.3-0.5 0.5-0.2 0.2-0.7 0.2-0.2 0-0.5-0.1-0.2 0-0.6-0.1-0.2-0.1-0.6-0.1-0.5 0-0.9 0.3-0.3 0.3-0.3 0.8 0 0.4 0.2 0.7 0.2 0.3 0.5 0.6 0.3 0.2 0.7 0.3 0.4 0.2 1 0.2h0.7q0.3 0 0.6 0.1 0.2 0.1 0.4 0.2 0.2 0.2 0.3 0.3 0.1 0.2 0.1 0.4 0.1 0.3 0.1 0.7v0.9h-7.5q-0.8 0-1.1-0.5-0.3-0.5-0.3-1.2z"/><path class="a" d="m73.5 0.5h2v21.4q0 0.6-0.3 1-0.2 0.4-0.6 0.6-0.5 0.3-1 0.4-0.6 0.1-1.2 0.1h-2v-0.4q0-5.3 0-10.5 0-5.2 0-10.5 0-0.5 0.3-0.9 0.2-0.4 0.6-0.7 0.5-0.2 1-0.4 0.6-0.1 1.2-0.1z"/><path class="a" d="m76.4 30.5q0-0.5 0.1-1.1 0.1-0.5 0.4-0.9 0.2-0.4 0.7-0.7 0.4-0.2 1-0.2h0.3q0.5 0 0.8-0.3 0.4-0.3 0.8-0.7 0.3-0.2 0.5-0.6 0.1-0.4 0.2-0.8 0.1-0.4 0.2-0.8 0-0.5 0-0.9v-11.4-0.6q0-0.6 0.3-1 0.2-0.4 0.6-0.6 0.5-0.3 1-0.4 0.6-0.1 1.2-0.1h2v3.2 11q0 1.5-0.4 2.9-0.3 1.4-1.2 2.5-0.9 1.1-2.5 1.7-1.5 0.7-4 0.7h-2v-0.9z"/></svg>