<svg version="1.2" xmlns="http://www.w3.org/2000/svg" viewBox="0 0 88 135" width="88" height="135"><style>.a{fill:#fff;stroke:#010202;stroke-width:1.4}.b{fill:#fff;stroke:#010202;stroke-width:.7}.c{fill:#c21920;stroke:#010202;stroke-width:.4}.d{fill:#010202}.e{fill:#c21920;stroke:#010202;stroke-width:1.4}.f{fill:#c21920}.g{fill:#fff;stroke:#010202;stroke-linecap:round;stroke-linejoin:round;stroke-width:1.4}.h{fill:#c21920;stroke:#010202;stroke-width:1.5}</style><path class="a" d="m31.6 104.8v-26.4l21.3-0.2c16.7 22.5-3.8 36.9-3.8 36.9 0 0-2 5.4-7.8 5.3 0 0-3.6 0.2-7.2-7 0 0-0.4-0.8-1.4-3.3-0.7-1.7-1.1-3.5-1.1-5.3z"/><path class="b" d="m31.8 85.6h25.5l1.1 4.8h-26.7z"/><path class="c" d="m57.2 90.4h-8.8l1.6-4.8h5.6z"/><path class="c" d="m46.7 90.4h-8.8l1.6-4.8h5.6z"/><path class="c" d="m36.1 90.4h-4.4l0.2-4.8h2.6z"/><path class="b" d="m31.6 100h27.4l-1.3 4.8h-25.9z"/><path class="c" d="m57.2 104.8h-8.8l1.6-4.9h5.6z"/><path class="c" d="m46.7 104.8h-8.8l1.6-4.9h5.6z"/><path class="c" d="m36.1 104.8h-4l0.1-4.9h2.3z"/><path class="a" d="m40.7 77.1c0 0 3.9 7.3 3.3 13.8-0.3 3.8-3.5 6.8-7.3 6.4-1.9-0.2-3.8-1.3-4.6-4.5v-17c0 0 4.8 2.4 8.6 1.3z"/><path class="a" d="m60.5 12.4c0 0 26.4 6.1 26.3 34.2 0 10.4-5 20.4-14 26.3-4.9 3.2-11.4 5.5-19.8 5.2 0 0-19.9 0.9-29.6-1.3 0 0-18.8-4.8-20.8-21.8 0 0-5.9-26.5 14.9-38.3 0 0 17.9-9.6 43-4.3z"/><path class="d" d="m62.3 49.5c-3.6 0-6.5-4.4-6.5-9.9 0-5.4 2.9-9.9 6.5-9.9 3.6 0 6.5 4.5 6.5 9.9 0 5.5-2.9 9.9-6.5 9.9z"/><path class="e" d="m47.7 29.9c-0.8 2.7-3 4.8-5.7 5.7-25 8.8-39-1.1-39-1.1q-1.2-3.6-1.5-7.6c-1.2-17.5 16.1-30.8 31.7-24 3 1.3 5.6 3.6 8.6 5.8 0.6 0.5 1.7 1.6 2.4 2 5.1 9 4.8 15.3 3.5 19.2z"/><path class="a" d="m60.3 119.4c5.2 3.5 3 8-2.7 10.7q-0.1 0.1-0.2 0.1c-3.4 1.6-7.5 0.4-9.7-2.6l-7.8-9.6c8.3 0.6 14.4-8.1 14.4-8.1 1.4 0.8 3.3 7.7 6 9.5z"/><path class="f" d="m48.2 127.2c0 0 6.4-3.7 10.8-8 0 0 6.8 3.6 1.6 8.1 0 0-6.8 6.9-12.4-0.1z"/><path class="g" d="m45.6 128.5c0.4 5.8-4.1 6.8-9.3 4.2q-0.1-0.1-0.2-0.1c-3.1-1.6-4.5-5.3-3.6-8.6l1.9-8.6c8.2 4 13.2 0.4 13.2 0.4 0.2 1.5-2.1 9.8-2 12.7z"/><path class="f" d="m33.1 124.2c0 0 6.3 2.5 12 3.3 0 0 1.2 7-5 5.8 0 0-8.9-1.1-7-9.1z"/><path class="f" d="m70.6 61.2c-2.6 0-4.7-1-4.7-2.1 0-1.2 2.1-2.2 4.7-2.2 2.6 0 4.7 1 4.7 2.2 0 1.1-2.1 2.1-4.7 2.1z"/><path class="f" d="m43.2 91.1c-0.4 4-4 5.2-4 5.2-5.5 1.5-6.4-3.6-6.4-3.6v-1.6z"/><path class="h" d="m85.2 55.9c-1.7-0.1-5.6-0.4-5-4.4q0.1-0.2 0.2-0.2h5.9z"/></svg>