<svg version="1.2" xmlns="http://www.w3.org/2000/svg" viewBox="0 0 87 134" width="87" height="134"><style>.a{fill:#fff;stroke:#010202;stroke-width:1.4}.b{fill:#fff;stroke:#010202;stroke-width:.7}.c{fill:#c21920;stroke:#010202;stroke-width:.4}.d{fill:#010202}.e{fill:#c21920;stroke:#010202;stroke-width:1.4}.f{fill:#c21920}.g{fill:#fff;stroke:#010202;stroke-linecap:round;stroke-linejoin:round;stroke-width:1.4}.h{fill:#c21920;stroke:#010202;stroke-width:1.5}</style><path class="a" d="m31.1 104.5v-26.3l21.3-0.3c16.7 22.5-3.8 36.9-3.8 36.9 0 0-2 5.4-7.7 5.3 0 0-3.7 0.3-7.3-7 0 0-0.4-0.8-1.4-3.2-0.7-1.7-1.1-3.6-1.1-5.4z"/><path class="b" d="m31.4 85.4h25.4l1.1 4.8h-26.6z"/><path class="c" d="m56.7 90.2h-8.8l1.6-4.9h5.6z"/><path class="c" d="m46.2 90.2h-8.8l1.6-4.9h5.6z"/><path class="c" d="m35.7 90.2h-4.4l0.1-4.9h2.6z"/><path class="b" d="m31.2 99.7h27.3l-1.3 4.8h-25.9z"/><path class="c" d="m56.7 104.5h-8.8l1.6-4.9h5.6z"/><path class="c" d="m46.2 104.5h-8.8l1.6-4.9h5.6z"/><path class="c" d="m35.7 104.5h-4.1l0.2-4.9h2.2z"/><path class="a" d="m40.2 76.8c0 0 3.9 7.4 3.3 13.8-0.3 3.8-3.5 6.8-7.3 6.4-1.9-0.2-3.8-1.3-4.6-4.4v-17.1c0 0 4.8 2.4 8.6 1.3z"/><path class="a" d="m60 12.1c0 0 26.4 6.1 26.3 34.2 0 10.4-5 20.4-14 26.3-4.9 3.2-11.4 5.5-19.7 5.2 0 0-19.9 1-29.7-1.3 0 0-18.7-4.8-20.8-21.7 0 0-5.9-26.6 14.9-38.4 0 0 17.9-9.6 43-4.3z"/><path class="d" d="m61.8 49.2c-3.6 0-6.5-4.4-6.5-9.9 0-5.4 2.9-9.8 6.5-9.8 3.6 0 6.5 4.4 6.5 9.8 0 5.5-2.9 9.9-6.5 9.9z"/><path class="e" d="m47.3 29.6c-0.9 2.7-3.1 4.8-5.8 5.8-24.9 8.7-39-1.2-39-1.2q-1.2-3.5-1.4-7.5c-1.3-17.6 16-30.9 31.6-24.1 3.1 1.3 5.6 3.6 8.6 5.8 0.6 0.5 1.7 1.6 2.4 2.1 5.1 8.9 4.9 15.3 3.6 19.1z"/><path class="a" d="m44.6 126.9c0.8 6.3-4.1 7.6-9.8 5.1q-0.1-0.1-0.2-0.1c-3.5-1.6-5.2-5.4-4.4-9.1l2.2-12.1c4.9 6.6 15.5 5.5 15.5 5.5 0.3 1.6-3.7 7.5-3.3 10.7z"/><path class="f" d="m30.8 123c0 0 6.9 2.3 13.1 2.8 0 0 1.8 7.5-5.1 6.6 0 0-9.6-0.7-8-9.4z"/><path class="g" d="m60.5 121.2c3.9 5 0.4 8.6-5.8 9.4q-0.2 0-0.3 0c-3.7 0.5-7.2-1.9-8.4-5.5l-3.5-8.8c9.8-1.4 12-7.7 12-7.7 1.1 1.3 4 10.1 6 12.6z"/><path class="f" d="m46.7 124.9c0 0 7.1-1.5 12.6-4.3 0 0 5.4 5.5-0.9 8.3 0 0-8.6 4.3-11.7-4z"/><path class="f" d="m70.1 60.9c-2.6 0-4.6-1-4.6-2.1 0-1.2 2-2.1 4.6-2.1 2.6 0 4.7 0.9 4.7 2.1 0 1.1-2.1 2.1-4.7 2.1z"/><path class="f" d="m42.8 90.8c-0.5 4-4.1 5.2-4.1 5.2-5.5 1.6-6.4-3.5-6.4-3.5v-1.7z"/><path class="h" d="m84.7 55.6c-1.7 0-5.6-0.4-4.9-4.4q0-0.2 0.2-0.2h5.8z"/></svg>