<svg version="1.2" xmlns="http://www.w3.org/2000/svg" viewBox="0 0 88 134" width="88" height="134"><style>.a{fill:#fff;stroke:#010202;stroke-width:1.4}.b{fill:#fff;stroke:#010202;stroke-width:.7}.c{fill:#c21920;stroke:#010202;stroke-width:.4}.d{fill:#010202}.e{fill:#c21920;stroke:#010202;stroke-width:1.4}.f{fill:#c21920}.g{fill:#c21920;stroke:#010202;stroke-width:1.5}</style><path class="a" d="m31.6 104.7v-26.3l21.3-0.2c16.7 22.4-3.8 36.8-3.8 36.8 0 0-2 5.5-7.7 5.4 0 0-3.7 0.2-7.3-7.1 0 0-0.4-0.7-1.4-3.2-0.7-1.7-1.1-3.5-1.1-5.4z"/><path class="b" d="m31.9 85.6h25.4l1.1 4.8h-26.7z"/><path class="c" d="m57.2 90.4h-8.8l1.6-4.8h5.6z"/><path class="c" d="m46.7 90.4h-8.8l1.6-4.8h5.6z"/><path class="c" d="m36.1 90.4h-4.4l0.2-4.8h2.6z"/><path class="b" d="m31.6 99.9h27.4l-1.3 4.8h-25.9z"/><path class="c" d="m57.2 104.7h-8.8l1.6-4.8h5.6z"/><path class="c" d="m46.7 104.7h-8.8l1.6-4.8h5.6z"/><path class="c" d="m36.1 104.7h-4l0.2-4.8h2.2z"/><path class="a" d="m40.7 77c0 0 3.9 7.4 3.3 13.9-0.3 3.7-3.5 6.7-7.3 6.3-1.9-0.2-3.8-1.3-4.6-4.4v-17c0 0 4.8 2.3 8.6 1.2z"/><path class="a" d="m60.5 12.3c0 0 26.4 6.1 26.3 34.3 0 10.4-5 20.4-14 26.2-4.9 3.2-11.4 5.6-19.7 5.2 0 0-19.9 1-29.7-1.3 0 0-18.7-4.8-20.8-21.7 0 0-5.9-26.6 14.9-38.3 0 0 17.9-9.7 43-4.4z"/><path class="d" d="m62.3 49.4c-3.6 0-6.5-4.4-6.5-9.8 0-5.5 2.9-9.9 6.5-9.9 3.6 0 6.5 4.4 6.5 9.9 0 5.4-2.9 9.8-6.5 9.8z"/><path class="e" d="m47.8 29.9c-0.9 2.7-3.1 4.8-5.8 5.7-24.9 8.8-39-1.1-39-1.1q-1.2-3.6-1.4-7.6c-1.3-17.5 16-30.9 31.6-24 3 1.3 5.6 3.5 8.6 5.8 0.6 0.4 1.7 1.5 2.4 2 5.1 9 4.8 15.3 3.6 19.2z"/><path class="a" d="m49 125.5c2 5.9-2.5 8.2-8.6 7q-0.1-0.1-0.2-0.1c-3.7-0.8-6.2-4.2-6.2-7.9l-0.4-12.4c6.2 5.5 16.3 2.2 16.3 2.2 0.6 1.5-2 8.1-0.9 11.2z"/><path class="f" d="m34.7 124.5c0 0 7.2 0.9 13.3 0 0 0 3.3 7-3.5 7.6 0 0-9.6 1.3-9.8-7.6z"/><path class="a" d="m55 125.5c2.1 5.9-2.4 8.2-8.6 7q-0.1-0.1-0.2-0.1c-3.7-0.8-6.2-4.2-6.2-7.9l-0.5-9.5c9.7 1.8 13.7-3.5 13.7-3.5 0.6 1.5 0.7 10.9 1.8 14z"/><path class="f" d="m40.7 124.5c0 0 7.3 0.9 13.4 0 0 0 3.3 7-3.6 7.6 0 0-9.6 1.3-9.8-7.6z"/><path class="f" d="m70.6 61.1c-2.6 0-4.7-0.9-4.7-2.1 0-1.2 2.1-2.1 4.7-2.1 2.6 0 4.7 0.9 4.7 2.1 0 1.2-2.1 2.1-4.7 2.1z"/><path class="f" d="m43.3 91.1c-0.5 3.9-4.1 5.2-4.1 5.2-5.5 1.5-6.4-3.6-6.4-3.6v-1.6z"/><path class="g" d="m85.2 55.9c-1.7-0.1-5.6-0.4-4.9-4.5q0-0.1 0.2-0.2h5.8z"/></svg>