<svg version="1.2" xmlns="http://www.w3.org/2000/svg" viewBox="0 0 54 39" width="54" height="39"><style>.a{fill:#f7ba16;stroke:#010202;stroke-width:.8}.b{fill:#fff;stroke:#010202;stroke-width:.4}.c{fill:#e73836;stroke:#010202;stroke-width:.4}.d{fill:#fff}</style><path class="a" d="m52.9 19.3l-0.2 0.4-6.3 12.4c-1.8 3.5-5.4 5.7-9.4 5.7h-19.7c-3.9 0-7.6-2.2-9.3-5.7l-6.4-12.4-0.2-0.4 0.2-0.4 6.4-12.4c1.7-3.5 5.3-5.7 9.3-5.7h19.7c4 0 7.6 2.2 9.4 5.7l6.3 12.4z"/><path class="b" d="m44.5 25.9c-1.6 0-3-1.3-3-3 0-1.6 1.4-2.9 3-2.9 1.7 0 3 1.3 3 2.9 0 1.7-1.3 3-3 3z"/><path class="b" d="m27.2 15.8c-1.9 0-3.5-1.6-3.5-3.5 0-1.9 1.6-3.5 3.5-3.5 1.9 0 3.5 1.6 3.5 3.5 0 1.9-1.6 3.5-3.5 3.5z"/><path class="b" d="m37.5 19.5c-1.9 0-3.5-1.5-3.5-3.5 0-1.9 1.6-3.5 3.5-3.5 1.9 0 3.5 1.6 3.5 3.5 0 2-1.6 3.5-3.5 3.5z"/><path class="b" d="m9.8 25.9c-1.7 0-3-1.3-3-3 0-1.6 1.3-2.9 3-2.9 1.6 0 3 1.3 3 2.9 0 1.7-1.4 3-3 3z"/><path class="b" d="m16.8 19.5c-1.9 0-3.4-1.5-3.4-3.5 0-1.9 1.5-3.5 3.4-3.5 2 0 3.5 1.6 3.5 3.5 0 2-1.5 3.5-3.5 3.5z"/><path class="c" d="m43 22.9l1.5-1.5 1.6 1.5-1.6 1.5z"/><path class="c" d="m36 16.1l1.5-1.5 1.5 1.5-1.5 1.6z"/><path class="c" d="m25.6 12.3l1.5-1.6 1.6 1.6-1.6 1.5z"/><path class="c" d="m15.3 16l1.5-1.5 1.6 1.5-1.6 1.6z"/><path class="c" d="m8.2 23.1l1.6-1.6 1.5 1.6-1.5 1.5z"/><path class="d" d="m28.9 24.1q0 0.5 0 1.1c0 1 0 4.4 0 5.4 0 0.2-0.1 0.4-0.3 0.4q0 0 0 0 0 0-0.1 0c-1.2 0-1 0-2.1 0q-0.1 0-0.1 0c-0.2 0-0.3-0.1-0.3-0.2q-0.1-0.3-0.1-0.6c0-1.2 0-4.9 0-6.1q0 0 0 0 0 0 0 0 0 0 0 0c0 1.4 0 5.2 0 6.5q0 0.1 0 0.1 0-0.1 0-0.1c0-1.4 0-5.1 0-6.5q0-0.1 0-0.1c-0.6 0-1.7 0-2.2 0q-0.2 0-0.4-0.1c-0.1-0.2-0.1-0.4 0.1-0.6q0.9-0.8 1.9-1.7 0.9-0.8 1.9-1.6 0.1-0.1 0.2-0.2c0.1-0.1 0.3-0.1 0.4 0.1q0.3 0.2 0.5 0.4 0.9 0.8 1.7 1.6 0.7 0.6 1.5 1.3 0.1 0.1 0.2 0.2c0.1 0.1 0.2 0.3 0.1 0.4-0.1 0.2-0.2 0.3-0.4 0.3-0.4 0-1.6 0-2.1 0q0 0 0 0 0.2 0 0.3 0 0 0 0 0-0.2 0-0.3 0-0.2 0-0.3 0 0 0-0.1 0z"/><path class="d" d="m26.3 31q0 0 0 0c1.2 0 1.1 0 2.3 0q0 0 0 0 0 0-0.1 0c-1.2 0-0.9 0-2.1 0q-0.1 0-0.1 0z"/><path class="d" d="m25.9 30.7q0 0 0-0.1c0-1.3 0-5.1 0-6.5q0 0 0-0.1h0.1q0 0.1 0 0.1c0 1.4 0 5.2 0 6.5 0 0.1 0 0.1 0 0.1q-0.1 0-0.1 0z"/><path class="d" d="m28.9 24.1q0.1 0 0.1 0 0.3 0 0.6 0 0 0 0 0-0.1 0-0.3 0-0.2 0-0.4 0z"/></svg>