<?xml version="1.0" encoding="utf-8"?>
<!-- Generator: Adobe Illustrator 27.1.1, SVG Export Plug-In . SVG Version: 6.00 Build 0)  -->
<svg version="1.1" id="Layer_1" xmlns="http://www.w3.org/2000/svg" xmlns:xlink="http://www.w3.org/1999/xlink" x="0px" y="0px"
	 viewBox="0 0 841.89 595.28" style="enable-background:new 0 0 841.89 595.28;" xml:space="preserve">
<style type="text/css">
	.st0{fill:#D4D7EE;stroke:#010202;stroke-miterlimit:10;}
	.st1{fill:#FFFFFF;stroke:#010202;stroke-width:0.75;stroke-miterlimit:10;}
	.st2{fill:#179552;}
	.st3{fill:#C11A22;}
	.st4{fill:#FFFFFF;stroke:#010202;stroke-width:1.4583;stroke-miterlimit:10;}
	.st5{fill:#37AB4D;stroke:#010202;stroke-width:1.1973;stroke-miterlimit:10;}
	.st6{fill:#F7BA16;stroke:#010202;stroke-width:1.1973;stroke-miterlimit:10;}
	.st7{fill:#C11A22;stroke:#010202;stroke-width:1.1973;stroke-miterlimit:10;}
	.st8{fill:#FFFFFF;stroke:#010202;stroke-width:1.1726;stroke-miterlimit:10;}
	.st9{fill:#C11A22;stroke:#010202;stroke-width:1.438;stroke-miterlimit:10;}
	.st10{fill:#37AB4D;stroke:#010202;stroke-width:1.438;stroke-miterlimit:10;}
	.st11{fill:#F7BA16;stroke:#010202;stroke-width:1.438;stroke-miterlimit:10;}
	.st12{fill:#191919;stroke:#191919;stroke-miterlimit:10;}
	.st13{fill:none;stroke:#010202;stroke-width:3;stroke-linecap:round;stroke-linejoin:round;stroke-miterlimit:10;}
	.st14{fill:#C21A21;stroke:#010202;stroke-width:2;stroke-miterlimit:10;}
	.st15{fill:#FFFFFF;}
	.st16{fill:none;stroke:#010202;stroke-width:0.8258;stroke-miterlimit:10;}
	.st17{fill:#F7BA16;stroke:#010202;stroke-width:0.75;stroke-miterlimit:10;}
	.st18{fill:#C11A22;stroke:#010202;stroke-width:0.75;stroke-miterlimit:10;}
	.st19{fill:#FAEA2F;stroke:#010202;stroke-width:0.4937;stroke-miterlimit:10;}
	.st20{fill:#FFFFFF;stroke:#050707;stroke-width:0.4937;stroke-miterlimit:10;}
	.st21{fill:#E63329;stroke:#010202;stroke-width:0.1545;stroke-miterlimit:10;}
	.st22{fill:#37AB4D;stroke:#010202;stroke-width:0.75;stroke-miterlimit:10;}
	.st23{fill:#FCD802;stroke:#010202;stroke-width:1.4349;stroke-miterlimit:10;}
	.st24{fill:#FFFFFF;stroke:#010202;stroke-width:1.4349;stroke-miterlimit:10;}
	.st25{fill:none;stroke:#010202;stroke-width:1.4349;stroke-linecap:round;stroke-linejoin:round;stroke-miterlimit:10;}
	.st26{fill:#010202;}
	.st27{fill:#02A96B;stroke:#010202;stroke-width:0.75;stroke-miterlimit:10;}
	.st28{fill:#F7BA16;stroke:#010202;stroke-width:3.158;stroke-miterlimit:10;}
	.st29{fill:#FFFFFF;stroke:#010202;stroke-width:2.3588;stroke-miterlimit:10;}
	.st30{fill:#C21920;stroke:#010202;stroke-width:2.3588;stroke-miterlimit:10;}
	.st31{fill:#C21A21;stroke:#010202;stroke-width:1.1973;stroke-miterlimit:10;}
	.st32{fill:#70B966;stroke:#010202;stroke-miterlimit:10;}
	.st33{fill:#02A96B;}
	.st34{fill:#FFFFFF;stroke:#010202;stroke-width:2;stroke-miterlimit:10;}
	.st35{fill:#C21920;stroke:#010202;stroke-width:1.4407;stroke-miterlimit:10;}
	.st36{fill:#F8AB16;stroke:#010202;stroke-width:1.4407;stroke-miterlimit:10;}
	.st37{fill:#8E1963;stroke:#010202;stroke-width:1.4407;stroke-miterlimit:10;}
	.st38{fill:#FCD900;stroke:#010202;stroke-width:1.4407;stroke-miterlimit:10;}
	.st39{fill:#FFFFFF;stroke:#010202;stroke-width:1.8498;stroke-miterlimit:10;}
	.st40{fill:#8E1963;}
	.st41{fill:#8E1963;stroke:#010202;stroke-width:1.8764;stroke-miterlimit:10;}
	.st42{fill:#8E1963;stroke:#010202;stroke-width:1.4015;stroke-miterlimit:10;}
	.st43{fill:none;stroke:#010202;stroke-width:1.4015;stroke-linecap:round;stroke-linejoin:round;stroke-miterlimit:10;}
	.st44{fill:#C21920;stroke:#010202;stroke-width:1.8125;stroke-miterlimit:10;}
	.st45{fill:#FFFFFF;stroke:#010202;stroke-width:1.8478;stroke-miterlimit:10;}
	.st46{fill:#C21920;}
	.st47{fill:#F8AB16;stroke:#010202;stroke-width:1.7687;stroke-miterlimit:10;}
	.st48{fill:#F8AB16;}
	.st49{fill:#FCD900;}
	.st50{fill:none;stroke:#010202;stroke-width:1.6344;stroke-miterlimit:10;}
	.st51{fill:#FCD900;stroke:#010202;stroke-width:1.6344;stroke-miterlimit:10;}
	.st52{fill:#FFFFFF;stroke:#010202;stroke-width:0.9824;stroke-miterlimit:10;}
	.st53{fill:#C21920;stroke:#010202;stroke-width:0.4912;stroke-miterlimit:10;}
	.st54{fill:#8E1963;stroke:#010202;stroke-width:0.4912;stroke-miterlimit:10;}
	.st55{fill:#F8AB16;stroke:#010202;stroke-width:0.4912;stroke-miterlimit:10;}
	.st56{fill:#FFFFFF;stroke:#010202;stroke-width:2.0587;stroke-miterlimit:10;}
	.st57{fill:#8E1963;stroke:#010202;stroke-width:2.0883;stroke-miterlimit:10;}
	.st58{fill:#8E1963;stroke:#010202;stroke-width:1.5598;stroke-miterlimit:10;}
	.st59{fill:none;stroke:#010202;stroke-width:1.5598;stroke-linecap:round;stroke-linejoin:round;stroke-miterlimit:10;}
	.st60{fill:#C21920;stroke:#010202;stroke-width:2.0171;stroke-miterlimit:10;}
	.st61{fill:#FFFFFF;stroke:#010202;stroke-width:2.0565;stroke-miterlimit:10;}
	.st62{fill:#F8AB16;stroke:#010202;stroke-width:1.9685;stroke-miterlimit:10;}
	.st63{fill:#C11A22;stroke:#010202;stroke-width:2.0446;stroke-miterlimit:10;}
	.st64{fill:none;stroke:#010202;stroke-width:1.1741;stroke-miterlimit:10;}
	.st65{fill:#F7BA16;stroke:#010202;stroke-width:2.0446;stroke-miterlimit:10;}
	.st66{fill:#37AB4D;stroke:#010202;stroke-width:2.0446;stroke-miterlimit:10;}
	.st67{fill:#FFFFFF;stroke:#010202;stroke-width:1.3431;stroke-miterlimit:10;}
	.st68{fill:#FFFFFF;stroke:#010202;stroke-width:0.6716;stroke-miterlimit:10;}
	.st69{fill:#C21920;stroke:#010202;stroke-width:0.3358;stroke-miterlimit:10;}
	.st70{fill:#C21920;stroke:#010202;stroke-width:1.3431;stroke-miterlimit:10;}
	.st71{fill:#FFFFFF;stroke:#010202;stroke-width:1.3076;stroke-miterlimit:10;}
	.st72{fill:#C21920;stroke:#010202;stroke-width:1.3863;stroke-miterlimit:10;}
	.st73{fill:#FFFFFF;stroke:#010202;stroke-width:1.4948;stroke-miterlimit:10;}
	.st74{fill:#FFFFFF;stroke:#010202;stroke-width:0.7474;stroke-miterlimit:10;}
	.st75{fill:#C21920;stroke:#010202;stroke-width:0.3737;stroke-miterlimit:10;}
	.st76{fill:#C21920;stroke:#010202;stroke-width:1.4662;stroke-miterlimit:10;}
	.st77{fill:#F8AB16;stroke:#010202;stroke-width:0.3791;stroke-miterlimit:10;}
	.st78{fill:#F8AB16;stroke:#010202;stroke-width:1.4308;stroke-miterlimit:10;}
	.st79{fill:none;stroke:#010202;stroke-width:1.3222;stroke-miterlimit:10;}
	.st80{fill:#FCD900;stroke:#010202;stroke-width:0.3791;stroke-miterlimit:10;}
	.st81{fill:#FCD900;stroke:#010202;stroke-width:1.3222;stroke-miterlimit:10;}
	.st82{fill:#8E1963;stroke:#010202;stroke-width:0.3791;stroke-miterlimit:10;}
	.st83{fill:#8E1963;stroke:#010202;stroke-width:1.5163;stroke-miterlimit:10;}
	.st84{fill:#8E1963;stroke:#010202;stroke-width:1.1325;stroke-miterlimit:10;}
	.st85{fill:none;stroke:#010202;stroke-width:1.1325;stroke-linecap:round;stroke-linejoin:round;stroke-miterlimit:10;}
	.st86{fill:#FFFFFF;stroke:#010202;stroke-width:1.4206;stroke-miterlimit:10;}
	.st87{fill:#FFFFFF;stroke:#010202;stroke-width:0.7103;stroke-miterlimit:10;}
	.st88{fill:#C21920;stroke:#010202;stroke-width:0.3551;stroke-miterlimit:10;}
	.st89{fill:#C21920;stroke:#010202;stroke-width:1.4206;stroke-miterlimit:10;}
	.st90{fill:#FFFFFF;stroke:#010202;stroke-width:1.383;stroke-miterlimit:10;}
	.st91{fill:#FAEA2F;stroke:#010202;stroke-width:0.3551;stroke-miterlimit:10;}
	.st92{fill:#F8AB16;stroke:#010202;stroke-width:1.4205;stroke-miterlimit:10;}
	.st93{fill:#8E1963;stroke:#010202;stroke-width:1.6044;stroke-miterlimit:10;}
	.st94{fill:none;stroke:#010202;stroke-width:1.6044;stroke-linecap:round;stroke-linejoin:round;stroke-miterlimit:10;}
	.st95{fill:#FCD900;stroke:#010202;stroke-width:1.6789;stroke-miterlimit:10;}
	.st96{fill:#37AB4D;stroke:#010202;stroke-width:2;stroke-miterlimit:10;}
	.st97{fill:#C21920;stroke:#010202;stroke-width:1.7323;stroke-miterlimit:10;}
	.st98{fill:none;stroke:#C21A21;stroke-width:3.8955;stroke-linecap:round;stroke-linejoin:round;stroke-miterlimit:10;}
	.st99{fill:#333333;}
	.st100{fill:#FCD901;stroke:#010202;stroke-width:1.3419;stroke-miterlimit:10;}
	.st101{fill:#8E1963;stroke:#010202;stroke-width:1.216;stroke-miterlimit:10;}
	.st102{fill:none;stroke:#010202;stroke-width:1.216;stroke-linecap:round;stroke-linejoin:round;stroke-miterlimit:10;}
	.st103{fill:#F8AB16;stroke:#010202;stroke-width:1.5252;stroke-miterlimit:10;}
	.st104{opacity:0.52;fill:#7A8084;}
	.st105{fill:#2856A2;stroke:#010202;stroke-width:0.8146;stroke-miterlimit:10;}
	.st106{fill:#FFFFFF;stroke:#010202;stroke-width:0.3123;stroke-miterlimit:10;}
	.st107{fill:#FFFFFF;stroke:#010202;stroke-width:0.0923;stroke-miterlimit:10;}
	.st108{fill:#F7BA16;stroke:#010202;stroke-width:0.0612;stroke-miterlimit:10;}
	.st109{fill:#E63329;stroke:#010202;stroke-width:0.0612;stroke-miterlimit:10;}
	.st110{fill:#37AB4D;stroke:#010202;stroke-width:0.0612;stroke-miterlimit:10;}
	.st111{fill:#FFFFFF;stroke:#010202;stroke-width:0.0764;stroke-miterlimit:10;}
	.st112{fill:#F7BA16;stroke:#010202;stroke-width:0.0506;stroke-miterlimit:10;}
	.st113{fill:#E63329;stroke:#010202;stroke-width:0.0506;stroke-miterlimit:10;}
	.st114{fill:#37AB4D;stroke:#010202;stroke-width:0.0506;stroke-miterlimit:10;}
	.st115{fill:#179552;stroke:#010202;stroke-width:0.8326;stroke-miterlimit:10;}
	.st116{fill:#F7BA16;stroke:#010202;stroke-width:0.8146;stroke-miterlimit:10;}
	.st117{fill:#FFFFFF;stroke:#010202;stroke-width:0.4197;stroke-miterlimit:10;}
	.st118{fill:#E73836;stroke:#010202;stroke-width:0.1809;stroke-miterlimit:10;}
	.st119{fill:#D4D7EE;stroke:#010202;stroke-width:1.001;stroke-miterlimit:10;}
	.st120{fill:#FFFFFF;stroke:#010202;stroke-width:1.1881;stroke-miterlimit:10;}
	.st121{fill:#FFFFFF;stroke:#191919;stroke-width:0.9977;stroke-miterlimit:10;}
	.st122{fill:#C11A21;}
	.st123{fill:#2957A2;}
	.st124{fill:#D4D7EE;stroke:#010202;stroke-width:0.8539;stroke-miterlimit:10;}
	.st125{fill:#F7BA16;stroke:#010202;stroke-width:2.0392;stroke-miterlimit:10;}
	.st126{fill:none;stroke:#010202;stroke-width:1.171;stroke-miterlimit:10;}
	.st127{fill:#F7BA16;stroke:#010202;stroke-width:0.748;stroke-miterlimit:10;}
	.st128{fill:none;stroke:#010202;stroke-width:0.4027;stroke-miterlimit:10;}
	.st129{fill:#C11A22;stroke:#010202;stroke-width:0.3652;stroke-miterlimit:10;}
	.st130{fill:#C11A22;stroke:#010202;stroke-width:0.7033;stroke-miterlimit:10;}
</style>
<rect x="-0.22" y="-1.81" class="st0" width="841.19" height="595.74"/>
<path class="st34" d="M840.97,593.94H-0.46V475.96c0-0.56,0.45-1.01,1.01-1.01h840.42V593.94z"/>
<g>
	<rect x="-0.19" y="-1.87" class="st4" width="841.6" height="16.26"/>
	<polygon class="st5" points="457.46,14.53 421.53,14.53 410.87,-1.87 468.12,-1.87 	"/>
	<polygon class="st6" points="352.6,14.53 316.67,14.53 306.01,-1.87 363.26,-1.87 	"/>
	<polygon class="st7" points="247.74,14.53 211.81,14.53 201.15,-1.87 258.39,-1.87 	"/>
	<polygon class="st5" points="762.31,14.53 726.38,14.53 715.73,-1.87 772.97,-1.87 	"/>
	<polygon class="st7" points="841.41,14.53 825.62,14.53 814.96,-1.87 841.75,-1.87 	"/>
	<polygon class="st6" points="657.45,14.53 621.52,14.53 610.86,-1.87 668.11,-1.87 	"/>
	<polygon class="st7" points="552.59,14.53 516.66,14.53 506,-1.87 563.25,-1.87 	"/>
	<polygon class="st5" points="142.87,14.53 106.95,14.53 96.29,-1.87 153.53,-1.87 	"/>
	<polygon class="st6" points="-0.19,11.03 -0.19,-1.87 48.67,-1.87 38.1,14.39 38.01,14.53 2.08,14.53 2,14.39 	"/>
</g>
<g>
	<g>
		<polygon class="st63" points="384.94,474.87 338.63,562.22 290.83,474.9 		"/>
		<polygon class="st64" points="329.64,576.93 338.63,594.02 291.54,505.41 283.42,490.12 283.41,490.11 283.75,489.5 
			291.28,475.95 299.32,490.66 338.63,562.54 		"/>
		<polygon class="st64" points="393.19,490.59 393.03,490.89 392.97,491.01 385.18,505.77 338.63,594.02 347.28,577.55 
			338.63,562.54 377.06,490.48 384.77,476.02 384.83,475.9 384.97,475.64 		"/>
		<polygon class="st18" points="347.28,577.55 338.63,594.02 329.64,576.93 338.63,562.54 		"/>
	</g>
	<g>
		<path class="st63" d="M103.45,474.87l-46.31,87.35l-46.77-85.45c-0.46-0.84,0.15-1.87,1.11-1.87L103.45,474.87z"/>
		<polygon class="st64" points="48.14,576.93 57.14,594.02 1.92,490.11 9.79,475.95 57.14,562.54 		"/>
		<polygon class="st64" points="111.7,490.59 111.66,490.66 103.88,505.41 57.14,594.02 65.79,577.55 57.14,562.54 95.76,490.12 
			96.07,489.54 96.09,489.5 103.48,475.64 		"/>
		<polygon class="st18" points="65.79,577.55 57.14,594.02 48.14,576.93 57.14,562.54 		"/>
	</g>
	<g>
		<polygon class="st63" points="666.05,474.87 619.74,562.22 571.94,474.9 		"/>
		<polygon class="st64" points="610.74,576.93 619.73,594.02 564.52,490.11 572.39,475.95 619.73,562.54 		"/>
		<polygon class="st64" points="674.29,490.59 619.73,594.02 628.38,577.55 619.73,562.54 666.08,475.64 		"/>
		<polygon class="st18" points="628.38,577.55 619.73,594.02 610.74,576.93 619.73,562.54 		"/>
	</g>
	<g>
		<polygon class="st65" points="572.22,474.87 525.91,562.22 478.11,474.9 		"/>
		<polygon class="st64" points="516.91,576.93 525.9,594.02 478.82,505.4 470.7,490.12 470.69,490.11 470.99,489.57 478.56,475.95 
			486.6,490.65 525.9,562.54 		"/>
		<polygon class="st64" points="580.46,490.59 580.43,490.65 572.65,505.4 525.9,594.02 534.55,577.55 525.9,562.54 564.53,490.12 
			564.82,489.57 572.25,475.64 		"/>
		<polygon class="st17" points="534.55,577.55 525.9,594.02 516.91,576.93 525.9,562.54 		"/>
	</g>
	<g>
		<polygon class="st66" points="478.39,474.87 432.08,562.22 384.28,474.9 		"/>
		<polygon class="st64" points="423.08,576.93 432.07,594.02 385.18,505.77 377.06,490.48 376.86,490.12 376.86,490.11 
			376.98,489.89 384.73,475.95 384.77,476.02 392.97,491.01 432.07,562.54 		"/>
		<polygon class="st64" points="486.63,490.59 486.6,490.65 478.82,505.4 432.07,594.02 440.72,577.55 432.07,562.54 470.7,490.12 
			470.99,489.57 470.99,489.56 478.42,475.64 		"/>
		<polygon class="st22" points="440.72,577.55 432.07,594.02 423.08,576.93 432.07,562.54 		"/>
	</g>
	<g>
		<polygon class="st125" points="840.5,474.88 840.5,498.17 806.72,562.23 759.18,474.9 		"/>
		<polygon class="st126" points="797.77,576.93 806.72,594.02 759.89,505.41 759.89,505.4 751.81,490.12 751.8,490.11 752.1,489.57 
			759.63,475.95 767.63,490.65 806.72,562.54 		"/>
		<polygon class="st126" points="840.5,498.87 840.5,529.64 806.72,594.02 815.32,577.55 806.72,562.54 		"/>
		<polygon class="st127" points="815.32,577.55 806.72,594.02 797.77,576.93 806.72,562.54 		"/>
	</g>
	<g>
		<polygon class="st66" points="759.49,474.87 713.18,562.22 665.39,474.9 		"/>
		<polygon class="st64" points="704.19,576.93 713.18,594.02 666.29,505.76 658.17,490.48 657.97,490.11 665.84,475.95 
			665.88,476.02 674.07,491.01 713.18,562.54 		"/>
		<polygon class="st64" points="767.74,490.59 767.71,490.65 759.93,505.4 713.18,594.02 721.83,577.55 713.18,562.54 
			751.81,490.12 752.1,489.57 759.53,475.64 		"/>
		<polygon class="st22" points="721.83,577.55 713.18,594.02 704.19,576.93 713.18,562.54 		"/>
	</g>
	<g>
		<polygon class="st66" points="197.28,474.87 150.97,562.22 103.17,474.9 		"/>
		<polygon class="st64" points="141.98,576.93 150.97,594.02 103.88,505.41 95.76,490.12 95.75,490.11 96.09,489.5 103.62,475.95 
			111.66,490.66 150.97,562.54 		"/>
		<polygon class="st64" points="205.53,490.59 205.49,490.66 197.71,505.41 150.97,594.02 159.62,577.55 150.97,562.54 
			189.59,490.12 189.92,489.5 197.31,475.64 		"/>
		<polygon class="st22" points="159.62,577.55 150.97,594.02 141.98,576.93 150.97,562.54 		"/>
	</g>
	<g>
		<polygon class="st65" points="291.11,474.87 244.8,562.22 197,474.9 		"/>
		<polygon class="st64" points="235.81,576.93 244.8,594.02 197.71,505.41 189.59,490.12 189.58,490.11 189.92,489.5 189.94,489.46 
			197.45,475.95 205.49,490.66 244.8,562.54 		"/>
		<polygon class="st64" points="299.36,490.59 299.32,490.66 291.54,505.41 244.8,594.02 253.45,577.55 244.8,562.54 283.42,490.12 
			283.73,489.54 283.75,489.5 291.14,475.64 		"/>
		<polygon class="st17" points="253.45,577.55 244.8,594.02 235.81,576.93 244.8,562.54 		"/>
	</g>
</g>
<g>
	<g>
		<line class="st13" x1="696.41" y1="386" x2="696.41" y2="474.03"/>
		<line class="st13" x1="697.16" y1="397.82" x2="708.28" y2="387.67"/>
		<line class="st13" x1="695.66" y1="405.79" x2="682.21" y2="392.68"/>
		<polyline class="st13" points="708.27,415.9 696.37,429.26 683.55,416.23 		"/>
		<line class="st13" x1="706.93" y1="440.12" x2="696.2" y2="448.89"/>
		<line class="st13" x1="682.55" y1="439.29" x2="695.95" y2="450.35"/>
		<polyline class="st13" points="681.54,457.66 696.58,470.02 708.44,456.49 		"/>
	</g>
	<g>
		<line class="st13" x1="728.96" y1="386" x2="728.96" y2="474.03"/>
		<line class="st13" x1="729.71" y1="397.82" x2="740.83" y2="387.67"/>
		<line class="st13" x1="728.21" y1="405.79" x2="714.76" y2="392.68"/>
		<polyline class="st13" points="740.82,415.9 728.92,429.26 716.1,416.23 		"/>
		<line class="st13" x1="739.49" y1="440.12" x2="728.75" y2="448.89"/>
		<line class="st13" x1="715.1" y1="439.29" x2="728.5" y2="450.35"/>
		<polyline class="st13" points="714.09,457.66 729.13,470.02 740.99,456.49 		"/>
	</g>
</g>
</svg>
