<?xml version="1.0" encoding="utf-8"?>
<!-- Generator: Adobe Illustrator 27.1.1, SVG Export Plug-In . SVG Version: 6.00 Build 0)  -->
<svg version="1.1" id="Layer_1" xmlns="http://www.w3.org/2000/svg" xmlns:xlink="http://www.w3.org/1999/xlink" x="0px" y="0px"
	 viewBox="0 0 841.89 595.28" style="enable-background:new 0 0 841.89 595.28;" xml:space="preserve">
<style type="text/css">
	.st0{fill:#D4D7EE;stroke:#010202;stroke-miterlimit:10;}
	.st1{fill:#FFFFFF;stroke:#010202;stroke-width:0.75;stroke-miterlimit:10;}
	.st2{fill:#179552;}
	.st3{fill:#C11A22;}
	.st4{fill:#FFFFFF;stroke:#010202;stroke-width:1.4583;stroke-miterlimit:10;}
	.st5{fill:#37AB4D;stroke:#010202;stroke-width:1.1973;stroke-miterlimit:10;}
	.st6{fill:#F7BA16;stroke:#010202;stroke-width:1.1973;stroke-miterlimit:10;}
	.st7{fill:#C11A22;stroke:#010202;stroke-width:1.1973;stroke-miterlimit:10;}
	.st8{fill:#FFFFFF;stroke:#010202;stroke-width:1.1726;stroke-miterlimit:10;}
	.st9{fill:#C11A22;stroke:#010202;stroke-width:1.438;stroke-miterlimit:10;}
	.st10{fill:#37AB4D;stroke:#010202;stroke-width:1.438;stroke-miterlimit:10;}
	.st11{fill:#F7BA16;stroke:#010202;stroke-width:1.438;stroke-miterlimit:10;}
	.st12{fill:#191919;stroke:#191919;stroke-miterlimit:10;}
	.st13{fill:none;stroke:#010202;stroke-width:3;stroke-linecap:round;stroke-linejoin:round;stroke-miterlimit:10;}
	.st14{fill:#C21A21;stroke:#010202;stroke-width:2;stroke-miterlimit:10;}
	.st15{fill:#FFFFFF;}
	.st16{fill:none;stroke:#010202;stroke-width:0.8258;stroke-miterlimit:10;}
	.st17{fill:#F7BA16;stroke:#010202;stroke-width:0.75;stroke-miterlimit:10;}
	.st18{fill:#C11A22;stroke:#010202;stroke-width:0.75;stroke-miterlimit:10;}
	.st19{fill:#FAEA2F;stroke:#010202;stroke-width:0.4937;stroke-miterlimit:10;}
	.st20{fill:#FFFFFF;stroke:#050707;stroke-width:0.4937;stroke-miterlimit:10;}
	.st21{fill:#E63329;stroke:#010202;stroke-width:0.1545;stroke-miterlimit:10;}
	.st22{fill:#37AB4D;stroke:#010202;stroke-width:0.75;stroke-miterlimit:10;}
	.st23{fill:#FCD802;stroke:#010202;stroke-width:1.4349;stroke-miterlimit:10;}
	.st24{fill:#FFFFFF;stroke:#010202;stroke-width:1.4349;stroke-miterlimit:10;}
	.st25{fill:none;stroke:#010202;stroke-width:1.4349;stroke-linecap:round;stroke-linejoin:round;stroke-miterlimit:10;}
	.st26{fill:#010202;}
	.st27{fill:#02A96B;stroke:#010202;stroke-width:0.75;stroke-miterlimit:10;}
	.st28{fill:#F7BA16;stroke:#010202;stroke-width:3.158;stroke-miterlimit:10;}
	.st29{fill:#FFFFFF;stroke:#010202;stroke-width:2.3588;stroke-miterlimit:10;}
	.st30{fill:#C21920;stroke:#010202;stroke-width:2.3588;stroke-miterlimit:10;}
	.st31{fill:#C21A21;stroke:#010202;stroke-width:1.1973;stroke-miterlimit:10;}
	.st32{fill:#70B966;stroke:#010202;stroke-miterlimit:10;}
	.st33{fill:#02A96B;}
	.st34{fill:#FFFFFF;stroke:#010202;stroke-width:2;stroke-miterlimit:10;}
	.st35{fill:#C21920;stroke:#010202;stroke-width:1.4407;stroke-miterlimit:10;}
	.st36{fill:#F8AB16;stroke:#010202;stroke-width:1.4407;stroke-miterlimit:10;}
	.st37{fill:#8E1963;stroke:#010202;stroke-width:1.4407;stroke-miterlimit:10;}
	.st38{fill:#FCD900;stroke:#010202;stroke-width:1.4407;stroke-miterlimit:10;}
	.st39{fill:#FFFFFF;stroke:#010202;stroke-width:1.8498;stroke-miterlimit:10;}
	.st40{fill:#8E1963;}
	.st41{fill:#8E1963;stroke:#010202;stroke-width:1.8764;stroke-miterlimit:10;}
	.st42{fill:#8E1963;stroke:#010202;stroke-width:1.4015;stroke-miterlimit:10;}
	.st43{fill:none;stroke:#010202;stroke-width:1.4015;stroke-linecap:round;stroke-linejoin:round;stroke-miterlimit:10;}
	.st44{fill:#C21920;stroke:#010202;stroke-width:1.8125;stroke-miterlimit:10;}
	.st45{fill:#FFFFFF;stroke:#010202;stroke-width:1.8478;stroke-miterlimit:10;}
	.st46{fill:#C21920;}
	.st47{fill:#F8AB16;stroke:#010202;stroke-width:1.7687;stroke-miterlimit:10;}
	.st48{fill:#F8AB16;}
	.st49{fill:#FCD900;}
	.st50{fill:none;stroke:#010202;stroke-width:1.6344;stroke-miterlimit:10;}
	.st51{fill:#FCD900;stroke:#010202;stroke-width:1.6344;stroke-miterlimit:10;}
	.st52{fill:#FFFFFF;stroke:#010202;stroke-width:0.9824;stroke-miterlimit:10;}
	.st53{fill:#C21920;stroke:#010202;stroke-width:0.4912;stroke-miterlimit:10;}
	.st54{fill:#8E1963;stroke:#010202;stroke-width:0.4912;stroke-miterlimit:10;}
	.st55{fill:#F8AB16;stroke:#010202;stroke-width:0.4912;stroke-miterlimit:10;}
	.st56{fill:#FFFFFF;stroke:#010202;stroke-width:2.0587;stroke-miterlimit:10;}
	.st57{fill:#8E1963;stroke:#010202;stroke-width:2.0883;stroke-miterlimit:10;}
	.st58{fill:#8E1963;stroke:#010202;stroke-width:1.5598;stroke-miterlimit:10;}
	.st59{fill:none;stroke:#010202;stroke-width:1.5598;stroke-linecap:round;stroke-linejoin:round;stroke-miterlimit:10;}
	.st60{fill:#C21920;stroke:#010202;stroke-width:2.0171;stroke-miterlimit:10;}
	.st61{fill:#FFFFFF;stroke:#010202;stroke-width:2.0565;stroke-miterlimit:10;}
	.st62{fill:#F8AB16;stroke:#010202;stroke-width:1.9685;stroke-miterlimit:10;}
	.st63{fill:#C11A22;stroke:#010202;stroke-width:2.0446;stroke-miterlimit:10;}
	.st64{fill:none;stroke:#010202;stroke-width:1.1741;stroke-miterlimit:10;}
	.st65{fill:#F7BA16;stroke:#010202;stroke-width:2.0446;stroke-miterlimit:10;}
	.st66{fill:#37AB4D;stroke:#010202;stroke-width:2.0446;stroke-miterlimit:10;}
	.st67{fill:#FFFFFF;stroke:#010202;stroke-width:1.3431;stroke-miterlimit:10;}
	.st68{fill:#FFFFFF;stroke:#010202;stroke-width:0.6716;stroke-miterlimit:10;}
	.st69{fill:#C21920;stroke:#010202;stroke-width:0.3358;stroke-miterlimit:10;}
	.st70{fill:#C21920;stroke:#010202;stroke-width:1.3431;stroke-miterlimit:10;}
	.st71{fill:#FFFFFF;stroke:#010202;stroke-width:1.3076;stroke-miterlimit:10;}
	.st72{fill:#C21920;stroke:#010202;stroke-width:1.3863;stroke-miterlimit:10;}
	.st73{fill:#FFFFFF;stroke:#010202;stroke-width:1.4948;stroke-miterlimit:10;}
	.st74{fill:#FFFFFF;stroke:#010202;stroke-width:0.7474;stroke-miterlimit:10;}
	.st75{fill:#C21920;stroke:#010202;stroke-width:0.3737;stroke-miterlimit:10;}
	.st76{fill:#C21920;stroke:#010202;stroke-width:1.4662;stroke-miterlimit:10;}
	.st77{fill:#F8AB16;stroke:#010202;stroke-width:0.3791;stroke-miterlimit:10;}
	.st78{fill:#F8AB16;stroke:#010202;stroke-width:1.4308;stroke-miterlimit:10;}
	.st79{fill:none;stroke:#010202;stroke-width:1.3222;stroke-miterlimit:10;}
	.st80{fill:#FCD900;stroke:#010202;stroke-width:0.3791;stroke-miterlimit:10;}
	.st81{fill:#FCD900;stroke:#010202;stroke-width:1.3222;stroke-miterlimit:10;}
	.st82{fill:#8E1963;stroke:#010202;stroke-width:0.3791;stroke-miterlimit:10;}
	.st83{fill:#8E1963;stroke:#010202;stroke-width:1.5163;stroke-miterlimit:10;}
	.st84{fill:#8E1963;stroke:#010202;stroke-width:1.1325;stroke-miterlimit:10;}
	.st85{fill:none;stroke:#010202;stroke-width:1.1325;stroke-linecap:round;stroke-linejoin:round;stroke-miterlimit:10;}
	.st86{fill:#FFFFFF;stroke:#010202;stroke-width:1.4206;stroke-miterlimit:10;}
	.st87{fill:#FFFFFF;stroke:#010202;stroke-width:0.7103;stroke-miterlimit:10;}
	.st88{fill:#C21920;stroke:#010202;stroke-width:0.3551;stroke-miterlimit:10;}
	.st89{fill:#C21920;stroke:#010202;stroke-width:1.4206;stroke-miterlimit:10;}
	.st90{fill:#FFFFFF;stroke:#010202;stroke-width:1.383;stroke-miterlimit:10;}
	.st91{fill:#FAEA2F;stroke:#010202;stroke-width:0.3551;stroke-miterlimit:10;}
	.st92{fill:#F8AB16;stroke:#010202;stroke-width:1.4205;stroke-miterlimit:10;}
	.st93{fill:#8E1963;stroke:#010202;stroke-width:1.6044;stroke-miterlimit:10;}
	.st94{fill:none;stroke:#010202;stroke-width:1.6044;stroke-linecap:round;stroke-linejoin:round;stroke-miterlimit:10;}
	.st95{fill:#FCD900;stroke:#010202;stroke-width:1.6789;stroke-miterlimit:10;}
	.st96{fill:#37AB4D;stroke:#010202;stroke-width:2;stroke-miterlimit:10;}
	.st97{fill:#C21920;stroke:#010202;stroke-width:1.7323;stroke-miterlimit:10;}
	.st98{fill:none;stroke:#C21A21;stroke-width:3.8955;stroke-linecap:round;stroke-linejoin:round;stroke-miterlimit:10;}
	.st99{fill:#333333;}
	.st100{fill:#FCD901;stroke:#010202;stroke-width:1.3419;stroke-miterlimit:10;}
	.st101{fill:#8E1963;stroke:#010202;stroke-width:1.216;stroke-miterlimit:10;}
	.st102{fill:none;stroke:#010202;stroke-width:1.216;stroke-linecap:round;stroke-linejoin:round;stroke-miterlimit:10;}
	.st103{fill:#F8AB16;stroke:#010202;stroke-width:1.5252;stroke-miterlimit:10;}
	.st104{opacity:0.52;fill:#7A8084;}
	.st105{fill:#2856A2;stroke:#010202;stroke-width:0.8146;stroke-miterlimit:10;}
	.st106{fill:#FFFFFF;stroke:#010202;stroke-width:0.3123;stroke-miterlimit:10;}
	.st107{fill:#FFFFFF;stroke:#010202;stroke-width:0.0923;stroke-miterlimit:10;}
	.st108{fill:#F7BA16;stroke:#010202;stroke-width:0.0612;stroke-miterlimit:10;}
	.st109{fill:#E63329;stroke:#010202;stroke-width:0.0612;stroke-miterlimit:10;}
	.st110{fill:#37AB4D;stroke:#010202;stroke-width:0.0612;stroke-miterlimit:10;}
	.st111{fill:#FFFFFF;stroke:#010202;stroke-width:0.0764;stroke-miterlimit:10;}
	.st112{fill:#F7BA16;stroke:#010202;stroke-width:0.0506;stroke-miterlimit:10;}
	.st113{fill:#E63329;stroke:#010202;stroke-width:0.0506;stroke-miterlimit:10;}
	.st114{fill:#37AB4D;stroke:#010202;stroke-width:0.0506;stroke-miterlimit:10;}
	.st115{fill:#179552;stroke:#010202;stroke-width:0.8326;stroke-miterlimit:10;}
	.st116{fill:#F7BA16;stroke:#010202;stroke-width:0.8146;stroke-miterlimit:10;}
	.st117{fill:#FFFFFF;stroke:#010202;stroke-width:0.4197;stroke-miterlimit:10;}
	.st118{fill:#E73836;stroke:#010202;stroke-width:0.1809;stroke-miterlimit:10;}
	.st119{fill:#D4D7EE;stroke:#010202;stroke-width:1.001;stroke-miterlimit:10;}
	.st120{fill:#FFFFFF;stroke:#010202;stroke-width:1.1881;stroke-miterlimit:10;}
	.st121{fill:#FFFFFF;stroke:#191919;stroke-width:0.9977;stroke-miterlimit:10;}
	.st122{fill:#C11A21;}
	.st123{fill:#2957A2;}
	.st124{fill:#D4D7EE;stroke:#010202;stroke-width:0.8539;stroke-miterlimit:10;}
	.st125{fill:#F7BA16;stroke:#010202;stroke-width:2.0392;stroke-miterlimit:10;}
	.st126{fill:none;stroke:#010202;stroke-width:1.171;stroke-miterlimit:10;}
	.st127{fill:#F7BA16;stroke:#010202;stroke-width:0.748;stroke-miterlimit:10;}
	.st128{fill:none;stroke:#010202;stroke-width:0.4027;stroke-miterlimit:10;}
	.st129{fill:#C11A22;stroke:#010202;stroke-width:0.3652;stroke-miterlimit:10;}
	.st130{fill:#C11A22;stroke:#010202;stroke-width:0.7033;stroke-miterlimit:10;}
</style>
<rect x="-0.5" y="-1.8" class="st0" width="841.19" height="595.74"/>
<g>
	<rect x="-0.47" y="-1.86" class="st4" width="841.6" height="16.26"/>
	<polygon class="st5" points="457.18,14.54 421.25,14.54 410.59,-1.86 467.84,-1.86 	"/>
	<polygon class="st6" points="352.32,14.54 316.39,14.54 305.73,-1.86 362.97,-1.86 	"/>
	<polygon class="st7" points="247.45,14.54 211.53,14.54 200.87,-1.86 258.11,-1.86 	"/>
	<polygon class="st5" points="762.03,14.54 726.1,14.54 715.44,-1.86 772.69,-1.86 	"/>
	<polygon class="st7" points="841.13,14.54 825.34,14.54 814.68,-1.86 841.47,-1.86 	"/>
	<polygon class="st6" points="657.17,14.54 621.24,14.54 610.58,-1.86 667.83,-1.86 	"/>
	<polygon class="st7" points="552.31,14.54 516.38,14.54 505.72,-1.86 562.96,-1.86 	"/>
	<polygon class="st5" points="142.59,14.54 106.66,14.54 96.01,-1.86 153.25,-1.86 	"/>
	<polygon class="st6" points="-0.47,11.03 -0.47,-1.86 48.39,-1.86 37.82,14.4 37.73,14.54 1.8,14.54 1.72,14.4 	"/>
</g>
<g>
	<g>
		<g>
			<rect x="0.09" y="483.31" class="st34" width="288.32" height="111.06"/>
			<rect x="573.34" y="483.31" class="st34" width="267.38" height="111.06"/>
		</g>
		<polygon class="st9" points="21.23,483.26 67.87,483.26 86.94,594.45 0.47,594.45 		"/>
		<polygon class="st10" points="118,483.26 164.64,483.26 183.7,594.45 97.23,594.45 		"/>
		<polygon class="st11" points="214.77,483.26 261.4,483.26 280.47,594.45 194,594.45 		"/>
		<polygon class="st9" points="601.83,483.26 648.47,483.26 667.53,594.45 581.06,594.45 		"/>
		<polygon class="st10" points="698.6,483.26 745.23,483.26 764.3,594.45 677.83,594.45 		"/>
		<polygon class="st11" points="795.36,483.26 842,483.26 841.47,594.45 774.6,594.45 		"/>
	</g>
	<polygon class="st12" points="573.34,509.28 573.34,595.14 288.41,595.14 288.41,509.28 293.3,509.28 331.95,582.02 364.83,519.7 
		397.94,582.02 430.82,519.7 463.94,582.02 496.81,519.7 529.93,582.02 568.3,509.28 	"/>
</g>
<g>
	<line class="st13" x1="163.25" y1="393.59" x2="163.25" y2="481.62"/>
	<line class="st13" x1="164" y1="405.41" x2="175.12" y2="395.26"/>
	<line class="st13" x1="162.5" y1="413.38" x2="149.05" y2="400.27"/>
	<polyline class="st13" points="175.11,423.49 163.21,436.85 150.39,423.82 	"/>
	<line class="st13" x1="173.77" y1="447.71" x2="163.04" y2="456.48"/>
	<line class="st13" x1="149.38" y1="446.87" x2="162.79" y2="457.94"/>
	<polyline class="st13" points="148.38,465.25 163.42,477.61 175.28,464.08 	"/>
</g>
<g>
	<line class="st13" x1="195.8" y1="393.59" x2="195.8" y2="481.62"/>
	<line class="st13" x1="196.55" y1="405.41" x2="207.67" y2="395.26"/>
	<line class="st13" x1="195.05" y1="413.38" x2="181.6" y2="400.27"/>
	<polyline class="st13" points="207.66,423.49 195.76,436.85 182.94,423.82 	"/>
	<line class="st13" x1="206.32" y1="447.71" x2="195.59" y2="456.48"/>
	<line class="st13" x1="181.94" y1="446.87" x2="195.34" y2="457.94"/>
	<polyline class="st13" points="180.93,465.25 195.97,477.61 207.83,464.08 	"/>
</g>
<g>
	<g>
		<g>
			<path class="st9" d="M364.52,423.48l-32.57,61.44l-32.93-60.16c-0.31-0.57,0.1-1.26,0.75-1.26L364.52,423.48z"/>
			<polygon class="st16" points="325.62,495.25 331.95,507.27 293.11,434.2 298.65,424.23 331.95,485.13 			"/>
			<polygon class="st16" points="370.32,434.53 370.3,434.57 364.82,444.95 331.95,507.27 338.03,495.69 331.95,485.13 
				359.11,434.2 359.14,434.15 364.54,424.02 			"/>
			<polygon class="st18" points="338.03,495.69 331.95,507.27 325.62,495.25 331.95,485.13 			"/>
		</g>
		<g>
			<polygon class="st10" points="430.51,423.48 397.94,484.91 364.33,423.5 			"/>
			<polygon class="st16" points="391.61,495.25 397.94,507.27 364.82,444.95 359.11,434.2 359.2,434.05 364.64,424.23 370.3,434.57 
				370.3,434.58 397.94,485.13 			"/>
			<polygon class="st16" points="436.31,434.53 436.29,434.57 430.81,444.95 397.94,507.27 404.02,495.69 397.94,485.13 
				425.1,434.2 425.13,434.15 430.53,424.02 			"/>
			<polygon class="st22" points="404.02,495.69 397.94,507.27 391.61,495.25 397.94,485.13 			"/>
		</g>
		<g>
			<polygon class="st11" points="496.5,423.48 463.93,484.91 430.32,423.5 			"/>
			<polygon class="st16" points="457.6,495.25 463.93,507.27 430.81,444.95 425.1,434.2 425.19,434.05 430.63,424.23 436.29,434.57 
				436.29,434.58 463.93,485.13 			"/>
			<polygon class="st16" points="502.3,434.53 502.28,434.57 496.8,444.95 463.93,507.27 470.01,495.69 463.93,485.13 491.09,434.2 
				491.12,434.15 496.52,424.02 			"/>
			<polygon class="st17" points="470.01,495.69 463.93,507.27 457.6,495.25 463.93,485.13 			"/>
		</g>
		<g>
			<path class="st9" d="M562.06,424.3l-32.13,60.61l-33.61-61.42l65.26-0.02C561.99,423.48,562.26,423.93,562.06,424.3z"/>
			<polygon class="st16" points="523.6,495.25 529.92,507.27 496.8,444.95 491.09,434.2 491.12,434.15 496.62,424.23 502.28,434.57 
				529.92,485.13 			"/>
			<polygon class="st16" points="568.29,434.53 529.92,507.27 536,495.69 529.92,485.13 562.52,424.02 			"/>
			<polygon class="st18" points="536,495.69 529.92,507.27 523.6,495.25 529.92,485.13 			"/>
		</g>
	</g>
</g>
</svg>
