<?xml version="1.0" encoding="utf-8"?>
<!-- Generator: Adobe Illustrator 27.1.1, SVG Export Plug-In . SVG Version: 6.00 Build 0)  -->
<svg version="1.1" id="Layer_1" xmlns="http://www.w3.org/2000/svg" xmlns:xlink="http://www.w3.org/1999/xlink" x="0px" y="0px"
	 viewBox="0 0 841.89 595.28" style="enable-background:new 0 0 841.89 595.28;" xml:space="preserve">
<style type="text/css">
	.st0{fill:#D4D7EE;stroke:#010202;stroke-miterlimit:10;}
	.st1{fill:#FFFFFF;stroke:#010202;stroke-width:0.75;stroke-miterlimit:10;}
	.st2{fill:#179552;}
	.st3{fill:#C11A22;}
	.st4{fill:#FFFFFF;stroke:#010202;stroke-width:1.4583;stroke-miterlimit:10;}
	.st5{fill:#37AB4D;stroke:#010202;stroke-width:1.1973;stroke-miterlimit:10;}
	.st6{fill:#F7BA16;stroke:#010202;stroke-width:1.1973;stroke-miterlimit:10;}
	.st7{fill:#C11A22;stroke:#010202;stroke-width:1.1973;stroke-miterlimit:10;}
	.st8{fill:#FFFFFF;stroke:#010202;stroke-width:1.1726;stroke-miterlimit:10;}
	.st9{fill:#C11A22;stroke:#010202;stroke-width:1.438;stroke-miterlimit:10;}
	.st10{fill:#37AB4D;stroke:#010202;stroke-width:1.438;stroke-miterlimit:10;}
	.st11{fill:#F7BA16;stroke:#010202;stroke-width:1.438;stroke-miterlimit:10;}
	.st12{fill:#191919;stroke:#191919;stroke-miterlimit:10;}
	.st13{fill:none;stroke:#010202;stroke-width:3;stroke-linecap:round;stroke-linejoin:round;stroke-miterlimit:10;}
	.st14{fill:#C21A21;stroke:#010202;stroke-width:2;stroke-miterlimit:10;}
	.st15{fill:#FFFFFF;}
	.st16{fill:none;stroke:#010202;stroke-width:0.8258;stroke-miterlimit:10;}
	.st17{fill:#F7BA16;stroke:#010202;stroke-width:0.75;stroke-miterlimit:10;}
	.st18{fill:#C11A22;stroke:#010202;stroke-width:0.75;stroke-miterlimit:10;}
	.st19{fill:#FAEA2F;stroke:#010202;stroke-width:0.4937;stroke-miterlimit:10;}
	.st20{fill:#FFFFFF;stroke:#050707;stroke-width:0.4937;stroke-miterlimit:10;}
	.st21{fill:#E63329;stroke:#010202;stroke-width:0.1545;stroke-miterlimit:10;}
	.st22{fill:#37AB4D;stroke:#010202;stroke-width:0.75;stroke-miterlimit:10;}
	.st23{fill:#FCD802;stroke:#010202;stroke-width:1.4349;stroke-miterlimit:10;}
	.st24{fill:#FFFFFF;stroke:#010202;stroke-width:1.4349;stroke-miterlimit:10;}
	.st25{fill:none;stroke:#010202;stroke-width:1.4349;stroke-linecap:round;stroke-linejoin:round;stroke-miterlimit:10;}
	.st26{fill:#010202;}
	.st27{fill:#02A96B;stroke:#010202;stroke-width:0.75;stroke-miterlimit:10;}
	.st28{fill:#F7BA16;stroke:#010202;stroke-width:3.158;stroke-miterlimit:10;}
	.st29{fill:#FFFFFF;stroke:#010202;stroke-width:2.3588;stroke-miterlimit:10;}
	.st30{fill:#C21920;stroke:#010202;stroke-width:2.3588;stroke-miterlimit:10;}
	.st31{fill:#C21A21;stroke:#010202;stroke-width:1.1973;stroke-miterlimit:10;}
	.st32{fill:#70B966;stroke:#010202;stroke-miterlimit:10;}
	.st33{fill:#02A96B;}
	.st34{fill:#FFFFFF;stroke:#010202;stroke-width:2;stroke-miterlimit:10;}
	.st35{fill:#C21920;stroke:#010202;stroke-width:1.4407;stroke-miterlimit:10;}
	.st36{fill:#F8AB16;stroke:#010202;stroke-width:1.4407;stroke-miterlimit:10;}
	.st37{fill:#8E1963;stroke:#010202;stroke-width:1.4407;stroke-miterlimit:10;}
	.st38{fill:#FCD900;stroke:#010202;stroke-width:1.4407;stroke-miterlimit:10;}
	.st39{fill:#FFFFFF;stroke:#010202;stroke-width:1.8498;stroke-miterlimit:10;}
	.st40{fill:#8E1963;}
	.st41{fill:#8E1963;stroke:#010202;stroke-width:1.8764;stroke-miterlimit:10;}
	.st42{fill:#8E1963;stroke:#010202;stroke-width:1.4015;stroke-miterlimit:10;}
	.st43{fill:none;stroke:#010202;stroke-width:1.4015;stroke-linecap:round;stroke-linejoin:round;stroke-miterlimit:10;}
	.st44{fill:#C21920;stroke:#010202;stroke-width:1.8125;stroke-miterlimit:10;}
	.st45{fill:#FFFFFF;stroke:#010202;stroke-width:1.8478;stroke-miterlimit:10;}
	.st46{fill:#C21920;}
	.st47{fill:#F8AB16;stroke:#010202;stroke-width:1.7687;stroke-miterlimit:10;}
	.st48{fill:#F8AB16;}
	.st49{fill:#FCD900;}
	.st50{fill:none;stroke:#010202;stroke-width:1.6344;stroke-miterlimit:10;}
	.st51{fill:#FCD900;stroke:#010202;stroke-width:1.6344;stroke-miterlimit:10;}
	.st52{fill:#FFFFFF;stroke:#010202;stroke-width:0.9824;stroke-miterlimit:10;}
	.st53{fill:#C21920;stroke:#010202;stroke-width:0.4912;stroke-miterlimit:10;}
	.st54{fill:#8E1963;stroke:#010202;stroke-width:0.4912;stroke-miterlimit:10;}
	.st55{fill:#F8AB16;stroke:#010202;stroke-width:0.4912;stroke-miterlimit:10;}
	.st56{fill:#FFFFFF;stroke:#010202;stroke-width:2.0587;stroke-miterlimit:10;}
	.st57{fill:#8E1963;stroke:#010202;stroke-width:2.0883;stroke-miterlimit:10;}
	.st58{fill:#8E1963;stroke:#010202;stroke-width:1.5598;stroke-miterlimit:10;}
	.st59{fill:none;stroke:#010202;stroke-width:1.5598;stroke-linecap:round;stroke-linejoin:round;stroke-miterlimit:10;}
	.st60{fill:#C21920;stroke:#010202;stroke-width:2.0171;stroke-miterlimit:10;}
	.st61{fill:#FFFFFF;stroke:#010202;stroke-width:2.0565;stroke-miterlimit:10;}
	.st62{fill:#F8AB16;stroke:#010202;stroke-width:1.9685;stroke-miterlimit:10;}
	.st63{fill:#C11A22;stroke:#010202;stroke-width:2.0446;stroke-miterlimit:10;}
	.st64{fill:none;stroke:#010202;stroke-width:1.1741;stroke-miterlimit:10;}
	.st65{fill:#F7BA16;stroke:#010202;stroke-width:2.0446;stroke-miterlimit:10;}
	.st66{fill:#37AB4D;stroke:#010202;stroke-width:2.0446;stroke-miterlimit:10;}
	.st67{fill:#FFFFFF;stroke:#010202;stroke-width:1.3431;stroke-miterlimit:10;}
	.st68{fill:#FFFFFF;stroke:#010202;stroke-width:0.6716;stroke-miterlimit:10;}
	.st69{fill:#C21920;stroke:#010202;stroke-width:0.3358;stroke-miterlimit:10;}
	.st70{fill:#C21920;stroke:#010202;stroke-width:1.3431;stroke-miterlimit:10;}
	.st71{fill:#FFFFFF;stroke:#010202;stroke-width:1.3076;stroke-miterlimit:10;}
	.st72{fill:#C21920;stroke:#010202;stroke-width:1.3863;stroke-miterlimit:10;}
	.st73{fill:#FFFFFF;stroke:#010202;stroke-width:1.4948;stroke-miterlimit:10;}
	.st74{fill:#FFFFFF;stroke:#010202;stroke-width:0.7474;stroke-miterlimit:10;}
	.st75{fill:#C21920;stroke:#010202;stroke-width:0.3737;stroke-miterlimit:10;}
	.st76{fill:#C21920;stroke:#010202;stroke-width:1.4662;stroke-miterlimit:10;}
	.st77{fill:#F8AB16;stroke:#010202;stroke-width:0.3791;stroke-miterlimit:10;}
	.st78{fill:#F8AB16;stroke:#010202;stroke-width:1.4308;stroke-miterlimit:10;}
	.st79{fill:none;stroke:#010202;stroke-width:1.3222;stroke-miterlimit:10;}
	.st80{fill:#FCD900;stroke:#010202;stroke-width:0.3791;stroke-miterlimit:10;}
	.st81{fill:#FCD900;stroke:#010202;stroke-width:1.3222;stroke-miterlimit:10;}
	.st82{fill:#8E1963;stroke:#010202;stroke-width:0.3791;stroke-miterlimit:10;}
	.st83{fill:#8E1963;stroke:#010202;stroke-width:1.5163;stroke-miterlimit:10;}
	.st84{fill:#8E1963;stroke:#010202;stroke-width:1.1325;stroke-miterlimit:10;}
	.st85{fill:none;stroke:#010202;stroke-width:1.1325;stroke-linecap:round;stroke-linejoin:round;stroke-miterlimit:10;}
	.st86{fill:#FFFFFF;stroke:#010202;stroke-width:1.4206;stroke-miterlimit:10;}
	.st87{fill:#FFFFFF;stroke:#010202;stroke-width:0.7103;stroke-miterlimit:10;}
	.st88{fill:#C21920;stroke:#010202;stroke-width:0.3551;stroke-miterlimit:10;}
	.st89{fill:#C21920;stroke:#010202;stroke-width:1.4206;stroke-miterlimit:10;}
	.st90{fill:#FFFFFF;stroke:#010202;stroke-width:1.383;stroke-miterlimit:10;}
	.st91{fill:#FAEA2F;stroke:#010202;stroke-width:0.3551;stroke-miterlimit:10;}
	.st92{fill:#F8AB16;stroke:#010202;stroke-width:1.4205;stroke-miterlimit:10;}
	.st93{fill:#8E1963;stroke:#010202;stroke-width:1.6044;stroke-miterlimit:10;}
	.st94{fill:none;stroke:#010202;stroke-width:1.6044;stroke-linecap:round;stroke-linejoin:round;stroke-miterlimit:10;}
	.st95{fill:#FCD900;stroke:#010202;stroke-width:1.6789;stroke-miterlimit:10;}
	.st96{fill:#37AB4D;stroke:#010202;stroke-width:2;stroke-miterlimit:10;}
	.st97{fill:#C21920;stroke:#010202;stroke-width:1.7323;stroke-miterlimit:10;}
	.st98{fill:none;stroke:#C21A21;stroke-width:3.8955;stroke-linecap:round;stroke-linejoin:round;stroke-miterlimit:10;}
	.st99{fill:#333333;}
	.st100{fill:#FCD901;stroke:#010202;stroke-width:1.3419;stroke-miterlimit:10;}
	.st101{fill:#8E1963;stroke:#010202;stroke-width:1.216;stroke-miterlimit:10;}
	.st102{fill:none;stroke:#010202;stroke-width:1.216;stroke-linecap:round;stroke-linejoin:round;stroke-miterlimit:10;}
	.st103{fill:#F8AB16;stroke:#010202;stroke-width:1.5252;stroke-miterlimit:10;}
	.st104{opacity:0.52;fill:#7A8084;}
	.st105{fill:#2856A2;stroke:#010202;stroke-width:0.8146;stroke-miterlimit:10;}
	.st106{fill:#FFFFFF;stroke:#010202;stroke-width:0.3123;stroke-miterlimit:10;}
	.st107{fill:#FFFFFF;stroke:#010202;stroke-width:0.0923;stroke-miterlimit:10;}
	.st108{fill:#F7BA16;stroke:#010202;stroke-width:0.0612;stroke-miterlimit:10;}
	.st109{fill:#E63329;stroke:#010202;stroke-width:0.0612;stroke-miterlimit:10;}
	.st110{fill:#37AB4D;stroke:#010202;stroke-width:0.0612;stroke-miterlimit:10;}
	.st111{fill:#FFFFFF;stroke:#010202;stroke-width:0.0764;stroke-miterlimit:10;}
	.st112{fill:#F7BA16;stroke:#010202;stroke-width:0.0506;stroke-miterlimit:10;}
	.st113{fill:#E63329;stroke:#010202;stroke-width:0.0506;stroke-miterlimit:10;}
	.st114{fill:#37AB4D;stroke:#010202;stroke-width:0.0506;stroke-miterlimit:10;}
	.st115{fill:#179552;stroke:#010202;stroke-width:0.8326;stroke-miterlimit:10;}
	.st116{fill:#F7BA16;stroke:#010202;stroke-width:0.8146;stroke-miterlimit:10;}
	.st117{fill:#FFFFFF;stroke:#010202;stroke-width:0.4197;stroke-miterlimit:10;}
	.st118{fill:#E73836;stroke:#010202;stroke-width:0.1809;stroke-miterlimit:10;}
	.st119{fill:#D4D7EE;stroke:#010202;stroke-width:1.001;stroke-miterlimit:10;}
	.st120{fill:#FFFFFF;stroke:#010202;stroke-width:1.1881;stroke-miterlimit:10;}
	.st121{fill:#FFFFFF;stroke:#191919;stroke-width:0.9977;stroke-miterlimit:10;}
	.st122{fill:#C11A21;}
	.st123{fill:#2957A2;}
	.st124{fill:#D4D7EE;stroke:#010202;stroke-width:0.8539;stroke-miterlimit:10;}
	.st125{fill:#F7BA16;stroke:#010202;stroke-width:2.0392;stroke-miterlimit:10;}
	.st126{fill:none;stroke:#010202;stroke-width:1.171;stroke-miterlimit:10;}
	.st127{fill:#F7BA16;stroke:#010202;stroke-width:0.748;stroke-miterlimit:10;}
	.st128{fill:none;stroke:#010202;stroke-width:0.4027;stroke-miterlimit:10;}
	.st129{fill:#C11A22;stroke:#010202;stroke-width:0.3652;stroke-miterlimit:10;}
	.st130{fill:#C11A22;stroke:#010202;stroke-width:0.7033;stroke-miterlimit:10;}
</style>
<rect x="-0.1" y="-1.94" class="st0" width="841.19" height="595.74"/>
<g>
	<rect x="-0.07" y="-2.01" class="st4" width="841.6" height="16.26"/>
	<polygon class="st5" points="457.58,14.4 421.65,14.4 411,-2.01 468.24,-2.01 	"/>
	<polygon class="st6" points="352.72,14.4 316.79,14.4 306.13,-2.01 363.38,-2.01 	"/>
	<polygon class="st7" points="247.86,14.4 211.93,14.4 201.27,-2.01 258.52,-2.01 	"/>
	<polygon class="st5" points="762.43,14.4 726.51,14.4 715.85,-2.01 773.09,-2.01 	"/>
	<polygon class="st7" points="841.53,14.4 825.74,14.4 815.08,-2.01 841.87,-2.01 	"/>
	<polygon class="st6" points="657.57,14.4 621.64,14.4 610.99,-2.01 668.23,-2.01 	"/>
	<polygon class="st7" points="552.71,14.4 516.78,14.4 506.12,-2.01 563.37,-2.01 	"/>
	<polygon class="st5" points="143,14.4 107.07,14.4 96.41,-2.01 153.65,-2.01 	"/>
	<polygon class="st6" points="-0.07,10.89 -0.07,-2.01 48.79,-2.01 38.22,14.26 38.13,14.4 2.21,14.4 2.12,14.26 	"/>
</g>
<g>
	<g>
		<g>
			<rect x="0.5" y="483.16" class="st8" width="288.98" height="111.07"/>
		</g>
		<polygon class="st9" points="21.64,483.12 68.28,483.12 87.34,594.31 0.87,594.31 		"/>
		<polygon class="st10" points="118.4,483.12 165.04,483.12 184.11,594.31 97.64,594.31 		"/>
		<polygon class="st11" points="215.17,483.12 261.81,483.12 280.87,594.31 194.4,594.31 		"/>
	</g>
	<polygon class="st12" points="841.99,508.81 841.99,594.99 288.81,594.99 288.81,594.23 289.48,594.23 289.48,508.81 
		289.51,508.81 328.17,581.55 366.54,508.81 421.5,508.81 460.15,581.55 493.03,519.23 526.14,581.55 564.51,508.81 566.17,508.81 
		604.82,581.55 643.19,508.81 763.14,508.81 801.79,581.55 840.17,508.81 	"/>
</g>
<g>
	<g>
		<line class="st13" x1="61.52" y1="393.45" x2="61.52" y2="481.48"/>
		<line class="st13" x1="62.28" y1="405.26" x2="73.4" y2="395.12"/>
		<line class="st13" x1="60.77" y1="413.24" x2="47.33" y2="400.13"/>
		<polyline class="st13" points="73.38,423.35 61.48,436.71 48.66,423.68 		"/>
		<line class="st13" x1="72.05" y1="447.57" x2="61.32" y2="456.34"/>
		<line class="st13" x1="47.66" y1="446.73" x2="61.07" y2="457.8"/>
		<polyline class="st13" points="46.66,465.11 61.69,477.47 73.55,463.94 		"/>
	</g>
	<g>
		<line class="st13" x1="94.08" y1="393.45" x2="94.08" y2="481.48"/>
		<line class="st13" x1="94.83" y1="405.26" x2="105.95" y2="395.12"/>
		<line class="st13" x1="93.33" y1="413.24" x2="79.88" y2="400.13"/>
		<polyline class="st13" points="105.94,423.35 94.04,436.71 81.21,423.68 		"/>
		<line class="st13" x1="104.6" y1="447.57" x2="93.87" y2="456.34"/>
		<line class="st13" x1="80.21" y1="446.73" x2="93.62" y2="457.8"/>
		<polyline class="st13" points="79.21,465.11 94.24,477.47 106.1,463.94 		"/>
	</g>
</g>
<g>
	<g>
		<path class="st11" d="M828.94,299.19l-32.15,60.65l-32.85-60.02c-0.34-0.63,0.11-1.4,0.83-1.4l63.7-0.02
			C828.87,298.4,829.13,298.83,828.94,299.19z"/>
		<polygon class="st16" points="790.47,370.18 796.79,382.2 757.96,309.12 763.5,299.16 796.79,360.06 		"/>
		<polygon class="st16" points="835.17,309.46 796.79,382.2 802.88,370.62 796.79,360.06 829.39,298.94 		"/>
		<polygon class="st17" points="802.88,370.62 796.79,382.2 790.47,370.18 796.79,360.06 		"/>
	</g>
	<g>
		<path class="st9" d="M644.92,299.2l-32.15,60.64l-32.87-60.06c-0.33-0.61,0.11-1.35,0.8-1.35l63.74-0.02
			C644.85,298.4,645.11,298.84,644.92,299.2z"/>
		<polygon class="st16" points="606.44,370.18 612.77,382.2 573.94,309.12 579.47,299.16 612.77,360.06 		"/>
		<polygon class="st16" points="651.14,309.46 612.77,382.2 618.85,370.62 612.77,360.06 645.36,298.94 		"/>
		<polygon class="st18" points="618.85,370.62 612.77,382.2 606.44,370.18 612.77,360.06 		"/>
	</g>
</g>
<g>
	<g>
		<path class="st11" d="M561.5,401.89l-32.15,60.65l-32.85-60.02c-0.34-0.63,0.11-1.4,0.83-1.4l63.7-0.02
			C561.43,401.11,561.69,401.54,561.5,401.89z"/>
		<polygon class="st16" points="523.02,472.88 529.34,484.9 490.51,411.82 496.05,401.86 529.34,462.76 		"/>
		<polygon class="st16" points="567.72,412.16 529.34,484.9 535.43,473.32 529.34,462.76 561.94,401.64 		"/>
		<polygon class="st17" points="535.43,473.32 529.34,484.9 523.02,472.88 529.34,462.76 		"/>
	</g>
	<g>
		<path class="st9" d="M364.52,401.9l-32.15,60.64l-32.87-60.06c-0.33-0.61,0.11-1.35,0.8-1.35l63.74-0.02
			C364.45,401.11,364.71,401.54,364.52,401.9z"/>
		<polygon class="st16" points="326.04,472.88 332.37,484.9 293.54,411.82 299.07,401.86 332.37,462.76 		"/>
		<polygon class="st16" points="370.74,412.16 332.37,484.9 338.45,473.32 332.37,462.76 364.96,401.64 		"/>
		<polygon class="st18" points="338.45,473.32 332.37,484.9 326.04,472.88 332.37,462.76 		"/>
	</g>
</g>
<g>
	<g>
		<path class="st10" d="M460.51,345.51l-32.15,60.65l-32.85-60.02c-0.34-0.63,0.11-1.4,0.83-1.4l63.7-0.02
			C460.44,344.72,460.7,345.15,460.51,345.51z"/>
		<polygon class="st16" points="428.36,428.52 389.52,355.44 395.06,345.48 428.36,406.38 460.95,345.26 466.73,355.78 		"/>
		<polygon class="st22" points="428.36,406.38 422.03,416.5 428.36,428.52 434.44,416.94 		"/>
	</g>
</g>
</svg>
