<?xml version="1.0" encoding="utf-8"?>
<!-- Generator: Adobe Illustrator 27.1.1, SVG Export Plug-In . SVG Version: 6.00 Build 0)  -->
<svg version="1.1" id="Layer_1" xmlns="http://www.w3.org/2000/svg" xmlns:xlink="http://www.w3.org/1999/xlink" x="0px" y="0px"
	 viewBox="0 0 841.89 595.28" style="enable-background:new 0 0 841.89 595.28;" xml:space="preserve">
<style type="text/css">
	.st0{fill:#D4D7EE;stroke:#010202;stroke-miterlimit:10;}
	.st1{fill:#FFFFFF;stroke:#010202;stroke-width:0.75;stroke-miterlimit:10;}
	.st2{fill:#179552;}
	.st3{fill:#C11A22;}
	.st4{fill:#FFFFFF;stroke:#010202;stroke-width:1.4583;stroke-miterlimit:10;}
	.st5{fill:#37AB4D;stroke:#010202;stroke-width:1.1973;stroke-miterlimit:10;}
	.st6{fill:#F7BA16;stroke:#010202;stroke-width:1.1973;stroke-miterlimit:10;}
	.st7{fill:#C11A22;stroke:#010202;stroke-width:1.1973;stroke-miterlimit:10;}
	.st8{fill:#FFFFFF;stroke:#010202;stroke-width:1.1726;stroke-miterlimit:10;}
	.st9{fill:#C11A22;stroke:#010202;stroke-width:1.438;stroke-miterlimit:10;}
	.st10{fill:#37AB4D;stroke:#010202;stroke-width:1.438;stroke-miterlimit:10;}
	.st11{fill:#F7BA16;stroke:#010202;stroke-width:1.438;stroke-miterlimit:10;}
	.st12{fill:#191919;stroke:#191919;stroke-miterlimit:10;}
	.st13{fill:none;stroke:#010202;stroke-width:3;stroke-linecap:round;stroke-linejoin:round;stroke-miterlimit:10;}
	.st14{fill:#C21A21;stroke:#010202;stroke-width:2;stroke-miterlimit:10;}
	.st15{fill:#FFFFFF;}
	.st16{fill:none;stroke:#010202;stroke-width:0.8258;stroke-miterlimit:10;}
	.st17{fill:#F7BA16;stroke:#010202;stroke-width:0.75;stroke-miterlimit:10;}
	.st18{fill:#C11A22;stroke:#010202;stroke-width:0.75;stroke-miterlimit:10;}
	.st19{fill:#FAEA2F;stroke:#010202;stroke-width:0.4937;stroke-miterlimit:10;}
	.st20{fill:#FFFFFF;stroke:#050707;stroke-width:0.4937;stroke-miterlimit:10;}
	.st21{fill:#E63329;stroke:#010202;stroke-width:0.1545;stroke-miterlimit:10;}
	.st22{fill:#37AB4D;stroke:#010202;stroke-width:0.75;stroke-miterlimit:10;}
	.st23{fill:#FCD802;stroke:#010202;stroke-width:1.4349;stroke-miterlimit:10;}
	.st24{fill:#FFFFFF;stroke:#010202;stroke-width:1.4349;stroke-miterlimit:10;}
	.st25{fill:none;stroke:#010202;stroke-width:1.4349;stroke-linecap:round;stroke-linejoin:round;stroke-miterlimit:10;}
	.st26{fill:#010202;}
	.st27{fill:#02A96B;stroke:#010202;stroke-width:0.75;stroke-miterlimit:10;}
	.st28{fill:#F7BA16;stroke:#010202;stroke-width:3.158;stroke-miterlimit:10;}
	.st29{fill:#FFFFFF;stroke:#010202;stroke-width:2.3588;stroke-miterlimit:10;}
	.st30{fill:#C21920;stroke:#010202;stroke-width:2.3588;stroke-miterlimit:10;}
	.st31{fill:#C21A21;stroke:#010202;stroke-width:1.1973;stroke-miterlimit:10;}
	.st32{fill:#70B966;stroke:#010202;stroke-miterlimit:10;}
	.st33{fill:#02A96B;}
	.st34{fill:#FFFFFF;stroke:#010202;stroke-width:2;stroke-miterlimit:10;}
	.st35{fill:#C21920;stroke:#010202;stroke-width:1.4407;stroke-miterlimit:10;}
	.st36{fill:#F8AB16;stroke:#010202;stroke-width:1.4407;stroke-miterlimit:10;}
	.st37{fill:#8E1963;stroke:#010202;stroke-width:1.4407;stroke-miterlimit:10;}
	.st38{fill:#FCD900;stroke:#010202;stroke-width:1.4407;stroke-miterlimit:10;}
	.st39{fill:#FFFFFF;stroke:#010202;stroke-width:1.8498;stroke-miterlimit:10;}
	.st40{fill:#8E1963;}
	.st41{fill:#8E1963;stroke:#010202;stroke-width:1.8764;stroke-miterlimit:10;}
	.st42{fill:#8E1963;stroke:#010202;stroke-width:1.4015;stroke-miterlimit:10;}
	.st43{fill:none;stroke:#010202;stroke-width:1.4015;stroke-linecap:round;stroke-linejoin:round;stroke-miterlimit:10;}
	.st44{fill:#C21920;stroke:#010202;stroke-width:1.8125;stroke-miterlimit:10;}
	.st45{fill:#FFFFFF;stroke:#010202;stroke-width:1.8478;stroke-miterlimit:10;}
	.st46{fill:#C21920;}
	.st47{fill:#F8AB16;stroke:#010202;stroke-width:1.7687;stroke-miterlimit:10;}
	.st48{fill:#F8AB16;}
	.st49{fill:#FCD900;}
	.st50{fill:none;stroke:#010202;stroke-width:1.6344;stroke-miterlimit:10;}
	.st51{fill:#FCD900;stroke:#010202;stroke-width:1.6344;stroke-miterlimit:10;}
	.st52{fill:#FFFFFF;stroke:#010202;stroke-width:0.9824;stroke-miterlimit:10;}
	.st53{fill:#C21920;stroke:#010202;stroke-width:0.4912;stroke-miterlimit:10;}
	.st54{fill:#8E1963;stroke:#010202;stroke-width:0.4912;stroke-miterlimit:10;}
	.st55{fill:#F8AB16;stroke:#010202;stroke-width:0.4912;stroke-miterlimit:10;}
	.st56{fill:#FFFFFF;stroke:#010202;stroke-width:2.0587;stroke-miterlimit:10;}
	.st57{fill:#8E1963;stroke:#010202;stroke-width:2.0883;stroke-miterlimit:10;}
	.st58{fill:#8E1963;stroke:#010202;stroke-width:1.5598;stroke-miterlimit:10;}
	.st59{fill:none;stroke:#010202;stroke-width:1.5598;stroke-linecap:round;stroke-linejoin:round;stroke-miterlimit:10;}
	.st60{fill:#C21920;stroke:#010202;stroke-width:2.0171;stroke-miterlimit:10;}
	.st61{fill:#FFFFFF;stroke:#010202;stroke-width:2.0565;stroke-miterlimit:10;}
	.st62{fill:#F8AB16;stroke:#010202;stroke-width:1.9685;stroke-miterlimit:10;}
	.st63{fill:#C11A22;stroke:#010202;stroke-width:2.0446;stroke-miterlimit:10;}
	.st64{fill:none;stroke:#010202;stroke-width:1.1741;stroke-miterlimit:10;}
	.st65{fill:#F7BA16;stroke:#010202;stroke-width:2.0446;stroke-miterlimit:10;}
	.st66{fill:#37AB4D;stroke:#010202;stroke-width:2.0446;stroke-miterlimit:10;}
	.st67{fill:#FFFFFF;stroke:#010202;stroke-width:1.3431;stroke-miterlimit:10;}
	.st68{fill:#FFFFFF;stroke:#010202;stroke-width:0.6716;stroke-miterlimit:10;}
	.st69{fill:#C21920;stroke:#010202;stroke-width:0.3358;stroke-miterlimit:10;}
	.st70{fill:#C21920;stroke:#010202;stroke-width:1.3431;stroke-miterlimit:10;}
	.st71{fill:#FFFFFF;stroke:#010202;stroke-width:1.3076;stroke-miterlimit:10;}
	.st72{fill:#C21920;stroke:#010202;stroke-width:1.3863;stroke-miterlimit:10;}
	.st73{fill:#FFFFFF;stroke:#010202;stroke-width:1.4948;stroke-miterlimit:10;}
	.st74{fill:#FFFFFF;stroke:#010202;stroke-width:0.7474;stroke-miterlimit:10;}
	.st75{fill:#C21920;stroke:#010202;stroke-width:0.3737;stroke-miterlimit:10;}
	.st76{fill:#C21920;stroke:#010202;stroke-width:1.4662;stroke-miterlimit:10;}
	.st77{fill:#F8AB16;stroke:#010202;stroke-width:0.3791;stroke-miterlimit:10;}
	.st78{fill:#F8AB16;stroke:#010202;stroke-width:1.4308;stroke-miterlimit:10;}
	.st79{fill:none;stroke:#010202;stroke-width:1.3222;stroke-miterlimit:10;}
	.st80{fill:#FCD900;stroke:#010202;stroke-width:0.3791;stroke-miterlimit:10;}
	.st81{fill:#FCD900;stroke:#010202;stroke-width:1.3222;stroke-miterlimit:10;}
	.st82{fill:#8E1963;stroke:#010202;stroke-width:0.3791;stroke-miterlimit:10;}
	.st83{fill:#8E1963;stroke:#010202;stroke-width:1.5163;stroke-miterlimit:10;}
	.st84{fill:#8E1963;stroke:#010202;stroke-width:1.1325;stroke-miterlimit:10;}
	.st85{fill:none;stroke:#010202;stroke-width:1.1325;stroke-linecap:round;stroke-linejoin:round;stroke-miterlimit:10;}
	.st86{fill:#FFFFFF;stroke:#010202;stroke-width:1.4206;stroke-miterlimit:10;}
	.st87{fill:#FFFFFF;stroke:#010202;stroke-width:0.7103;stroke-miterlimit:10;}
	.st88{fill:#C21920;stroke:#010202;stroke-width:0.3551;stroke-miterlimit:10;}
	.st89{fill:#C21920;stroke:#010202;stroke-width:1.4206;stroke-miterlimit:10;}
	.st90{fill:#FFFFFF;stroke:#010202;stroke-width:1.383;stroke-miterlimit:10;}
	.st91{fill:#FAEA2F;stroke:#010202;stroke-width:0.3551;stroke-miterlimit:10;}
	.st92{fill:#F8AB16;stroke:#010202;stroke-width:1.4205;stroke-miterlimit:10;}
	.st93{fill:#8E1963;stroke:#010202;stroke-width:1.6044;stroke-miterlimit:10;}
	.st94{fill:none;stroke:#010202;stroke-width:1.6044;stroke-linecap:round;stroke-linejoin:round;stroke-miterlimit:10;}
	.st95{fill:#FCD900;stroke:#010202;stroke-width:1.6789;stroke-miterlimit:10;}
	.st96{fill:#37AB4D;stroke:#010202;stroke-width:2;stroke-miterlimit:10;}
	.st97{fill:#C21920;stroke:#010202;stroke-width:1.7323;stroke-miterlimit:10;}
	.st98{fill:none;stroke:#C21A21;stroke-width:3.8955;stroke-linecap:round;stroke-linejoin:round;stroke-miterlimit:10;}
	.st99{fill:#333333;}
	.st100{fill:#FCD901;stroke:#010202;stroke-width:1.3419;stroke-miterlimit:10;}
	.st101{fill:#8E1963;stroke:#010202;stroke-width:1.216;stroke-miterlimit:10;}
	.st102{fill:none;stroke:#010202;stroke-width:1.216;stroke-linecap:round;stroke-linejoin:round;stroke-miterlimit:10;}
	.st103{fill:#F8AB16;stroke:#010202;stroke-width:1.5252;stroke-miterlimit:10;}
	.st104{opacity:0.52;fill:#7A8084;}
	.st105{fill:#2856A2;stroke:#010202;stroke-width:0.8146;stroke-miterlimit:10;}
	.st106{fill:#FFFFFF;stroke:#010202;stroke-width:0.3123;stroke-miterlimit:10;}
	.st107{fill:#FFFFFF;stroke:#010202;stroke-width:0.0923;stroke-miterlimit:10;}
	.st108{fill:#F7BA16;stroke:#010202;stroke-width:0.0612;stroke-miterlimit:10;}
	.st109{fill:#E63329;stroke:#010202;stroke-width:0.0612;stroke-miterlimit:10;}
	.st110{fill:#37AB4D;stroke:#010202;stroke-width:0.0612;stroke-miterlimit:10;}
	.st111{fill:#FFFFFF;stroke:#010202;stroke-width:0.0764;stroke-miterlimit:10;}
	.st112{fill:#F7BA16;stroke:#010202;stroke-width:0.0506;stroke-miterlimit:10;}
	.st113{fill:#E63329;stroke:#010202;stroke-width:0.0506;stroke-miterlimit:10;}
	.st114{fill:#37AB4D;stroke:#010202;stroke-width:0.0506;stroke-miterlimit:10;}
	.st115{fill:#179552;stroke:#010202;stroke-width:0.8326;stroke-miterlimit:10;}
	.st116{fill:#F7BA16;stroke:#010202;stroke-width:0.8146;stroke-miterlimit:10;}
	.st117{fill:#FFFFFF;stroke:#010202;stroke-width:0.4197;stroke-miterlimit:10;}
	.st118{fill:#E73836;stroke:#010202;stroke-width:0.1809;stroke-miterlimit:10;}
	.st119{fill:#D4D7EE;stroke:#010202;stroke-width:1.001;stroke-miterlimit:10;}
	.st120{fill:#FFFFFF;stroke:#010202;stroke-width:1.1881;stroke-miterlimit:10;}
	.st121{fill:#FFFFFF;stroke:#191919;stroke-width:0.9977;stroke-miterlimit:10;}
	.st122{fill:#C11A21;}
	.st123{fill:#2957A2;}
	.st124{fill:#D4D7EE;stroke:#010202;stroke-width:0.8539;stroke-miterlimit:10;}
	.st125{fill:#F7BA16;stroke:#010202;stroke-width:2.0392;stroke-miterlimit:10;}
	.st126{fill:none;stroke:#010202;stroke-width:1.171;stroke-miterlimit:10;}
	.st127{fill:#F7BA16;stroke:#010202;stroke-width:0.748;stroke-miterlimit:10;}
	.st128{fill:none;stroke:#010202;stroke-width:0.4027;stroke-miterlimit:10;}
	.st129{fill:#C11A22;stroke:#010202;stroke-width:0.3652;stroke-miterlimit:10;}
	.st130{fill:#C11A22;stroke:#010202;stroke-width:0.7033;stroke-miterlimit:10;}
</style>
<rect x="-0.45" y="-0.67" class="st119" width="842.8" height="595.74"/>
<g>
	<rect x="-0.42" y="-0.73" class="st4" width="841.6" height="16.26"/>
	<polygon class="st5" points="457.23,15.67 421.3,15.67 410.64,-0.73 467.89,-0.73 	"/>
	<polygon class="st6" points="352.37,15.67 316.44,15.67 305.78,-0.73 363.03,-0.73 	"/>
	<polygon class="st7" points="247.51,15.67 211.58,15.67 200.92,-0.73 258.16,-0.73 	"/>
	<polygon class="st5" points="762.08,15.67 726.15,15.67 715.49,-0.73 772.74,-0.73 	"/>
	<polygon class="st7" points="841.18,15.67 825.39,15.67 814.73,-0.73 841.52,-0.73 	"/>
	<polygon class="st6" points="657.22,15.67 621.29,15.67 610.63,-0.73 667.88,-0.73 	"/>
	<polygon class="st7" points="552.36,15.67 516.43,15.67 505.77,-0.73 563.01,-0.73 	"/>
	<polygon class="st5" points="142.64,15.67 106.71,15.67 96.06,-0.73 153.3,-0.73 	"/>
	<polygon class="st6" points="-0.42,12.17 -0.42,-0.73 48.44,-0.73 37.87,15.53 37.78,15.67 1.85,15.67 1.77,15.53 	"/>
</g>
<g>
	<g>
		<path class="st9" d="M553.94,416.91l-32.15,60.64l-33.61-61.42l65.29-0.02C553.87,416.12,554.13,416.55,553.94,416.91z"/>
		<polygon class="st16" points="515.46,487.89 521.79,499.91 488.67,437.6 482.95,426.85 482.95,426.84 483.18,426.42 
			488.49,416.87 494.15,427.21 521.79,477.77 		"/>
		<polygon class="st16" points="560.16,427.17 521.79,499.91 527.87,488.33 521.79,477.77 554.38,416.66 		"/>
		<polygon class="st18" points="527.87,488.33 521.79,499.91 515.46,487.89 521.79,477.77 		"/>
	</g>
	<g>
		<polygon class="st11" points="488.36,416.12 455.79,477.56 422.18,416.14 		"/>
		<polygon class="st16" points="455.79,499.91 416.96,426.84 422.49,416.88 455.79,477.78 488.39,416.66 494.17,427.18 		"/>
		<polygon class="st17" points="455.79,477.78 449.47,487.9 455.79,499.91 461.87,488.33 		"/>
	</g>
	<g>
		<polygon class="st10" points="422.37,416.12 389.8,477.56 356.19,416.14 		"/>
		<polygon class="st16" points="383.48,487.89 389.8,499.91 356.68,437.59 350.97,426.85 351.21,426.4 356.5,416.87 362.16,427.21 
			362.16,427.22 389.8,477.77 		"/>
		<polygon class="st16" points="428.18,427.17 428.16,427.22 422.68,437.6 389.8,499.91 395.88,488.33 389.8,477.77 416.96,426.85 
			417.19,426.42 422.4,416.66 		"/>
		<polygon class="st22" points="395.88,488.33 389.8,499.91 383.48,487.89 389.8,477.77 		"/>
	</g>
	<g>
		<path class="st9" d="M356.38,416.12l-32.57,61.44l-32.83-59.98c-0.35-0.65,0.11-1.44,0.85-1.44L356.38,416.12z"/>
		<polygon class="st16" points="317.49,487.89 323.81,499.91 284.98,426.84 290.51,416.87 323.81,477.77 		"/>
		<polygon class="st16" points="362.18,427.17 362.16,427.21 356.68,437.59 323.81,499.91 329.89,488.33 323.81,477.77 
			350.97,426.85 351.21,426.4 356.41,416.66 		"/>
		<polygon class="st18" points="329.89,488.33 323.81,499.91 317.49,487.89 323.81,477.77 		"/>
	</g>
</g>
<g>
	<g>
		<g>
			<polygon class="st120" points="280.5,595.5 0.14,595.5 0.14,484.44 261.46,484.44 			"/>
		</g>
		<polygon class="st9" points="21.28,484.39 67.92,484.39 86.99,595.59 0.52,595.59 		"/>
		<polygon class="st10" points="118.05,484.39 164.69,484.39 183.75,595.59 97.28,595.59 		"/>
		<polygon class="st11" points="280.52,595.59 194.05,595.59 194.07,595.5 214.8,484.44 214.81,484.4 261.45,484.4 261.46,484.44 
			280.5,595.5 		"/>
	</g>
	<polygon class="st121" points="296.78,484.44 296.78,595.42 288.45,595.5 280.5,595.5 261.46,484.44 	"/>
</g>
<g>
	<line class="st13" x1="163.3" y1="394.72" x2="163.3" y2="482.75"/>
	<line class="st13" x1="164.05" y1="406.54" x2="175.17" y2="396.39"/>
	<line class="st13" x1="162.55" y1="414.51" x2="149.1" y2="401.4"/>
	<polyline class="st13" points="175.16,424.62 163.26,437.98 150.44,424.95 	"/>
	<line class="st13" x1="173.82" y1="448.84" x2="163.09" y2="457.61"/>
	<line class="st13" x1="149.44" y1="448.01" x2="162.84" y2="459.07"/>
	<polyline class="st13" points="148.43,466.38 163.47,478.74 175.33,465.21 	"/>
</g>
<g>
	<line class="st13" x1="195.85" y1="394.72" x2="195.85" y2="482.75"/>
	<line class="st13" x1="196.6" y1="406.54" x2="207.72" y2="396.39"/>
	<line class="st13" x1="195.1" y1="414.51" x2="181.65" y2="401.4"/>
	<polyline class="st13" points="207.71,424.62 195.81,437.98 182.99,424.95 	"/>
	<line class="st13" x1="206.38" y1="448.84" x2="195.64" y2="457.61"/>
	<line class="st13" x1="181.99" y1="448.01" x2="195.39" y2="459.07"/>
	<polyline class="st13" points="180.98,466.38 196.02,478.74 207.88,465.21 	"/>
</g>
<g>
	<g>
		<path class="st9" d="M832.4,336.55l-32.15,60.64l-33.61-61.42l65.29-0.02C832.33,335.76,832.59,336.19,832.4,336.55z"/>
		<polygon class="st16" points="793.93,407.54 800.25,419.56 767.14,357.24 761.42,346.48 761.47,346.39 766.95,336.52 
			772.61,346.86 772.61,346.87 800.25,397.42 		"/>
		<polygon class="st16" points="838.62,346.82 800.25,419.56 806.33,407.98 800.25,397.42 832.85,336.3 		"/>
		<polygon class="st18" points="806.33,407.98 800.25,419.56 793.93,407.54 800.25,397.42 		"/>
	</g>
	<g>
		<path class="st11" d="M766.83,335.76l-32.57,61.44l-32.83-59.98c-0.36-0.65,0.11-1.44,0.85-1.44L766.83,335.76z"/>
		<polygon class="st16" points="727.93,407.54 734.26,419.56 695.43,346.48 700.96,336.52 734.26,397.42 		"/>
		<polygon class="st16" points="772.63,346.82 772.61,346.86 767.14,357.24 734.26,419.56 740.34,407.98 734.26,397.42 
			761.42,346.48 761.47,346.39 766.85,336.3 		"/>
		<polygon class="st17" points="740.34,407.98 734.26,419.56 727.93,407.54 734.26,397.42 		"/>
	</g>
	<g>
		<path class="st10" d="M634.42,336.57l-32.14,60.63l-32.83-59.98c-0.35-0.65,0.11-1.44,0.85-1.44l63.63-0.02
			C634.35,335.76,634.61,336.2,634.42,336.57z"/>
		<polygon class="st16" points="595.95,407.54 602.28,419.56 563.44,346.48 568.98,336.52 602.28,397.42 		"/>
		<polygon class="st16" points="640.65,346.82 602.28,419.56 608.36,407.98 602.28,397.42 634.87,336.3 		"/>
		<polygon class="st22" points="608.36,407.98 602.28,419.56 595.95,407.54 602.28,397.42 		"/>
	</g>
</g>
<polygon class="st12" points="841.63,515.91 841.63,596.01 296.78,595.42 296.78,528.33 323.81,579.19 356.68,516.87 389.8,579.19 
	422.68,516.88 455.79,579.19 488.66,516.87 488.67,516.88 521.79,579.19 560.16,506.45 565.57,493.58 571.72,506.6 571.7,506.6 
	610.28,579.19 643.15,516.87 709.14,516.87 742.26,579.19 775.13,516.87 808.25,579.19 "/>
</svg>
