<svg version="1.2" xmlns="http://www.w3.org/2000/svg" viewBox="0 0 96 125" width="96" height="125"><style>.a{fill:#fff;stroke:#010202;stroke-width:1.4}.b{fill:#fff;stroke:#010202;stroke-width:.7}.c{fill:#fcd900;stroke:#010202;stroke-width:.4}.d{fill:#faea2f;stroke:#010202;stroke-width:.4}.e{fill:#010202}.f{fill:#fcd900}.g{fill:#fcd900;stroke:#010202;stroke-width:1.7}.h{fill:#fcd900;stroke:#010202;stroke-width:1.3}.i{fill:#fff;stroke:#010202;stroke-linecap:round;stroke-linejoin:round;stroke-width:1.4}</style><path class="a" d="m39.6 95.3v-26.3l21.4-0.2c16.6 22.4-3.9 36.8-3.9 36.8 0 0-1.9 5.5-7.7 5.3 0 0-3.6 0.3-7.3-7 0 0-0.4-0.7-1.4-3.2-0.7-1.7-1.1-3.6-1.1-5.4z"/><path class="b" d="m39.9 76.2h25.5l1 4.8h-26.6z"/><path class="c" d="m65.3 81h-8.9l1.7-4.9h5.5z"/><path class="c" d="m54.8 81h-8.9l1.7-4.9h5.5z"/><path class="d" d="m44.2 81h-4.4l0.2-4.9h2.5z"/><path class="b" d="m39.7 90.5h27.3l-1.3 4.8h-25.9z"/><path class="c" d="m65.3 95.3h-8.9l1.7-4.8h5.5z"/><path class="c" d="m54.8 95.3h-8.9l1.7-4.8h5.5z"/><path class="c" d="m44.2 95.3h-4.1l0.2-4.8h2.2z"/><path class="a" d="m48.8 67.6c0 0 3.8 7.4 3.3 13.8-0.4 3.8-3.6 6.8-7.4 6.4-1.9-0.2-3.8-1.3-4.5-4.4v-17.1c0 0 4.7 2.4 8.6 1.3z"/><path class="a" d="m68.5 2.9c0 0 26.5 6.1 26.4 34.2-0.1 10.5-5 20.4-14 26.3-4.9 3.2-11.4 5.6-19.8 5.2 0 0-19.9 1-29.7-1.3 0 0-18.7-4.8-20.7-21.7 0 0-5.9-26.6 14.8-38.3 0 0 17.9-9.7 43-4.4z"/><path class="e" d="m70.3 40c-3.5 0-6.5-4.4-6.5-9.8 0-5.5 3-9.9 6.5-9.9 3.6 0 6.5 4.4 6.5 9.9 0 5.4-2.9 9.8-6.5 9.8z"/><path class="f" d="m78 49.5c-2.5 0-4.6-0.9-4.6-2.1 0-1.1 2.1-2.1 4.6-2.1 2.6 0 4.7 1 4.7 2.1 0 1.2-2.1 2.1-4.7 2.1z"/><path class="g" d="m19.4 20.8l0.1 27.8c0 0.7-0.7 1.1-1.3 0.9l-3.7-1.5c-0.6-0.3-1.3 0.2-1.3 0.9l0.3 13.5c0 1-1.5 1.3-1.9 0.3l-10.5-27.4c-0.3-0.8 0.4-1.5 1.2-1.2l5 2.1c0.7 0.2 1.4-0.3 1.4-1l-2-18.6c-0.1-0.7 0.6-1.3 1.3-1l10.8 4.3c0.4 0.2 0.6 0.5 0.6 0.9z"/><path class="f" d="m51.3 81.8c-0.5 4-4.1 5.2-4.1 5.2-5.5 1.5-6.3-3.6-6.3-3.6v-1.6z"/><path class="h" d="m93.2 45.1c-1.7 0-5.6-0.3-5-4.4q0.1-0.2 0.2-0.2h5.9z"/><path class="a" d="m53.1 118.1c0.8 6.2-4.1 7.5-9.8 5q-0.1 0-0.2-0.1c-3.4-1.5-5.2-5.4-4.4-9l2.2-12.2c5 6.7 15.5 5.5 15.5 5.5 0.3 1.7-3.7 7.6-3.3 10.8z"/><path class="f" d="m39.4 114.1c0 0 6.9 2.4 13 2.9 0 0 1.8 7.5-5 6.6 0 0-9.7-0.7-8-9.5z"/><path class="i" d="m69 112.4c3.9 4.9 0.4 8.6-5.8 9.4q-0.1 0-0.3 0c-3.7 0.4-7.2-2-8.4-5.5l-3.5-8.8c9.8-1.5 12-7.7 12-7.7 1.1 1.3 4 10 6 12.6z"/><path class="f" d="m55.2 116.1c0 0 7.1-1.5 12.7-4.3 0 0 5.3 5.5-1 8.3 0 0-8.6 4.3-11.7-4z"/></svg>