<svg version="1.2" xmlns="http://www.w3.org/2000/svg" viewBox="0 0 96 124" width="96" height="124"><style>.a{fill:#fff;stroke:#010202;stroke-width:1.4}.b{fill:#fff;stroke:#010202;stroke-width:.7}.c{fill:#fcd900;stroke:#010202;stroke-width:.4}.d{fill:#faea2f;stroke:#010202;stroke-width:.4}.e{fill:#010202}.f{fill:#fcd900}.g{fill:#fcd900;stroke:#010202;stroke-width:1.7}.h{fill:#fcd900;stroke:#010202;stroke-width:1.3}</style><path class="a" d="m39.8 94.9v-26.3l21.3-0.2c16.7 22.4-3.8 36.8-3.8 36.8 0 0-1.9 5.5-7.7 5.4 0 0-3.7 0.2-7.3-7.1 0 0-0.4-0.7-1.4-3.2-0.7-1.7-1.1-3.5-1.1-5.4z"/><path class="b" d="m40.1 75.8h25.4l1.1 4.8h-26.6z"/><path class="c" d="m65.5 80.6h-8.9l1.6-4.8h5.6z"/><path class="c" d="m54.9 80.6h-8.8l1.6-4.8h5.6z"/><path class="d" d="m44.4 80.6h-4.4l0.1-4.8h2.6z"/><path class="b" d="m39.9 90.1h27.3l-1.3 4.8h-25.9z"/><path class="c" d="m65.5 94.9h-8.9l1.6-4.8h5.6z"/><path class="c" d="m54.9 94.9h-8.8l1.6-4.8h5.6z"/><path class="c" d="m44.4 94.9h-4.1l0.2-4.8h2.2z"/><path class="a" d="m49 67.2c0 0 3.8 7.4 3.2 13.9-0.3 3.7-3.5 6.7-7.3 6.3-1.9-0.2-3.8-1.3-4.6-4.4v-17c0 0 4.8 2.3 8.7 1.2z"/><path class="a" d="m68.7 2.5c0 0 26.4 6.1 26.3 34.3 0 10.4-5 20.4-14 26.2-4.9 3.2-11.3 5.6-19.7 5.2 0 0-19.9 1-29.7-1.3 0 0-18.7-4.8-20.7-21.7 0 0-5.9-26.6 14.8-38.3 0 0 17.9-9.7 43-4.4z"/><path class="e" d="m70.5 39.6c-3.6 0-6.5-4.4-6.5-9.8 0-5.5 2.9-9.9 6.5-9.9 3.6 0 6.5 4.4 6.5 9.9 0 5.4-2.9 9.8-6.5 9.8z"/><path class="a" d="m57.2 115.7c2 5.9-2.4 8.2-8.6 7q-0.1-0.1-0.2-0.1c-3.7-0.8-6.2-4.2-6.2-7.9l-0.4-12.4c6.2 5.5 16.3 2.2 16.3 2.2 0.6 1.5-2 8.1-0.9 11.2z"/><path class="f" d="m42.9 114.7c0 0 7.2 0.9 13.4 0 0 0 3.3 7-3.6 7.6 0 0-9.6 1.3-9.8-7.6z"/><path class="a" d="m63.2 115.7c2.1 5.9-2.4 8.2-8.6 7q-0.1-0.1-0.2-0.1c-3.6-0.8-6.2-4.2-6.2-7.9l-0.4-9.5c9.7 1.8 13.6-3.5 13.6-3.5 0.6 1.6 0.7 10.9 1.8 14z"/><path class="f" d="m48.9 114.7c0 0 7.3 0.9 13.4 0 0 0 3.3 7-3.6 7.6 0 0-9.5 1.3-9.8-7.6z"/><path class="f" d="m78.2 49.1c-2.6 0-4.6-0.9-4.6-2.1 0-1.1 2-2.1 4.6-2.1 2.6 0 4.7 1 4.7 2.1 0 1.2-2.1 2.1-4.7 2.1z"/><path class="g" d="m19.6 20.4l0.1 27.8c0 0.7-0.7 1.1-1.3 0.9l-3.7-1.5c-0.7-0.3-1.3 0.2-1.3 0.9l0.2 13.5c0 1-1.4 1.3-1.8 0.3l-10.6-27.4c-0.3-0.8 0.5-1.5 1.3-1.2l5 2.1c0.7 0.2 1.4-0.3 1.3-1l-1.9-18.6c-0.1-0.7 0.6-1.3 1.3-1l10.8 4.3c0.4 0.2 0.6 0.5 0.6 0.9z"/><path class="f" d="m51.5 81.4c-0.5 4-4.1 5.2-4.1 5.2-5.5 1.5-6.4-3.5-6.4-3.5v-1.7z"/><path class="h" d="m93.4 44.8c-1.7-0.1-5.6-0.4-5-4.5q0.1-0.2 0.2-0.2h5.8z"/></svg>