<svg version="1.2" xmlns="http://www.w3.org/2000/svg" viewBox="0 0 96 126" width="96" height="126"><style>.a{fill:#fff;stroke:#010202;stroke-width:1.4}.b{fill:#fff;stroke:#010202;stroke-width:.7}.c{fill:#fcd900;stroke:#010202;stroke-width:.4}.d{fill:#faea2f;stroke:#010202;stroke-width:.4}.e{fill:#010202}.f{fill:#fcd900}.g{fill:#fcd900;stroke:#010202;stroke-width:1.7}.h{fill:#fcd900;stroke:#010202;stroke-width:1.3}.i{fill:#fff;stroke:#010202;stroke-linecap:round;stroke-linejoin:round;stroke-width:1.4}</style><path class="a" d="m40.2 95.2v-26.3l21.3-0.3c16.7 22.5-3.9 36.9-3.9 36.9 0 0-1.9 5.4-7.7 5.3 0 0-3.6 0.3-7.2-7 0 0-0.4-0.8-1.5-3.2-0.7-1.7-1-3.6-1-5.4z"/><path class="b" d="m40.4 76.1h25.5l1 4.8h-26.6z"/><path class="c" d="m65.8 80.9h-8.8l1.6-4.9h5.6z"/><path class="c" d="m55.3 80.9h-8.9l1.7-4.9h5.5z"/><path class="d" d="m44.7 80.9h-4.4l0.2-4.9h2.6z"/><path class="b" d="m40.2 90.4h27.3l-1.2 4.8h-25.9z"/><path class="c" d="m65.8 95.2h-8.8l1.6-4.9h5.6z"/><path class="c" d="m55.3 95.2h-8.9l1.7-4.9h5.5z"/><path class="c" d="m44.7 95.2h-4l0.1-4.9h2.3z"/><path class="a" d="m49.3 67.5c0 0 3.8 7.4 3.3 13.8-0.3 3.8-3.6 6.8-7.3 6.4-2-0.2-3.8-1.3-4.6-4.4v-17.1c0 0 4.8 2.4 8.6 1.3z"/><path class="a" d="m69.1 2.8c0 0 26.4 6.1 26.3 34.2-0.1 10.4-5 20.4-14 26.3-4.9 3.2-11.4 5.5-19.8 5.2 0 0-19.9 1-29.7-1.3 0 0-18.7-4.8-20.7-21.7 0 0-5.9-26.6 14.8-38.4 0.1 0 17.9-9.6 43.1-4.3z"/><path class="e" d="m70.9 39.9c-3.6 0-6.5-4.4-6.5-9.9 0-5.4 2.9-9.8 6.5-9.8 3.6 0 6.5 4.4 6.5 9.8 0 5.5-2.9 9.9-6.5 9.9z"/><path class="f" d="m78.6 49.4c-2.6 0-4.7-0.9-4.7-2.1 0-1.2 2.1-2.1 4.7-2.1 2.6 0 4.6 0.9 4.6 2.1 0 1.2-2 2.1-4.6 2.1z"/><path class="g" d="m19.9 20.7l0.1 27.7c0 0.7-0.6 1.2-1.3 0.9l-3.7-1.4c-0.6-0.3-1.3 0.2-1.3 0.9l0.3 13.4c0 1.1-1.5 1.4-1.9 0.4l-10.5-27.4c-0.3-0.8 0.5-1.6 1.2-1.2l5.1 2c0.6 0.3 1.4-0.2 1.3-0.9l-2-18.6c-0.1-0.7 0.6-1.3 1.3-1l10.8 4.3c0.4 0.1 0.6 0.5 0.6 0.9z"/><path class="f" d="m51.8 81.7c-0.4 4-4 5.2-4 5.2-5.5 1.5-6.4-3.6-6.4-3.6v-1.6z"/><path class="h" d="m93.7 45c-1.7 0-5.6-0.4-4.9-4.4q0-0.2 0.2-0.2h5.8z"/><path class="a" d="m68.5 110c5.2 3.6 2.9 8.1-2.8 10.7q-0.1 0.1-0.2 0.1c-3.4 1.5-7.5 0.3-9.7-2.8l-7.6-9.7c8.3 0.8 14.5-7.9 14.5-7.9 1.4 0.9 3.2 7.8 5.8 9.6z"/><path class="f" d="m56.4 117.6c0 0 6.4-3.5 10.8-7.8 0 0 6.8 3.7 1.6 8.2 0 0-7 6.7-12.4-0.4z"/><path class="i" d="m54.6 119c0.4 5.8-4.2 6.8-9.4 4.2q-0.1-0.1-0.2-0.1c-3-1.6-4.5-5.3-3.5-8.6l1.9-8.6c8.2 4 13.1 0.4 13.1 0.4 0.2 1.5-2.1 9.8-1.9 12.7z"/><path class="f" d="m42.1 114.7c0 0 6.2 2.5 11.9 3.3 0 0 1.3 7-5 5.8 0 0-8.9-1.1-6.9-9.1z"/></svg>