<svg version="1.2" xmlns="http://www.w3.org/2000/svg" viewBox="0 0 181 44" width="181" height="44"><style>.a{fill:#8e1963;stroke:#010202;stroke-width:1.2}.b{fill:none;stroke:#010202;stroke-linecap:round;stroke-linejoin:round;stroke-width:1.2}</style><path class="a" d="m160.2 34.2c0 0-1.1 6-6.9 8.1-3.9 1.4-8.4 0.3-11.3-2.6-2.7-2.8-5-7.6-2.5-16 0 0 5.6-17.9 30.7-22.8 1.7-0.4 3.5-0.4 5.2 0 2.3 0.6 4.8 2 4.3 5.5-0.2 1.4-0.8 2.7-1.8 3.7-1.2 1.3-3.2 3.3-5.2 4.4 0 0 7 1.2 3.6 7.8 0 0-1.9 3.3-5.1 4.4 0 0 3.1 2.9 0.2 5.7-0.9 0.9-2.1 1.4-3.3 1.6-1.8 0.3-4.9 0.7-7.9 0.2z"/><path class="b" d="m149 32.8c0 0-2.2-5.3 2.8-5.9 1.7-0.2 3.4 0.2 4.9 1 1.8 1.1 4 3.1 3.5 6.3"/><path class="b" d="m165.5 16.4c0 0 5.5-0.8 7.2-1.9"/><path class="b" d="m166.6 26.2c0 0 2.7 1.2 4.6 0.5"/><path class="a" d="m89.4 34.2c0 0-1.1 6-6.9 8.1-3.9 1.4-8.4 0.3-11.3-2.6-2.7-2.8-5-7.6-2.5-16 0 0 5.6-17.9 30.7-22.8 1.7-0.4 3.5-0.4 5.2 0 2.3 0.6 4.8 2 4.3 5.5-0.2 1.4-0.8 2.7-1.8 3.7-1.2 1.3-3.2 3.3-5.2 4.4 0 0 7 1.2 3.6 7.8 0 0-1.9 3.3-5.1 4.4 0 0 3.1 2.9 0.2 5.7-0.9 0.9-2.1 1.4-3.3 1.6-1.8 0.3-4.9 0.7-7.9 0.2z"/><path class="b" d="m78.2 32.8c0 0-2.3-5.3 2.7-5.9 1.7-0.2 3.5 0.2 4.9 1 1.9 1.1 4.1 3.1 3.6 6.3"/><path class="b" d="m94.7 16.4c0 0 5.5-0.8 7.2-1.9"/><path class="b" d="m95.8 26.2c0 0 2.7 1.2 4.6 0.5"/><path class="a" d="m23 34.2c0 0-1.1 6-6.9 8.1-3.9 1.4-8.3 0.3-11.3-2.6-2.7-2.8-5-7.6-2.5-16 0 0 5.6-17.9 30.7-22.8 1.7-0.4 3.5-0.4 5.2 0 2.3 0.6 4.8 2 4.3 5.5-0.2 1.4-0.8 2.7-1.8 3.7-1.2 1.3-3.2 3.3-5.2 4.4 0 0 7.1 1.2 3.6 7.8 0 0-1.9 3.3-5.1 4.4 0 0 3.1 2.9 0.2 5.7-0.9 0.9-2.1 1.4-3.3 1.6-1.8 0.3-4.9 0.7-7.9 0.2z"/><path class="b" d="m11.8 32.8c0 0-2.2-5.3 2.8-5.9 1.7-0.2 3.4 0.2 4.9 1 1.8 1.1 4 3.1 3.5 6.3"/><path class="b" d="m28.3 16.4c0 0 5.5-0.8 7.2-1.9"/><path class="b" d="m29.4 26.2c0 0 2.7 1.2 4.6 0.5"/></svg>