<svg version="1.2" xmlns="http://www.w3.org/2000/svg" viewBox="0 0 187 47" width="187" height="47"><style>.a{fill:#f8ab16;stroke:#010202;stroke-width:1.5}</style><path class="a" d="m34.3 44.9c-7.1-3.5-13.7-0.9-15.5 0q-1.2 0.6-2.5 1c-2.6 0.7-6.7 0.9-7.4-3.9-0.1-0.8 0-1.6 0.1-2.5 0.3-1.9 0.9-6.9-1.7-10.1 0 0-4.8-5.5-5.3-7.1 0 0-2.1-3.6 1.5-5.7 0 0 3.8-2.1 7.6-3 0 0 3.7-1.2 5.3-3.5 0 0 2.2-3.5 5.3-6.7 3.8-4 7.4 0 7.4 0 0.8 0.9 2.3 2.6 3.5 3.9 0.6 0.8 1.2 1.6 1.8 2.4 1.7 2.2 5.4 3.1 5.4 3.1 3.9 0.8 7.8 2.7 7.8 2.7 3.7 1.9 1.8 5.6 1.8 5.6-0.4 1.6-4.9 7.4-4.9 7.4-2.4 3.3-1.6 8.3-1.2 10.2q0.3 1 0.2 2.1c-0.2 5.3-4.6 5.3-7.1 4.8q-1.1-0.2-2.1-0.7z"/><path class="a" d="m103.1 44.9c-7.1-3.5-13.7-0.9-15.5 0q-1.2 0.6-2.6 1c-2.5 0.7-6.7 0.9-7.3-3.9-0.1-0.8-0.1-1.6 0.1-2.5 0.3-1.9 0.8-6.9-1.8-10.1 0 0-4.7-5.5-5.3-7.1 0 0-2.1-3.6 1.5-5.7 0 0 3.9-2.1 7.7-3 0 0 3.7-1.2 5.2-3.5 0 0 2.3-3.5 5.4-6.7 3.7-4 7.3 0 7.3 0 0.9 0.9 2.4 2.6 3.5 3.9 0.7 0.8 1.3 1.6 1.9 2.4 1.6 2.2 5.4 3.1 5.4 3.1 3.8 0.8 7.8 2.7 7.8 2.7 3.7 1.9 1.8 5.6 1.8 5.6-0.5 1.6-4.9 7.4-4.9 7.4-2.5 3.3-1.6 8.3-1.2 10.2q0.2 1 0.2 2.1c-0.3 5.3-4.6 5.3-7.1 4.8q-1.1-0.2-2.1-0.7z"/><path class="a" d="m170.2 44.9c-7.2-3.5-13.7-0.9-15.5 0q-1.3 0.6-2.6 1c-2.6 0.7-6.7 0.9-7.3-3.9-0.1-0.8-0.1-1.6 0-2.5 0.4-1.9 0.9-6.9-1.7-10.1 0 0-4.7-5.5-5.3-7.1 0 0-2.1-3.6 1.5-5.7 0 0 3.9-2.1 7.7-3 0 0 3.6-1.2 5.2-3.5 0 0 2.2-3.5 5.3-6.7 3.8-4 7.4 0 7.4 0 0.8 0.9 2.4 2.6 3.5 3.9 0.7 0.8 1.2 1.6 1.8 2.4 1.7 2.2 5.5 3.1 5.5 3.1 3.8 0.8 7.8 2.7 7.8 2.7 3.7 1.9 1.8 5.6 1.8 5.6-0.5 1.6-4.9 7.4-4.9 7.4-2.5 3.3-1.7 8.3-1.3 10.2q0.3 1 0.2 2.1c-0.2 5.3-4.5 5.3-7.1 4.8q-1-0.2-2-0.7z"/></svg>