<svg version="1.2" xmlns="http://www.w3.org/2000/svg" viewBox="0 0 190 49" width="190" height="49"><style>.a{fill:#c21920;stroke:#010202;stroke-width:1.7}</style><path class="a" d="m48.7 28.6c-3.7 4-7.7 7.7-11.7 11.4-2.6 2.4-5.5 4.7-8.2 7-0.8 0.7-1.7 1.1-2.7 0.3-6.2-5.7-12.7-11.1-18.7-17-3.5-3.3-5.6-7.5-5.9-12.5-0.8-10.9 10-19.2 19.7-14.9 2.2 1 4.1 2.8 6.4 4.5 0.2-0.2 0.5-0.6 0.8-0.9 3.9-4.2 8.6-5.7 14-4.2 5.5 1.5 8.9 5.4 10.2 10.8 1.5 5.8 0 11.1-3.9 15.5z"/><path class="a" d="m184.3 28.6c-3.6 4-7.6 7.7-11.6 11.4-2.7 2.4-5.5 4.7-8.3 7-0.8 0.7-1.6 1.1-2.6 0.3-6.3-5.7-12.7-11.1-18.8-17-3.4-3.3-5.5-7.5-5.9-12.5-0.8-10.9 10-19.2 19.7-14.9 2.3 1 4.2 2.8 6.5 4.5 0.1-0.2 0.4-0.6 0.8-0.9 3.8-4.2 8.5-5.7 14-4.2 5.5 1.5 8.8 5.4 10.2 10.8 1.4 5.8 0 11.1-4 15.5z"/><path class="a" d="m116.6 28.6c-3.6 4-7.6 7.7-11.6 11.4-2.7 2.4-5.5 4.7-8.3 7-0.8 0.7-1.6 1.1-2.6 0.3-6.3-5.7-12.7-11.1-18.8-17-3.4-3.3-5.5-7.5-5.9-12.5-0.8-10.9 10-19.2 19.7-14.9 2.3 1 4.2 2.8 6.5 4.5 0.1-0.2 0.4-0.6 0.8-0.9 3.8-4.2 8.5-5.7 14-4.2 5.5 1.5 8.8 5.4 10.2 10.8 1.4 5.8 0 11.1-4 15.5z"/></svg>