<svg version="1.2" xmlns="http://www.w3.org/2000/svg" viewBox="0 0 90 146" width="90" height="146"><style>.a{fill:#fff;stroke:#010202;stroke-width:1.4}.b{fill:#fff;stroke:#010202;stroke-width:.7}.c{fill:#f8ab16;stroke:#010202;stroke-width:.4}.d{fill:#faea2f;stroke:#010202;stroke-width:.4}.e{fill:#010202}.f{fill:#f8ab16;stroke:#010202;stroke-width:1.4}.g{fill:#f8ab16}.h{fill:#fff;stroke:#010202;stroke-linecap:round;stroke-linejoin:round;stroke-width:1.4}</style><path class="a" d="m33.8 116.1v-26.3l21.3-0.2c16.7 22.4-3.9 36.8-3.9 36.8 0 0-1.9 5.5-7.7 5.3 0 0-3.6 0.3-7.2-7 0 0-0.5-0.7-1.5-3.2-0.7-1.7-1-3.6-1-5.4z"/><path class="b" d="m34 97h25.5l1 4.8h-26.6z"/><path class="c" d="m59.4 101.8h-8.9l1.7-4.9h5.6z"/><path class="c" d="m48.9 101.8h-8.9l1.7-4.9h5.5z"/><path class="d" d="m38.3 101.8h-4.4l0.2-4.9h2.6z"/><path class="b" d="m33.8 111.3h27.3l-1.2 4.8h-25.9z"/><path class="c" d="m59.4 116.1h-8.9l1.7-4.9h5.6z"/><path class="c" d="m48.9 116.1h-8.9l1.7-4.9h5.5z"/><path class="c" d="m38.3 116.1h-4l0.1-4.9h2.3z"/><path class="a" d="m42.9 88.4c0 0 3.8 7.4 3.3 13.8-0.3 3.8-3.6 6.8-7.3 6.4-2-0.2-3.9-1.3-4.6-4.4v-17.1c0 0 4.7 2.4 8.6 1.3z"/><path class="a" d="m62.6 23.7c0 0 26.5 6.1 26.4 34.2-0.1 10.5-5 20.4-14 26.3-4.9 3.2-11.4 5.6-19.8 5.2 0 0-19.9 1-29.7-1.3 0 0-18.7-4.8-20.7-21.7 0 0-5.9-26.6 14.8-38.3 0-0.1 17.9-9.7 43-4.4z"/><path class="e" d="m64.5 60.8c-3.6 0-6.5-4.4-6.5-9.9 0-5.4 2.9-9.8 6.5-9.8 3.6 0 6.5 4.4 6.5 9.8 0 5.5-2.9 9.9-6.5 9.9z"/><path class="f" d="m5.3 46.4q-0.8-1-1.6-2c-4.8-5.6-2.3-14.5 4.9-16.2 13.3-3.3 23.7-10 30.7-22 3.8-6.5 12.2-6.2 17-0.4 1.7 1.9 2.9 3.4 3.8 5.5 2.7 6.5 0.9 9.7 0.7 12.8 0 0.6 0 1.1 0.1 1.7 0.3 7.2-1.9 13.9-5.8 19.3-6.9 9.7-19.3 15.3-32.2 12.3-4.4-1-9.5-2.7-12.2-4.2-3.8-2.1-5.4-6.8-5.4-6.8z"/><path class="g" d="m72.2 71.9c-2.6 0-4.7-1-4.7-2.1 0-1.2 2.1-2.1 4.7-2.1 2.5 0 4.6 0.9 4.6 2.1 0 1.1-2.1 2.1-4.6 2.1z"/><path class="g" d="m45.4 102.5c-0.4 4-4 5.2-4 5.2-5.5 1.5-6.4-3.5-6.4-3.5v-1.7z"/><path class="f" d="m87.2 68c-1.7 0-5.6-0.4-5-4.4q0.1-0.2 0.2-0.2h5.9z"/><path class="a" d="m47 138.6c0.8 6.2-4.1 7.5-9.8 5q-0.1-0.1-0.2-0.1c-3.4-1.6-5.2-5.4-4.4-9.1l2.2-12.1c5 6.7 15.5 5.5 15.5 5.5 0.3 1.7-3.7 7.6-3.3 10.8z"/><path class="g" d="m33.3 134.6c0 0 6.9 2.4 13 2.8 0 0 1.8 7.5-5 6.6 0 0-9.7-0.7-8-9.4z"/><path class="h" d="m62.9 132.8c3.9 5 0.4 8.6-5.8 9.4q-0.1 0-0.3 0.1c-3.7 0.4-7.2-2-8.4-5.5l-3.5-8.9c9.8-1.4 12-7.7 12-7.7 1.1 1.3 4 10.1 6 12.6z"/><path class="g" d="m49.1 136.5c0 0 7.1-1.5 12.6-4.3 0 0 5.4 5.5-0.9 8.3 0 0-8.6 4.4-11.7-4z"/></svg>