<svg version="1.2" xmlns="http://www.w3.org/2000/svg" viewBox="0 0 90 146" width="90" height="146"><style>.a{fill:#fff;stroke:#010202;stroke-width:1.4}.b{fill:#fff;stroke:#010202;stroke-width:.7}.c{fill:#f8ab16;stroke:#010202;stroke-width:.4}.d{fill:#faea2f;stroke:#010202;stroke-width:.4}.e{fill:#010202}.f{fill:#f8ab16;stroke:#010202;stroke-width:1.4}.g{fill:#f8ab16}.h{fill:#fff;stroke:#010202;stroke-linecap:round;stroke-linejoin:round;stroke-width:1.4}</style><path class="a" d="m33.9 115.5v-26.3l21.3-0.2c16.7 22.4-3.8 36.8-3.8 36.8 0 0-1.9 5.5-7.7 5.4 0 0-3.7 0.2-7.3-7.1 0 0-0.4-0.7-1.4-3.2-0.7-1.7-1.1-3.5-1.1-5.4z"/><path class="b" d="m34.2 96.4h25.4l1.1 4.8h-26.6z"/><path class="c" d="m59.6 101.2h-8.9l1.7-4.8h5.5z"/><path class="c" d="m49 101.2h-8.8l1.6-4.8h5.6z"/><path class="d" d="m38.5 101.2h-4.4l0.1-4.8h2.6z"/><path class="b" d="m34 110.7h27.3l-1.3 4.8h-25.9z"/><path class="c" d="m59.6 115.5h-8.9l1.7-4.8h5.5z"/><path class="c" d="m49 115.5h-8.8l1.6-4.8h5.6z"/><path class="c" d="m38.5 115.5h-4.1l0.2-4.8h2.2z"/><path class="a" d="m43.1 87.8c0 0 3.8 7.4 3.2 13.8-0.3 3.8-3.5 6.8-7.3 6.4-1.9-0.2-3.8-1.3-4.6-4.4v-17c0 0 4.8 2.3 8.7 1.2z"/><path class="a" d="m62.8 23.1c0 0 26.4 6.1 26.3 34.2 0 10.5-5 20.4-14 26.3-4.9 3.2-11.3 5.6-19.7 5.2 0 0-19.9 1-29.7-1.3 0 0-18.7-4.8-20.7-21.7 0 0-5.9-26.6 14.8-38.3 0 0 17.9-9.7 43-4.4z"/><path class="e" d="m64.6 60.2c-3.6 0-6.5-4.4-6.5-9.8 0-5.5 2.9-9.9 6.5-9.9 3.6 0 6.5 4.4 6.5 9.9 0 5.4-2.9 9.8-6.5 9.8z"/><path class="f" d="m5.4 45.9q-0.7-1-1.6-2.1c-4.8-5.6-2.2-14.5 4.9-16.2 13.4-3.3 23.8-10 30.8-22 3.8-6.5 12.2-6.2 17-0.4 1.7 2 2.9 3.4 3.7 5.5 2.8 6.5 0.9 9.7 0.8 12.8-0.1 0.6 0 1.1 0.1 1.8 0.3 7.1-1.9 13.8-5.8 19.2-7 9.7-19.3 15.3-32.2 12.4-4.5-1.1-9.6-2.8-12.3-4.3-3.7-2.1-5.4-6.7-5.4-6.7z"/><path class="g" d="m72.3 71.3c-2.6 0-4.7-0.9-4.7-2.1 0-1.2 2.1-2.1 4.7-2.1 2.6 0 4.7 0.9 4.7 2.1 0 1.2-2.1 2.1-4.7 2.1z"/><path class="g" d="m45.6 101.9c-0.5 4-4.1 5.2-4.1 5.2-5.5 1.6-6.4-3.5-6.4-3.5l0.1-1.7z"/><path class="f" d="m87.3 67.4c-1.6 0-5.5-0.4-4.9-4.4q0-0.2 0.2-0.2h5.8z"/><path class="a" d="m62.5 130.3c5.1 3.6 2.9 8.1-2.9 10.7q-0.1 0.1-0.2 0.1c-3.4 1.5-7.4 0.3-9.6-2.7l-7.6-9.8c8.3 0.8 14.4-7.9 14.4-7.9 1.4 0.9 3.2 7.8 5.9 9.6z"/><path class="g" d="m50.3 138c0 0 6.4-3.6 10.9-7.9 0 0 6.7 3.7 1.5 8.2 0 0-6.9 6.7-12.4-0.3z"/><path class="h" d="m48.5 139.4c0.4 5.8-4.1 6.7-9.3 4.1q-0.1 0-0.2-0.1c-3.1-1.6-4.5-5.2-3.6-8.6l1.9-8.6c8.2 4 13.2 0.4 13.2 0.4 0.2 1.6-2.2 9.8-2 12.8z"/><path class="g" d="m36 135c0 0 6.3 2.5 12 3.3 0 0 1.2 7-5.1 5.8 0 0-8.8-1.1-6.9-9.1z"/></svg>