<svg version="1.2" xmlns="http://www.w3.org/2000/svg" viewBox="0 0 90 145" width="90" height="145"><style>.a{fill:#fff;stroke:#010202;stroke-width:1.4}.b{fill:#fff;stroke:#010202;stroke-width:.7}.c{fill:#f8ab16;stroke:#010202;stroke-width:.4}.d{fill:#faea2f;stroke:#010202;stroke-width:.4}.e{fill:#010202}.f{fill:#f8ab16}.g{fill:#f8ab16;stroke:#010202;stroke-width:1.4}</style><path class="a" d="m33.8 115.9v-26.3l21.3-0.2c16.7 22.4-3.8 36.8-3.8 36.8 0 0-1.9 5.5-7.7 5.4 0 0-3.7 0.2-7.3-7.1 0 0-0.4-0.7-1.4-3.2-0.7-1.7-1.1-3.5-1.1-5.4z"/><path class="b" d="m34.1 96.8h25.4l1.1 4.8h-26.6z"/><path class="c" d="m59.5 101.6h-8.9l1.7-4.8h5.5z"/><path class="c" d="m48.9 101.6h-8.8l1.6-4.8h5.6z"/><path class="d" d="m38.4 101.6h-4.4l0.1-4.8h2.6z"/><path class="b" d="m33.9 111.1h27.3l-1.3 4.8h-25.9z"/><path class="c" d="m59.5 115.9h-8.9l1.7-4.8h5.5z"/><path class="c" d="m48.9 115.9h-8.8l1.6-4.8h5.6z"/><path class="c" d="m38.4 115.9h-4.1l0.2-4.8h2.2z"/><path class="a" d="m43 88.3c0 0 3.8 7.3 3.2 13.8-0.3 3.8-3.5 6.8-7.3 6.4-1.9-0.3-3.8-1.4-4.6-4.5v-17c0 0 4.8 2.4 8.7 1.3z"/><path class="a" d="m62.7 23.5c0 0 26.4 6.2 26.3 34.3 0 10.4-5 20.4-14 26.3-4.9 3.1-11.3 5.5-19.7 5.2 0 0-19.9 0.9-29.7-1.3 0 0-18.7-4.9-20.7-21.8 0 0-5.9-26.5 14.8-38.3 0 0 17.9-9.7 43-4.4z"/><path class="e" d="m64.5 60.7c-3.6 0-6.5-4.5-6.5-9.9 0-5.5 2.9-9.9 6.5-9.9 3.6 0 6.5 4.4 6.5 9.9 0 5.4-2.9 9.9-6.5 9.9z"/><path class="a" d="m51.2 136.7c2.1 5.9-2.4 8.2-8.6 7q-0.1 0-0.2-0.1c-3.7-0.8-6.2-4.1-6.2-7.9l-0.4-12.3c6.3 5.4 16.3 2.1 16.3 2.1 0.6 1.6-2 8.1-0.9 11.2z"/><path class="f" d="m36.9 135.7c0 0 7.2 0.9 13.4 0 0 0 3.3 7-3.6 7.6 0 0-9.6 1.3-9.8-7.6z"/><path class="a" d="m57.2 136.7c2.1 5.9-2.4 8.2-8.6 7q-0.1 0-0.2-0.1c-3.6-0.8-6.2-4.1-6.2-7.9l-0.4-9.5c9.7 1.8 13.6-3.5 13.6-3.5 0.7 1.6 0.8 10.9 1.8 14z"/><path class="f" d="m42.9 135.7c0 0 7.3 0.9 13.4 0 0 0 3.3 7-3.6 7.6 0 0-9.5 1.3-9.8-7.6z"/><path class="g" d="m5.3 46.3q-0.7-1-1.6-2c-4.8-5.7-2.2-14.5 4.9-16.3 13.4-3.2 23.8-10 30.8-21.9 3.8-6.5 12.2-6.3 17-0.5 1.7 2 2.9 3.4 3.7 5.5 2.8 6.5 0.9 9.7 0.8 12.8-0.1 0.6 0 1.2 0.1 1.8 0.3 7.2-1.9 13.8-5.8 19.2-7 9.8-19.3 15.4-32.2 12.4-4.5-1-9.6-2.7-12.3-4.3-3.7-2-5.4-6.7-5.4-6.7z"/><path class="f" d="m72.2 71.7c-2.6 0-4.7-0.9-4.7-2.1 0-1.1 2.1-2.1 4.7-2.1 2.6 0 4.7 1 4.7 2.1 0 1.2-2.1 2.1-4.7 2.1z"/><path class="f" d="m45.5 102.4c-0.5 3.9-4.1 5.2-4.1 5.2-5.5 1.5-6.4-3.6-6.4-3.6l0.1-1.6z"/><path class="g" d="m87.2 67.9c-1.6-0.1-5.6-0.4-4.9-4.5q0-0.2 0.2-0.2h5.8z"/></svg>