<?xml version="1.0" encoding="utf-8"?>
<!-- Generator: Adobe Illustrator 27.1.1, SVG Export Plug-In . SVG Version: 6.00 Build 0)  -->
<svg version="1.1" id="Layer_1" xmlns="http://www.w3.org/2000/svg" xmlns:xlink="http://www.w3.org/1999/xlink" x="0px" y="0px"
	 viewBox="0 0 841.89 595.28" style="enable-background:new 0 0 841.89 595.28;" xml:space="preserve">
<style type="text/css">
	.st0{fill:#D4D7EE;stroke:#010202;stroke-miterlimit:10;}
	.st1{fill:#FFFFFF;stroke:#010202;stroke-width:0.75;stroke-miterlimit:10;}
	.st2{fill:#179552;}
	.st3{fill:#C11A22;}
	.st4{fill:#FFFFFF;stroke:#010202;stroke-width:1.4583;stroke-miterlimit:10;}
	.st5{fill:#37AB4D;stroke:#010202;stroke-width:1.1973;stroke-miterlimit:10;}
	.st6{fill:#F7BA16;stroke:#010202;stroke-width:1.1973;stroke-miterlimit:10;}
	.st7{fill:#C11A22;stroke:#010202;stroke-width:1.1973;stroke-miterlimit:10;}
	.st8{fill:#FFFFFF;stroke:#010202;stroke-width:1.1726;stroke-miterlimit:10;}
	.st9{fill:#C11A22;stroke:#010202;stroke-width:1.438;stroke-miterlimit:10;}
	.st10{fill:#37AB4D;stroke:#010202;stroke-width:1.438;stroke-miterlimit:10;}
	.st11{fill:#F7BA16;stroke:#010202;stroke-width:1.438;stroke-miterlimit:10;}
	.st12{fill:#191919;stroke:#191919;stroke-miterlimit:10;}
	.st13{fill:none;stroke:#010202;stroke-width:3;stroke-linecap:round;stroke-linejoin:round;stroke-miterlimit:10;}
	.st14{fill:#C21A21;stroke:#010202;stroke-width:2;stroke-miterlimit:10;}
	.st15{fill:#FFFFFF;}
	.st16{fill:none;stroke:#010202;stroke-width:0.8258;stroke-miterlimit:10;}
	.st17{fill:#F7BA16;stroke:#010202;stroke-width:0.75;stroke-miterlimit:10;}
	.st18{fill:#C11A22;stroke:#010202;stroke-width:0.75;stroke-miterlimit:10;}
	.st19{fill:#FAEA2F;stroke:#010202;stroke-width:0.4937;stroke-miterlimit:10;}
	.st20{fill:#FFFFFF;stroke:#050707;stroke-width:0.4937;stroke-miterlimit:10;}
	.st21{fill:#E63329;stroke:#010202;stroke-width:0.1545;stroke-miterlimit:10;}
	.st22{fill:#37AB4D;stroke:#010202;stroke-width:0.75;stroke-miterlimit:10;}
	.st23{fill:#FCD802;stroke:#010202;stroke-width:1.4349;stroke-miterlimit:10;}
	.st24{fill:#FFFFFF;stroke:#010202;stroke-width:1.4349;stroke-miterlimit:10;}
	.st25{fill:none;stroke:#010202;stroke-width:1.4349;stroke-linecap:round;stroke-linejoin:round;stroke-miterlimit:10;}
	.st26{fill:#010202;}
	.st27{fill:#02A96B;stroke:#010202;stroke-width:0.75;stroke-miterlimit:10;}
	.st28{fill:#F7BA16;stroke:#010202;stroke-width:3.158;stroke-miterlimit:10;}
	.st29{fill:#FFFFFF;stroke:#010202;stroke-width:2.3588;stroke-miterlimit:10;}
	.st30{fill:#C21920;stroke:#010202;stroke-width:2.3588;stroke-miterlimit:10;}
	.st31{fill:#C21A21;stroke:#010202;stroke-width:1.1973;stroke-miterlimit:10;}
	.st32{fill:#70B966;stroke:#010202;stroke-miterlimit:10;}
	.st33{fill:#02A96B;}
	.st34{fill:#FFFFFF;stroke:#010202;stroke-width:2;stroke-miterlimit:10;}
	.st35{fill:#C21920;stroke:#010202;stroke-width:1.4407;stroke-miterlimit:10;}
	.st36{fill:#F8AB16;stroke:#010202;stroke-width:1.4407;stroke-miterlimit:10;}
	.st37{fill:#8E1963;stroke:#010202;stroke-width:1.4407;stroke-miterlimit:10;}
	.st38{fill:#FCD900;stroke:#010202;stroke-width:1.4407;stroke-miterlimit:10;}
	.st39{fill:#FFFFFF;stroke:#010202;stroke-width:1.8498;stroke-miterlimit:10;}
	.st40{fill:#8E1963;}
	.st41{fill:#8E1963;stroke:#010202;stroke-width:1.8764;stroke-miterlimit:10;}
	.st42{fill:#8E1963;stroke:#010202;stroke-width:1.4015;stroke-miterlimit:10;}
	.st43{fill:none;stroke:#010202;stroke-width:1.4015;stroke-linecap:round;stroke-linejoin:round;stroke-miterlimit:10;}
	.st44{fill:#C21920;stroke:#010202;stroke-width:1.8125;stroke-miterlimit:10;}
	.st45{fill:#FFFFFF;stroke:#010202;stroke-width:1.8478;stroke-miterlimit:10;}
	.st46{fill:#C21920;}
	.st47{fill:#F8AB16;stroke:#010202;stroke-width:1.7687;stroke-miterlimit:10;}
	.st48{fill:#F8AB16;}
	.st49{fill:#FCD900;}
	.st50{fill:none;stroke:#010202;stroke-width:1.6344;stroke-miterlimit:10;}
	.st51{fill:#FCD900;stroke:#010202;stroke-width:1.6344;stroke-miterlimit:10;}
	.st52{fill:#FFFFFF;stroke:#010202;stroke-width:0.9824;stroke-miterlimit:10;}
	.st53{fill:#C21920;stroke:#010202;stroke-width:0.4912;stroke-miterlimit:10;}
	.st54{fill:#8E1963;stroke:#010202;stroke-width:0.4912;stroke-miterlimit:10;}
	.st55{fill:#F8AB16;stroke:#010202;stroke-width:0.4912;stroke-miterlimit:10;}
	.st56{fill:#FFFFFF;stroke:#010202;stroke-width:2.0587;stroke-miterlimit:10;}
	.st57{fill:#8E1963;stroke:#010202;stroke-width:2.0883;stroke-miterlimit:10;}
	.st58{fill:#8E1963;stroke:#010202;stroke-width:1.5598;stroke-miterlimit:10;}
	.st59{fill:none;stroke:#010202;stroke-width:1.5598;stroke-linecap:round;stroke-linejoin:round;stroke-miterlimit:10;}
	.st60{fill:#C21920;stroke:#010202;stroke-width:2.0171;stroke-miterlimit:10;}
	.st61{fill:#FFFFFF;stroke:#010202;stroke-width:2.0565;stroke-miterlimit:10;}
	.st62{fill:#F8AB16;stroke:#010202;stroke-width:1.9685;stroke-miterlimit:10;}
	.st63{fill:#C11A22;stroke:#010202;stroke-width:2.0446;stroke-miterlimit:10;}
	.st64{fill:none;stroke:#010202;stroke-width:1.1741;stroke-miterlimit:10;}
	.st65{fill:#F7BA16;stroke:#010202;stroke-width:2.0446;stroke-miterlimit:10;}
	.st66{fill:#37AB4D;stroke:#010202;stroke-width:2.0446;stroke-miterlimit:10;}
	.st67{fill:#FFFFFF;stroke:#010202;stroke-width:1.3431;stroke-miterlimit:10;}
	.st68{fill:#FFFFFF;stroke:#010202;stroke-width:0.6716;stroke-miterlimit:10;}
	.st69{fill:#C21920;stroke:#010202;stroke-width:0.3358;stroke-miterlimit:10;}
	.st70{fill:#C21920;stroke:#010202;stroke-width:1.3431;stroke-miterlimit:10;}
	.st71{fill:#FFFFFF;stroke:#010202;stroke-width:1.3076;stroke-miterlimit:10;}
	.st72{fill:#C21920;stroke:#010202;stroke-width:1.3863;stroke-miterlimit:10;}
	.st73{fill:#FFFFFF;stroke:#010202;stroke-width:1.4948;stroke-miterlimit:10;}
	.st74{fill:#FFFFFF;stroke:#010202;stroke-width:0.7474;stroke-miterlimit:10;}
	.st75{fill:#C21920;stroke:#010202;stroke-width:0.3737;stroke-miterlimit:10;}
	.st76{fill:#C21920;stroke:#010202;stroke-width:1.4662;stroke-miterlimit:10;}
	.st77{fill:#F8AB16;stroke:#010202;stroke-width:0.3791;stroke-miterlimit:10;}
	.st78{fill:#F8AB16;stroke:#010202;stroke-width:1.4308;stroke-miterlimit:10;}
	.st79{fill:none;stroke:#010202;stroke-width:1.3222;stroke-miterlimit:10;}
	.st80{fill:#FCD900;stroke:#010202;stroke-width:0.3791;stroke-miterlimit:10;}
	.st81{fill:#FCD900;stroke:#010202;stroke-width:1.3222;stroke-miterlimit:10;}
	.st82{fill:#8E1963;stroke:#010202;stroke-width:0.3791;stroke-miterlimit:10;}
	.st83{fill:#8E1963;stroke:#010202;stroke-width:1.5163;stroke-miterlimit:10;}
	.st84{fill:#8E1963;stroke:#010202;stroke-width:1.1325;stroke-miterlimit:10;}
	.st85{fill:none;stroke:#010202;stroke-width:1.1325;stroke-linecap:round;stroke-linejoin:round;stroke-miterlimit:10;}
	.st86{fill:#FFFFFF;stroke:#010202;stroke-width:1.4206;stroke-miterlimit:10;}
	.st87{fill:#FFFFFF;stroke:#010202;stroke-width:0.7103;stroke-miterlimit:10;}
	.st88{fill:#C21920;stroke:#010202;stroke-width:0.3551;stroke-miterlimit:10;}
	.st89{fill:#C21920;stroke:#010202;stroke-width:1.4206;stroke-miterlimit:10;}
	.st90{fill:#FFFFFF;stroke:#010202;stroke-width:1.383;stroke-miterlimit:10;}
	.st91{fill:#FAEA2F;stroke:#010202;stroke-width:0.3551;stroke-miterlimit:10;}
	.st92{fill:#F8AB16;stroke:#010202;stroke-width:1.4205;stroke-miterlimit:10;}
	.st93{fill:#8E1963;stroke:#010202;stroke-width:1.6044;stroke-miterlimit:10;}
	.st94{fill:none;stroke:#010202;stroke-width:1.6044;stroke-linecap:round;stroke-linejoin:round;stroke-miterlimit:10;}
	.st95{fill:#FCD900;stroke:#010202;stroke-width:1.6789;stroke-miterlimit:10;}
	.st96{fill:#37AB4D;stroke:#010202;stroke-width:2;stroke-miterlimit:10;}
	.st97{fill:#C21920;stroke:#010202;stroke-width:1.7323;stroke-miterlimit:10;}
	.st98{fill:none;stroke:#C21A21;stroke-width:3.8955;stroke-linecap:round;stroke-linejoin:round;stroke-miterlimit:10;}
	.st99{fill:#333333;}
	.st100{fill:#FCD901;stroke:#010202;stroke-width:1.3419;stroke-miterlimit:10;}
	.st101{fill:#8E1963;stroke:#010202;stroke-width:1.216;stroke-miterlimit:10;}
	.st102{fill:none;stroke:#010202;stroke-width:1.216;stroke-linecap:round;stroke-linejoin:round;stroke-miterlimit:10;}
	.st103{fill:#F8AB16;stroke:#010202;stroke-width:1.5252;stroke-miterlimit:10;}
	.st104{opacity:0.52;fill:#7A8084;}
	.st105{fill:#2856A2;stroke:#010202;stroke-width:0.8146;stroke-miterlimit:10;}
	.st106{fill:#FFFFFF;stroke:#010202;stroke-width:0.3123;stroke-miterlimit:10;}
	.st107{fill:#FFFFFF;stroke:#010202;stroke-width:0.0923;stroke-miterlimit:10;}
	.st108{fill:#F7BA16;stroke:#010202;stroke-width:0.0612;stroke-miterlimit:10;}
	.st109{fill:#E63329;stroke:#010202;stroke-width:0.0612;stroke-miterlimit:10;}
	.st110{fill:#37AB4D;stroke:#010202;stroke-width:0.0612;stroke-miterlimit:10;}
	.st111{fill:#FFFFFF;stroke:#010202;stroke-width:0.0764;stroke-miterlimit:10;}
	.st112{fill:#F7BA16;stroke:#010202;stroke-width:0.0506;stroke-miterlimit:10;}
	.st113{fill:#E63329;stroke:#010202;stroke-width:0.0506;stroke-miterlimit:10;}
	.st114{fill:#37AB4D;stroke:#010202;stroke-width:0.0506;stroke-miterlimit:10;}
	.st115{fill:#179552;stroke:#010202;stroke-width:0.8326;stroke-miterlimit:10;}
	.st116{fill:#F7BA16;stroke:#010202;stroke-width:0.8146;stroke-miterlimit:10;}
	.st117{fill:#FFFFFF;stroke:#010202;stroke-width:0.4197;stroke-miterlimit:10;}
	.st118{fill:#E73836;stroke:#010202;stroke-width:0.1809;stroke-miterlimit:10;}
	.st119{fill:#D4D7EE;stroke:#010202;stroke-width:1.001;stroke-miterlimit:10;}
	.st120{fill:#FFFFFF;stroke:#010202;stroke-width:1.1881;stroke-miterlimit:10;}
	.st121{fill:#FFFFFF;stroke:#191919;stroke-width:0.9977;stroke-miterlimit:10;}
	.st122{fill:#C11A21;}
	.st123{fill:#2957A2;}
	.st124{fill:#D4D7EE;stroke:#010202;stroke-width:0.8539;stroke-miterlimit:10;}
	.st125{fill:#F7BA16;stroke:#010202;stroke-width:2.0392;stroke-miterlimit:10;}
	.st126{fill:none;stroke:#010202;stroke-width:1.171;stroke-miterlimit:10;}
	.st127{fill:#F7BA16;stroke:#010202;stroke-width:0.748;stroke-miterlimit:10;}
	.st128{fill:none;stroke:#010202;stroke-width:0.4027;stroke-miterlimit:10;}
	.st129{fill:#C11A22;stroke:#010202;stroke-width:0.3652;stroke-miterlimit:10;}
	.st130{fill:#C11A22;stroke:#010202;stroke-width:0.7033;stroke-miterlimit:10;}
</style>
<g>
	<g>
		<polygon class="st28" points="674.4,289.39 441.3,451.65 438.61,453.51 438.1,453.16 202.82,289.39 438.03,130.77 438.61,130.37 
			439.19,130.77 		"/>
		<polygon class="st29" points="760.41,289.38 479.26,479.41 438.61,453.51 441.3,451.65 675.24,289.38 714.18,320.33 		"/>
		<polygon class="st29" points="760.41,289.38 715.86,259.61 675.24,289.38 439.62,129.91 480.56,101.6 		"/>
		<polygon class="st30" points="760.41,289.38 714.18,320.33 675.24,289.38 715.86,259.61 		"/>
	</g>
	<g>
		<polygon class="st29" points="437.69,129.76 201.98,289.38 161.36,259.61 116.8,289.38 396.66,101.6 		"/>
		<polygon class="st29" points="438.1,453.16 397.96,479.41 116.8,289.38 163.05,320.33 201.98,289.38 		"/>
		<polygon class="st30" points="201.98,289.38 163.05,320.33 116.8,289.38 161.36,259.61 		"/>
	</g>
</g>
<g>
	<g>
		<g>
			<g>
				<polygon class="st52" points="397.25,335.4 344.01,335.4 345.33,329.47 395.75,329.47 				"/>
				<polygon class="st53" points="347.45,329.42 354.32,329.42 356.35,335.4 345.41,335.4 				"/>
				<polygon class="st53" points="360.44,329.42 367.31,329.42 369.35,335.4 358.41,335.4 				"/>
				<polygon class="st53" points="373.5,329.42 380.36,329.42 382.4,335.4 371.46,335.4 				"/>
				<polygon class="st53" points="386.86,329.42 393.73,329.42 395.76,335.4 384.82,335.4 				"/>
			</g>
		</g>
	</g>
	<g>
		<g>
			<g>
				<polygon class="st52" points="534.75,334.29 481.51,334.29 482.83,328.36 533.24,328.36 				"/>
				<polygon class="st54" points="484.95,328.31 491.81,328.31 493.85,334.29 482.91,334.29 				"/>
				<polygon class="st54" points="497.94,328.31 504.81,328.31 506.84,334.29 495.9,334.29 				"/>
				<polygon class="st54" points="510.99,328.31 517.86,328.31 519.9,334.29 508.96,334.29 				"/>
				<polygon class="st54" points="524.36,328.31 531.23,328.31 533.26,334.29 522.32,334.29 				"/>
			</g>
		</g>
	</g>
	<g>
		<g>
			<g>
				<polygon class="st52" points="466.3,410.45 413.07,410.45 414.38,404.52 464.8,404.52 				"/>
				<polygon class="st55" points="416.5,404.47 423.37,404.47 425.41,410.45 414.47,410.45 				"/>
				<polygon class="st55" points="429.5,404.47 436.36,404.47 438.4,410.45 427.46,410.45 				"/>
				<polygon class="st55" points="442.55,404.47 449.42,404.47 451.45,410.45 440.51,410.45 				"/>
				<polygon class="st55" points="455.91,404.47 462.78,404.47 464.82,410.45 453.88,410.45 				"/>
			</g>
		</g>
	</g>
	<g>
		<g>
			<g>
				<path class="st56" d="M564.67,275.27c-0.38,7.12-2.46,14.81-6.97,22.64c0,0-7.68,15.63-28.09,19.88
					c-0.9,0.18-1.83,0.27-2.74,0.27h-38.68c-1.56,0-3.11-0.25-4.59-0.76c-4.04-1.43-12.51-4.9-19.91-11.05
					c-7.01-5.82-11.49-14.14-13.02-23.12c-0.8-4.68-1.25-10.5-0.44-16.63c0.22-1.71,0.55-3.46,1-5.2
					c1.41-5.59,4.04-11.22,8.56-16.32c5.24-5.9,12.25-9.91,19.87-12c10.91-3.01,31.7-6.9,53.58-1.31
					c8.3,2.13,15.86,6.57,21.48,13.03c3.42,3.94,6.45,9.24,8.25,15.48C564.31,264.75,564.97,269.85,564.67,275.27z"/>
				<g>
					<ellipse class="st26" cx="525.83" cy="269.62" rx="6.5" ry="9.88"/>
					<ellipse class="st26" cx="490.64" cy="269.62" rx="6.5" ry="9.88"/>
				</g>
				<g>
					<ellipse class="st40" cx="533.58" cy="289.93" rx="6.43" ry="2.91"/>
					<ellipse class="st40" cx="482.89" cy="289.93" rx="6.43" ry="2.91"/>
				</g>
				<path class="st57" d="M510.74,303.8c0,0-9.23,0.55-8.11-6.42c0.02-0.13,0.14-0.24,0.27-0.24h13.85
					C516.75,297.14,517.91,303.39,510.74,303.8z"/>
			</g>
		</g>
		<g>
			<g>
				<path class="st58" d="M571.91,281.95c0,0-1.23,6.29-7.25,8.4c-4.1,1.44-8.73,0.34-11.79-2.74c-2.83-2.85-5.27-7.94-2.68-16.66
					c0,0,5.88-18.79,32.17-23.92c1.79-0.35,3.64-0.38,5.41,0.06c2.4,0.59,5.03,2.07,4.53,5.73c-0.2,1.48-0.91,2.83-1.93,3.92
					c-1.26,1.35-3.35,3.39-5.45,4.52c0,0,7.4,1.28,3.83,8.17c0,0-2.06,3.46-5.36,4.6c0,0,3.27,3.03,0.22,5.99
					c-0.95,0.92-2.19,1.49-3.5,1.72C578.27,282.06,574.98,282.46,571.91,281.95z"/>
				<path class="st59" d="M560.17,280.41c0,0-2.35-5.47,2.88-6.16c1.78-0.23,3.58,0.2,5.12,1.11c1.91,1.13,4.2,3.21,3.74,6.58"/>
				<path class="st59" d="M577.47,263.28c0,0,5.7-0.81,7.47-2.01"/>
				<path class="st59" d="M578.55,273.52c0,0,2.81,1.28,4.85,0.51"/>
			</g>
			<g>
				<path class="st58" d="M444.35,281.41c0,0,1.23,6.29,7.25,8.4c4.1,1.44,8.73,0.34,11.79-2.74c2.83-2.85,5.27-7.94,2.68-16.66
					c0,0-5.88-18.79-32.17-23.92c-1.79-0.35-3.64-0.38-5.41,0.06c-2.4,0.59-5.03,2.07-4.53,5.73c0.2,1.48,0.91,2.83,1.93,3.92
					c1.26,1.35,3.35,3.39,5.45,4.52c0,0-7.4,1.28-3.83,8.17c0,0,2.06,3.46,5.36,4.6c0,0-3.27,3.03-0.22,5.99
					c0.95,0.92,2.19,1.49,3.5,1.72C437.98,281.53,441.28,281.92,444.35,281.41z"/>
				<path class="st59" d="M456.09,279.88c0,0,2.35-5.47-2.88-6.16c-1.78-0.23-3.58,0.2-5.12,1.11c-1.91,1.13-4.2,3.21-3.74,6.58"/>
				<path class="st59" d="M438.79,262.74c0,0-5.7-0.81-7.47-2.01"/>
				<path class="st59" d="M437.71,272.99c0,0-2.81,1.28-4.85,0.51"/>
			</g>
		</g>
	</g>
	<g>
		<g>
			<g>
				<path class="st60" d="M427.26,261.34l-112.04,1.44c-1.3-2.96-2.81-7.58-3.27-10.76c-3.59-24.66,22.83-43.82,44.97-34.11
					c4.3,1.88,7.97,5.08,12.12,8.25c0.86,0.66,1.58,1.3,2.51,1.94c0.56-0.53,1.08-1.1,1.76-1.86c0.07-0.07,0.13-0.1,0.17-0.17
					c8.78-9.55,19.56-12.99,32.02-9.53c12.54,3.49,20.14,12.31,23.23,24.76C430.54,248.72,429.46,254.89,427.26,261.34z"/>
				<path class="st61" d="M428.98,276.43c-0.38,7.11-2.46,14.8-6.96,22.62c0,0-7.67,15.61-28.06,19.86
					c-0.9,0.18-1.83,0.27-2.74,0.27h-38.64c-1.56,0-3.11-0.25-4.58-0.76c-4.04-1.42-12.49-4.89-19.89-11.04
					c-7-5.82-11.48-14.12-13-23.1c-0.79-4.68-1.25-10.49-0.43-16.61c0.22-1.71,0.55-3.45,1-5.2c1.41-5.58,4.04-11.21,8.55-16.31
					c5.23-5.9,12.24-9.9,19.84-11.99c10.89-3.01,31.67-6.89,53.52-1.31c8.29,2.13,15.84,6.56,21.45,13.02
					c3.42,3.94,6.44,9.23,8.24,15.46C428.61,265.92,429.27,271.02,428.98,276.43z"/>
				<g>
					<path class="st46" d="M378.36,247.36c-1.14,1.27-2.42,2.42-3.67,3.58c-0.83,0.77-1.72,1.47-2.59,2.21
						c-0.26,0.22-0.52,0.35-0.83,0.07c-1.98-1.77-3.99-3.49-5.91-5.32c-1.09-1.04-1.74-2.37-1.86-3.94c-0.25-3.43,3.15-6.05,6.2-4.7
						c0.71,0.31,1.31,0.89,2.04,1.41c0.04-0.05,0.14-0.17,0.25-0.28c1.21-1.32,2.7-1.79,4.41-1.31c1.73,0.48,2.78,1.7,3.2,3.41
						C380.06,244.32,379.59,245.99,378.36,247.36z"/>
				</g>
				<g>
					<ellipse class="st26" cx="390.17" cy="270.79" rx="6.5" ry="9.86"/>
					<ellipse class="st26" cx="355.02" cy="270.79" rx="6.5" ry="9.86"/>
				</g>
				<g>
					<ellipse class="st46" cx="397.91" cy="291.07" rx="6.42" ry="2.9"/>
					<ellipse class="st46" cx="347.28" cy="291.07" rx="6.42" ry="2.9"/>
				</g>
				<path class="st60" d="M375.1,304.93c0,0-9.22,0.55-8.1-6.41c0.02-0.13,0.14-0.24,0.27-0.24h13.83
					C381.11,298.28,382.26,304.52,375.1,304.93z"/>
			</g>
		</g>
	</g>
	<g>
		<g>
			<path class="st62" d="M501.09,331.54c-0.33,0.38-0.65,0.75-0.96,1.13c-2.46,3-3.63,6.8-3.4,10.68c-0.29-1.48-0.63-2.92-1.04-4.32
				c-1.79-6.24-4.82-11.54-8.24-15.48c-5.61-6.45-13.16-10.89-21.44-13.02c-21.86-5.57-42.64-1.69-53.53,1.31
				c-7.59,2.11-14.6,6.09-19.84,11.99c-4.53,5.09-7.13,10.72-8.55,16.31c-0.29,1.11-0.54,2.21-0.71,3.32
				c0.42-3.61-0.56-7.26-2.8-10.14c-0.67-0.9-1.4-1.77-2.13-2.65c-6.65-7.82-3.15-20.11,6.82-22.55
				c18.44-4.51,32.92-13.87,42.55-30.39c5.26-9.01,18.19-9.55,23.63-0.67c9.95,16.35,23.07,27.79,41.76,32.04
				C503.43,311.43,507.85,323.57,501.09,331.54z"/>
			<g>
				<path class="st61" d="M497.31,354.11c-0.38,7.11-2.46,14.8-6.96,22.62c0,0-7.67,15.61-28.06,19.86
					c-0.9,0.18-1.83,0.27-2.74,0.27H420.9c-1.56,0-3.11-0.25-4.58-0.76c-4.04-1.42-12.49-4.89-19.89-11.04
					c-7-5.82-11.48-14.12-13-23.1c-0.79-4.68-1.25-10.49-0.43-16.61c0.22-1.71,0.55-3.45,1-5.2c1.41-5.58,4.04-11.21,8.55-16.31
					c5.23-5.9,12.24-9.9,19.84-11.99c10.89-3.01,31.67-6.89,53.52-1.31c8.29,2.13,15.84,6.56,21.45,13.02
					c3.42,3.94,6.44,9.23,8.24,15.46C496.94,343.6,497.61,348.7,497.31,354.11z"/>
				<g>
					<ellipse class="st26" cx="458.5" cy="348.47" rx="6.5" ry="9.86"/>
					<ellipse class="st26" cx="423.35" cy="348.47" rx="6.5" ry="9.86"/>
				</g>
				<g>
					<ellipse class="st48" cx="466.24" cy="368.75" rx="6.42" ry="2.9"/>
					<ellipse class="st48" cx="415.61" cy="368.75" rx="6.42" ry="2.9"/>
				</g>
				<path class="st62" d="M443.44,382.61c0,0-9.22,0.55-8.1-6.41c0.02-0.13,0.14-0.24,0.27-0.24h13.83
					C449.44,375.96,450.59,382.2,443.44,382.61z"/>
			</g>
		</g>
	</g>
</g>
</svg>
