<svg version="1.2" xmlns="http://www.w3.org/2000/svg" viewBox="0 0 53 39" width="53" height="39"><style>.a{fill:#2856a2;stroke:#010202;stroke-width:.8}.b{fill:#fff;stroke:#010202;stroke-width:.4}.c{fill:#f7ba16;stroke:#010202;stroke-width:.4}.d{fill:#e63329;stroke:#010202;stroke-width:.4}.e{fill:#37ab4d;stroke:#010202;stroke-width:.4}.f{fill:#fff}</style><path class="a" d="m52.2 19.1l-0.2 0.4-6.3 12.4c-1.8 3.5-5.4 5.7-9.3 5.7h-19.8c-3.9 0-7.5-2.2-9.3-5.7l-6.4-12.4-0.2-0.4 0.2-0.4 6.4-12.4c1.8-3.5 5.4-5.7 9.3-5.7h19.8c3.9 0 7.5 2.2 9.3 5.7l6.3 12.4z"/><path class="b" d="m36.8 10.5c0.3 6.1-10 8.2-10 8.2v-15.7c10 1.8 10 7.5 10 7.5z"/><path class="b" d="m28.6 18.3v-14.9l1.5 0.4v14z"/><path class="c" d="m30.1 4.5v2.8l-1.5-0.5v-1.8z"/><path class="d" d="m30.1 9.6v2.9l-1.5-0.6v-1.7z"/><path class="e" d="m30.1 14.8v2.8l-1.5-0.5v-1.8z"/><path class="b" d="m31.7 17v-12.5l1.3 0.6v11.2z"/><path class="c" d="m33 5.4v2.3l-1.3-0.4v-1.5z"/><path class="d" d="m33 9.7v2.3l-1.3-0.4v-1.5z"/><path class="e" d="m33 13.9v2.4l-1.3-0.5v-1.4z"/><path class="b" d="m26.2 27.6c0.3 6.2-10.1 8.2-10.1 8.2v-15.7c10.1 1.9 10.1 7.5 10.1 7.5z"/><path class="b" d="m17.9 35.4v-14.9l1.6 0.4v14z"/><path class="c" d="m19.5 21.6v2.8l-1.6-0.5v-1.8z"/><path class="d" d="m19.5 26.8v2.8l-1.6-0.5v-1.8z"/><path class="e" d="m19.5 31.9v2.8l-1.6-0.5v-1.8z"/><path class="b" d="m21.1 34.1v-12.5l1.2 0.6v11.2z"/><path class="c" d="m22.3 22.5v2.4l-1.2-0.5v-1.4z"/><path class="d" d="m22.3 26.8v2.3l-1.2-0.4v-1.5z"/><path class="e" d="m22.3 31v2.4l-1.2-0.5v-1.4z"/><path class="f" d="m18.2 13.7q-0.6 0-1.2 0c-1 0-4.4 0-5.4 0-0.2 0-0.3-0.2-0.4-0.4q0 0 0 0 0 0 0-0.1c0-1.2 0-0.9 0-2.1q0-0.1 0-0.1c0-0.1 0.1-0.3 0.3-0.3q0.3 0 0.5 0c1.2 0 4.9 0 6.2 0q0 0 0 0 0 0 0 0 0 0 0 0c-1.4 0-5.2 0-6.6 0q0 0 0 0 0-0.1 0-0.1c1.4 0 5.2 0 6.6 0q0 0.1 0 0c0-0.6 0-1.7 0-2.2q0-0.2 0.2-0.3c0.1-0.2 0.4-0.2 0.5 0q0.9 1 1.7 1.9 0.8 1 1.7 1.9 0.1 0.1 0.1 0.2c0.1 0.1 0.1 0.3 0 0.4q-0.2 0.3-0.5 0.6-0.7 0.8-1.5 1.6-0.7 0.8-1.3 1.5-0.1 0.1-0.2 0.2c-0.1 0.1-0.3 0.2-0.5 0.1-0.1 0-0.2-0.2-0.2-0.4 0-0.4 0-1.6 0-2q0 0 0-0.1 0 0.2 0 0.3 0 0 0 0 0-0.2 0-0.3 0-0.2 0-0.3 0 0 0 0z"/><path class="f" d="m11.2 11q0 0 0 0.1c0 1.2 0 1 0 2.2q0 0 0 0 0 0 0-0.1c0-1.1 0-0.9 0-2.1q0 0 0-0.1z"/><path class="f" d="m11.6 10.7q0 0 0 0c1.4 0 5.2 0 6.6 0q0 0 0 0 0 0 0 0c-1.4 0-5.2 0-6.6 0 0 0-0.1 0-0.1 0q0 0 0.1 0z"/><path class="f" d="m18.2 13.7q0 0 0 0 0 0.3 0 0.6 0 0 0 0 0-0.1 0-0.2 0-0.2 0-0.4z"/></svg>