<svg version="1.2" xmlns="http://www.w3.org/2000/svg" viewBox="0 0 101 124" width="101" height="124"><style>.a{fill:#fff;stroke:#010202;stroke-width:1.4}.b{fill:#fff;stroke:#010202;stroke-width:.7}.c{fill:#8e1963;stroke:#010202;stroke-width:.4}.d{fill:#010202}.e{fill:#8e1963}.f{fill:#8e1963;stroke:#010202;stroke-width:1.6}.g{fill:none;stroke:#010202;stroke-linecap:round;stroke-linejoin:round;stroke-width:1.6}</style><path class="a" d="m44.8 95.2v-26.3l21.3-0.2c16.7 22.4-3.9 36.8-3.9 36.8 0 0-1.9 5.5-7.7 5.4 0 0-3.6 0.2-7.2-7.1 0 0-0.4-0.7-1.5-3.2-0.7-1.7-1-3.5-1-5.4z"/><path class="b" d="m45 76.1h25.5l1 4.8h-26.6z"/><path class="c" d="m70.4 80.9h-8.8l1.6-4.8h5.6z"/><path class="c" d="m59.9 80.9h-8.9l1.7-4.8h5.5z"/><path class="c" d="m49.3 80.9h-4.4l0.2-4.8h2.6z"/><path class="b" d="m44.8 90.4h27.3l-1.2 4.8h-25.9z"/><path class="c" d="m70.4 95.2h-8.8l1.6-4.8h5.6z"/><path class="c" d="m59.9 95.2h-8.9l1.7-4.8h5.5z"/><path class="c" d="m49.3 95.2h-4l0.1-4.8h2.3z"/><path class="a" d="m53.9 67.6c0 0 3.8 7.3 3.3 13.8-0.3 3.7-3.6 6.8-7.3 6.3-2-0.2-3.8-1.3-4.6-4.4v-17c0 0 4.8 2.4 8.6 1.3z"/><path class="a" d="m73.7 2.8c0 0 26.4 6.2 26.3 34.3-0.1 10.4-5 20.4-14 26.2-4.9 3.2-11.4 5.6-19.8 5.2 0 0-19.9 1-29.7-1.2 0 0-18.7-4.9-20.7-21.8 0 0-5.9-26.6 14.8-38.3 0.1 0 17.9-9.7 43.1-4.4z"/><path class="d" d="m75.5 40c-3.6 0-6.5-4.5-6.5-9.9 0-5.5 2.9-9.9 6.5-9.9 3.6 0 6.5 4.4 6.5 9.9 0 5.4-2.9 9.9-6.5 9.9z"/><path class="a" d="m62.1 116c2.1 5.9-2.4 8.2-8.5 7q-0.1-0.1-0.3-0.1c-3.6-0.8-6.1-4.2-6.1-7.9l-0.5-12.4c6.3 5.5 16.4 2.2 16.4 2.2 0.6 1.6-2 8.1-1 11.2z"/><path class="e" d="m47.8 115c0 0 7.3 0.9 13.4 0 0 0 3.3 7-3.5 7.6 0 0-9.6 1.3-9.9-7.6z"/><path class="a" d="m68.2 116c2 5.9-2.5 8.2-8.6 7q-0.1 0-0.2-0.1c-3.7-0.8-6.2-4.1-6.2-7.9l-0.5-9.5c9.7 1.8 13.7-3.5 13.7-3.5 0.6 1.6 0.7 10.9 1.8 14z"/><path class="e" d="m53.9 115c0 0 7.2 0.9 13.4 0 0 0 3.2 7-3.6 7.6 0 0-9.6 1.3-9.8-7.6z"/><path class="f" d="m13.5 41.8c-1.3-0.2-2.6-0.8-3.6-1.7-3.1-3.1 0.2-6.2 0.2-6.2-3.4-1.2-5.5-4.7-5.5-4.7-3.7-7.1 4-8.4 4-8.4-2.2-1.2-4.3-3.3-5.6-4.7-1.1-1.1-1.8-2.5-2-4-0.5-3.8 2.2-5.3 4.6-5.9 1.9-0.5 3.8-0.4 5.6-0.1 27 5.3 33.1 24.6 33.1 24.6 2.7 9 0.1 14.2-2.8 17.2-3.1 3.1-7.9 4.3-12.1 2.8-6.2-2.2-7.4-8.7-7.4-8.7-3.2 0.6-6.6 0.2-8.5-0.2z"/><path class="g" d="m21.9 42.1c-0.4-3.5 1.9-5.6 3.9-6.8 1.6-0.9 3.4-1.4 5.3-1.2 5.3 0.7 2.9 6.4 2.9 6.4"/><path class="g" d="m16.2 22.8c0 0-5.8-0.8-7.6-2"/><path class="g" d="m15.1 33.4c0 0-2.9 1.3-5 0.5"/><path class="e" d="m81.6 51.9c-2.6 0-4.7-1-4.7-2.2 0-1.1 2.1-2.1 4.7-2.1 2.6 0 4.7 1 4.7 2.1 0 1.2-2.1 2.2-4.7 2.2z"/><path class="e" d="m56.4 81.7c-0.4 4-4 5.2-4 5.2-5.6 1.5-6.4-3.6-6.4-3.6v-1.6z"/><path class="f" d="m97.7 46.9c-1.6-0.1-5.6-0.4-4.9-4.5q0-0.2 0.2-0.2h5.8z"/></svg>