<svg version="1.2" xmlns="http://www.w3.org/2000/svg" viewBox="0 0 101 125" width="101" height="125"><style>.a{fill:#fff;stroke:#010202;stroke-width:1.4}.b{fill:#fff;stroke:#010202;stroke-width:.7}.c{fill:#8e1963;stroke:#010202;stroke-width:.4}.d{fill:#010202}.e{fill:#8e1963;stroke:#010202;stroke-width:1.6}.f{fill:none;stroke:#010202;stroke-linecap:round;stroke-linejoin:round;stroke-width:1.6}.g{fill:#8e1963}.h{fill:#fff;stroke:#010202;stroke-linecap:round;stroke-linejoin:round;stroke-width:1.4}</style><path class="a" d="m45.1 94.8v-26.4l21.4-0.2c16.6 22.5-3.9 36.9-3.9 36.9 0 0-1.9 5.4-7.7 5.3 0 0-3.6 0.2-7.3-7 0 0-0.4-0.8-1.4-3.3-0.7-1.7-1.1-3.5-1.1-5.3z"/><path class="b" d="m45.4 75.6h25.5l1 4.8h-26.6z"/><path class="c" d="m70.8 80.4h-8.9l1.7-4.8h5.5z"/><path class="c" d="m60.3 80.4h-8.9l1.7-4.8h5.5z"/><path class="c" d="m49.7 80.4h-4.4l0.2-4.8h2.5z"/><path class="b" d="m45.2 89.9h27.3l-1.3 4.8h-25.9z"/><path class="c" d="m70.8 94.8h-8.9l1.7-4.9h5.5z"/><path class="c" d="m60.3 94.8h-8.9l1.7-4.9h5.5z"/><path class="c" d="m49.7 94.8h-4l0.1-4.9h2.2z"/><path class="a" d="m54.3 67.1c0 0 3.8 7.3 3.3 13.8-0.4 3.8-3.6 6.8-7.4 6.4-1.9-0.2-3.8-1.3-4.5-4.5v-17c0 0 4.7 2.4 8.6 1.3z"/><path class="a" d="m74 2.4c0 0 26.5 6.1 26.4 34.2-0.1 10.4-5 20.4-14 26.3-4.9 3.2-11.4 5.5-19.8 5.2 0 0-19.9 0.9-29.7-1.3 0 0-18.7-4.9-20.7-21.8 0 0-5.9-26.5 14.8-38.3 0 0 17.9-9.7 43-4.3z"/><path class="d" d="m75.8 39.5c-3.5 0-6.5-4.4-6.5-9.9 0-5.4 3-9.9 6.5-9.9 3.6 0 6.5 4.5 6.5 9.9 0 5.5-2.9 9.9-6.5 9.9z"/><path class="e" d="m13.9 41.3c-1.4-0.2-2.6-0.8-3.6-1.7-3.2-3.1 0.2-6.2 0.2-6.2-3.4-1.1-5.5-4.7-5.5-4.7-3.7-7.1 3.9-8.4 3.9-8.4-2.1-1.2-4.3-3.3-5.6-4.7-1-1.1-1.8-2.5-2-4-0.5-3.8 2.2-5.3 4.7-5.9 1.8-0.4 3.7-0.4 5.6 0 27 5.2 33.1 24.6 33.1 24.6 2.6 8.9 0.1 14.2-2.8 17.1-3.1 3.2-7.9 4.3-12.1 2.8-6.2-2.2-7.5-8.6-7.5-8.6-3.1 0.5-6.5 0.1-8.4-0.3z"/><path class="f" d="m22.3 41.6c-0.5-3.5 1.9-5.6 3.9-6.8 1.6-0.9 3.4-1.4 5.2-1.1 5.4 0.7 3 6.3 3 6.3"/><path class="f" d="m16.6 22.4c0 0-5.8-0.9-7.7-2.1"/><path class="f" d="m15.5 32.9c0 0-2.9 1.3-5 0.5"/><path class="g" d="m82 51.4c-2.6 0-4.7-1-4.7-2.1 0-1.2 2.1-2.1 4.7-2.1 2.6 0 4.6 0.9 4.6 2.1 0 1.1-2 2.1-4.6 2.1z"/><path class="g" d="m56.8 81.2c-0.5 4-4.1 5.2-4.1 5.2-5.5 1.5-6.3-3.5-6.3-3.5v-1.7z"/><path class="e" d="m98.1 46.4c-1.7-0.1-5.6-0.4-4.9-4.5q0-0.1 0.2-0.1h5.8z"/><path class="a" d="m58.8 117.3c0.8 6.2-4.1 7.5-9.8 5q-0.1-0.1-0.2-0.1c-3.4-1.6-5.2-5.4-4.4-9.1l2.2-12.1c5 6.7 15.5 5.5 15.5 5.5 0.3 1.7-3.7 7.5-3.3 10.8z"/><path class="g" d="m45 113.3c0 0 7 2.4 13.1 2.8 0 0 1.8 7.5-5 6.7 0 0-9.7-0.8-8.1-9.5z"/><path class="h" d="m74.7 111.5c3.9 5 0.4 8.6-5.8 9.4q-0.2 0-0.3 0.1c-3.7 0.4-7.2-2-8.4-5.5l-3.5-8.9c9.8-1.4 12-7.7 12-7.7 1.1 1.3 4 10.1 6 12.6z"/><path class="g" d="m60.9 115.2c0 0 7.1-1.5 12.6-4.3 0 0 5.4 5.5-0.9 8.3 0 0-8.6 4.4-11.7-4z"/></svg>