<svg version="1.2" xmlns="http://www.w3.org/2000/svg" viewBox="0 0 101 125" width="101" height="125"><style>.a{fill:#fff;stroke:#010202;stroke-width:1.4}.b{fill:#fff;stroke:#010202;stroke-width:.7}.c{fill:#8e1963;stroke:#010202;stroke-width:.4}.d{fill:#010202}.e{fill:#8e1963;stroke:#010202;stroke-width:1.6}.f{fill:none;stroke:#010202;stroke-linecap:round;stroke-linejoin:round;stroke-width:1.6}.g{fill:#8e1963}.h{fill:#fff;stroke:#010202;stroke-linecap:round;stroke-linejoin:round;stroke-width:1.4}</style><path class="a" d="m44.7 94.6v-26.3l21.4-0.2c16.6 22.4-3.9 36.8-3.9 36.8 0 0-1.9 5.5-7.7 5.4 0 0-3.6 0.2-7.3-7.1 0 0-0.4-0.7-1.4-3.2-0.7-1.7-1.1-3.5-1.1-5.4z"/><path class="b" d="m45 75.5h25.4l1.1 4.8h-26.6z"/><path class="c" d="m70.4 80.3h-8.9l1.7-4.8h5.5z"/><path class="c" d="m59.8 80.3h-8.8l1.6-4.8h5.6z"/><path class="c" d="m49.3 80.3h-4.4l0.2-4.8h2.5z"/><path class="b" d="m44.8 89.8h27.3l-1.3 4.8h-25.9z"/><path class="c" d="m70.4 94.6h-8.9l1.7-4.8h5.5z"/><path class="c" d="m59.8 94.6h-8.8l1.6-4.8h5.6z"/><path class="c" d="m49.3 94.6h-4.1l0.2-4.8h2.2z"/><path class="a" d="m53.9 67c0 0 3.8 7.3 3.3 13.8-0.4 3.7-3.6 6.8-7.4 6.3-1.9-0.2-3.8-1.3-4.5-4.4v-17c0 0 4.7 2.4 8.6 1.3z"/><path class="a" d="m73.6 2.2c0 0 26.4 6.2 26.3 34.3 0 10.4-5 20.4-14 26.3-4.8 3.1-11.3 5.5-19.7 5.1 0 0-19.9 1-29.7-1.2 0 0-18.7-4.9-20.7-21.8 0 0-5.9-26.6 14.8-38.3 0 0 17.9-9.7 43-4.4z"/><path class="d" d="m75.4 39.3c-3.6 0-6.5-4.4-6.5-9.8 0-5.5 2.9-9.9 6.5-9.9 3.6 0 6.5 4.4 6.5 9.9 0 5.4-2.9 9.8-6.5 9.8z"/><path class="e" d="m13.5 41.2c-1.4-0.2-2.7-0.8-3.6-1.7-3.2-3.1 0.2-6.2 0.2-6.2-3.4-1.2-5.5-4.7-5.5-4.7-3.7-7.1 3.9-8.4 3.9-8.4-2.1-1.2-4.3-3.3-5.6-4.7-1-1.1-1.8-2.5-2-4-0.5-3.8 2.2-5.3 4.7-5.9 1.8-0.5 3.7-0.4 5.6-0.1 27 5.3 33 24.6 33 24.6 2.7 9 0.2 14.2-2.7 17.2-3.2 3.1-7.9 4.3-12.1 2.8-6.2-2.2-7.5-8.7-7.5-8.7-3.1 0.6-6.5 0.2-8.4-0.2z"/><path class="f" d="m21.9 41.5c-0.5-3.5 1.9-5.6 3.9-6.8 1.5-0.9 3.4-1.4 5.2-1.2 5.4 0.7 3 6.4 3 6.4"/><path class="f" d="m16.2 22.3c0-0.1-5.9-0.9-7.7-2.1"/><path class="f" d="m15.1 32.8c0 0-2.9 1.3-5 0.5"/><path class="g" d="m81.5 51.3c-2.5 0-4.6-1-4.6-2.2 0-1.1 2.1-2.1 4.6-2.1 2.6 0 4.7 1 4.7 2.1 0 1.2-2.1 2.2-4.7 2.2z"/><path class="g" d="m56.4 81.1c-0.5 4-4.1 5.2-4.1 5.2-5.5 1.5-6.4-3.6-6.4-3.6v-1.6z"/><path class="e" d="m97.7 46.3c-1.7-0.1-5.6-0.4-4.9-4.5q0-0.2 0.2-0.2h5.8z"/><path class="a" d="m73 109.6c5.2 3.6 2.9 8.1-2.8 10.7q-0.1 0.1-0.2 0.1c-3.4 1.5-7.4 0.3-9.6-2.8l-7.7-9.7c8.3 0.7 14.5-7.9 14.5-7.9 1.4 0.9 3.2 7.8 5.8 9.6z"/><path class="g" d="m60.9 117.3c0 0 6.4-3.6 10.8-7.9 0 0 6.8 3.7 1.6 8.2 0 0-7 6.7-12.4-0.3z"/><path class="h" d="m59.1 118.6c0.4 5.8-4.2 6.8-9.3 4.2q-0.1-0.1-0.2-0.1c-3.1-1.6-4.5-5.3-3.6-8.6l1.9-8.6c8.2 4 13.2 0.4 13.2 0.4 0.2 1.5-2.2 9.8-2 12.7z"/><path class="g" d="m46.6 114.3c0 0 6.3 2.5 12 3.3 0 0 1.2 7-5.1 5.8 0 0-8.8-1.1-6.9-9.1z"/></svg>